<svg width="24" height="24" viewBox="0 0 24 24" fill="none" xmlns="http://www.w3.org/2000/svg">
<path fill-rule="evenodd" clip-rule="evenodd" d="M21.0792 11.9078L21.0806 18C19.2651 19.7934 15.9657 21 12.0792 21C8.19269 21 4.79939 19.7934 2.98389 18V15C2.98389 15 2.98528 12.0922 2.98389 12C4.82123 10.2576 8.25969 9 12.0792 9C15.8987 9 19.2418 10.1654 21.0792 11.9078ZM11.9839 20.1C16.126 20.1 19.4839 18.4926 19.4839 17.25C19.4839 16.0074 16.126 15 11.9839 15C7.84175 15 4.48389 16.0074 4.48389 17.25C4.48389 18.4926 7.84175 20.1 11.9839 20.1Z" fill="#C9FEFF"/>
<path d="M11.2339 3H12.7339V10.5H11.2339V3Z" fill="#C9FEFF"/>
</svg>
