<svg width="24" height="24" viewBox="0 0 24 24" fill="none" xmlns="http://www.w3.org/2000/svg">
<path d="M8.36347 13.309H11.0544V13.9999H13.1635V13.309H15.7453C16.5817 13.309 17.3089 12.6181 17.2362 11.6726C16.1089 -1.92738 16.4726 2.76353 16.3998 1.74534C16.3271 0.981707 15.6726 0.363525 14.9089 0.363525H9.19983C8.4362 0.363525 7.78165 0.981707 7.70892 1.74534C7.70892 1.78171 6.87256 11.6363 6.87256 11.7817C6.87256 12.6544 7.56347 13.309 8.36347 13.309Z" fill="#C9FEFF"/>
<path d="M19.8545 10.5818H17.8545C17.6726 10.5818 17.4908 10.7272 17.4908 10.9454C17.4908 11.1636 17.6726 11.3091 17.8545 11.3091H18.4726V13.5272C18.4726 13.8182 18.3999 14.1091 18.2908 14.4C18.0726 14.9091 17.6363 15.3091 17.0908 15.4909C16.909 15.0545 16.4726 14.7272 15.9635 14.7272H8.32718C7.74536 14.7272 7.27263 15.1272 7.12718 15.6363C6.14536 15.5272 5.45445 14.7272 5.45445 13.7818V11.3818H6.109C6.29082 11.3818 6.47263 11.2363 6.47263 11.0182C6.47263 10.8363 6.29082 10.6545 6.109 10.6545H4.109C3.92718 10.6545 3.74536 10.8363 3.74536 11.0182C3.74536 11.2363 3.92718 11.3818 4.109 11.3818H4.72718V13.7818C4.72718 15.1636 5.78173 16.2909 7.16354 16.3636C7.34536 16.8363 7.78172 17.2 8.32718 17.2H11.0545V18.5818C11.0545 18.7636 11.2363 18.9454 11.4181 18.9454H11.6726V19.8182L7.63627 21.2727C7.01809 21.3091 6.54536 21.8182 6.54536 22.4363C6.54536 23.0909 7.05445 23.6 7.709 23.6C8.36354 23.6 8.87263 23.0545 8.87263 22.4363C8.87263 22.1454 8.76354 21.8909 8.58173 21.6727L11.6363 20.5454V21.3091C11.1635 21.4545 10.8363 21.8909 10.8363 22.4363C10.8363 23.0909 11.3454 23.6 11.9999 23.6C12.6545 23.6 13.1635 23.0545 13.1635 22.4363C13.1635 21.9272 12.7999 21.4545 12.3272 21.3091V20.5454L15.4181 21.6727C15.2363 21.8909 15.1635 22.1454 15.1635 22.4C15.1635 23.0545 15.709 23.5636 16.3272 23.5636C16.9817 23.5636 17.4908 23.0182 17.4908 22.4C17.4908 21.7454 16.9817 21.2363 16.3272 21.2363L12.2908 19.7818V18.9091H12.6908C12.8726 18.9091 13.0545 18.7272 13.0545 18.5454V17.1636H15.9999C16.6181 17.1636 17.0908 16.7272 17.1999 16.1818C18.3999 15.8545 19.2363 14.7272 19.2363 13.4909V11.2727H19.8545C20.0363 11.2727 20.2181 11.1272 20.2181 10.9091C20.2181 10.7272 20.0726 10.5818 19.8545 10.5818Z" fill="#C9FEFF"/>
</svg>
