<svg width="24" height="24" viewBox="0 0 24 24" fill="none" xmlns="http://www.w3.org/2000/svg">
<path d="M12 3.16495C12.3728 3.16495 12.675 2.8627 12.675 2.48995V1.49995C12.675 1.1272 12.3728 0.824951 12 0.824951C11.6273 0.824951 11.325 1.1272 11.325 1.49995V2.48995C11.325 2.8627 11.6273 3.16495 12 3.16495Z" fill="#C9FEFF"/>
<path d="M2.6685 11.1465H1.6785C1.30575 11.1465 1.0035 11.4487 1.0035 11.8215C1.0035 12.1942 1.30575 12.4965 1.6785 12.4965H2.66775C3.0405 12.4965 3.34275 12.1942 3.34275 11.8215C3.34275 11.4487 3.04125 11.1465 2.6685 11.1465Z" fill="#C9FEFF"/>
<path d="M22.3215 11.1465H21.3323C20.9595 11.1465 20.6572 11.4487 20.6572 11.8215C20.6572 12.1942 20.9595 12.4965 21.3323 12.4965H22.3215C22.6942 12.4965 22.9965 12.1942 22.9965 11.8215C22.9965 11.4487 22.6942 11.1465 22.3215 11.1465Z" fill="#C9FEFF"/>
<path d="M18.822 4.04549L18.1208 4.74524C17.8568 5.00924 17.8568 5.43599 18.1208 5.69999C18.2528 5.83199 18.4253 5.89799 18.5985 5.89799C18.7718 5.89799 18.9443 5.83199 19.0755 5.70074L19.7768 5.00099C20.0408 4.73699 20.0408 4.31024 19.7768 4.04624C19.5128 3.78224 19.0838 3.78224 18.822 4.04549Z" fill="#C9FEFF"/>
<path d="M5.87925 5.69996C6.14325 5.43596 6.14325 5.00921 5.87925 4.74521L5.178 4.04546C4.9155 3.78221 4.48725 3.78221 4.224 4.04546C3.96075 4.30871 3.96 4.73621 4.224 5.00021L4.92525 5.69996C5.0565 5.83121 5.229 5.89721 5.40225 5.89721C5.5755 5.89721 5.74725 5.83196 5.87925 5.69996Z" fill="#C9FEFF"/>
<path d="M11.25 5.75316C8.55 6.07041 6.3195 8.19741 5.89275 10.8832C5.5065 13.3147 6.53925 15.5332 8.28975 16.8464C8.7795 17.2139 9.08775 17.7667 9.10575 18.3757H14.8935C14.9093 17.7704 15.213 17.2177 15.7005 16.8539C17.2103 15.7259 18.1883 13.9267 18.1883 11.8972C18.1883 8.23191 15.003 5.31141 11.25 5.75316Z" fill="#C9FEFF"/>
<path d="M9.1125 19.5029V19.6124C9.1125 20.4149 9.435 21.1349 9.96 21.6524C10.4775 22.1774 11.205 22.4999 12 22.4999C13.5975 22.4999 14.8875 21.2099 14.8875 19.6124V19.5029H9.1125Z" fill="#C9FEFF"/>
</svg>
