<svg width="24" height="24" viewBox="0 0 24 24" fill="none" xmlns="http://www.w3.org/2000/svg">
<path d="M14.1312 16.2768H10.0092C9.85777 16.2768 9.7296 16.3841 9.71288 16.5346C9.60448 17.5104 9.41516 20.9229 12.07 20.9229C14.7245 20.9229 14.5357 17.5105 14.4275 16.5346C14.4108 16.3841 14.2826 16.2768 14.1312 16.2768Z" fill="#C9FEFF"/>
<path d="M9.44123 14.5198C9.44123 14.3581 9.57234 14.227 9.73409 14.227H14.2734C14.4351 14.227 14.5662 14.3581 14.5662 14.5198V15.3984C14.5662 15.5602 14.4351 15.6913 14.2734 15.6913H9.73409C9.57234 15.6913 9.44123 15.5602 9.44123 15.3984V14.5198Z" fill="#C9FEFF" fill-opacity="0.996078"/>
<path d="M14.1984 13.7143C16.2679 12.7717 17.7143 10.6176 17.7143 8.11104C17.7143 4.73601 15.092 2 11.8572 2C8.62234 2 6 4.73601 6 8.11104C6 10.6176 7.44642 12.7717 9.51592 13.7143H11.5645V8.36974H10.5394C10.2968 8.36974 10.1002 8.17306 10.1002 7.93045C10.1002 7.68784 10.2968 7.49116 10.5394 7.49116H13.468C13.7106 7.49116 13.9073 7.68784 13.9073 7.93045C13.9073 8.17306 13.7106 8.36974 13.468 8.36974H12.443V13.7143H14.1984Z" fill="#C9FEFF" fill-opacity="0.996078"/>
</svg>
