<svg width="24" height="24" viewBox="0 0 24 24" fill="none" xmlns="http://www.w3.org/2000/svg">
<path d="M23.3999 11.2002H20.7499C20.2999 11.2502 19.9499 11.5002 19.6999 11.8502L17.2999 15.7502H6.79993L4.39993 11.8502C4.14993 11.4502 3.79993 11.2502 3.34993 11.2002H0.59993C0.0999303 12.1002 0.0999303 13.2002 0.64993 14.1002L3.49993 18.7002C3.99993 19.5002 4.89993 20.0002 5.84993 20.0502V21.4002H7.34993V20.0502H16.6499V21.4002H18.1499V20.0502C19.0999 20.0002 19.9999 19.5002 20.4999 18.7002L23.2999 14.1502C23.8999 13.2002 23.8999 12.1002 23.3999 11.2002Z" fill="#C9FEFF"/>
<path d="M5.5999 11.1001L7.5499 14.3001H16.3999L18.3499 11.1001C18.8499 10.3001 19.6999 9.8001 20.5999 9.7501H20.6499H21.2999C20.6999 5.6501 16.6999 2.6001 11.9999 2.6001C7.2999 2.6001 3.2999 5.7001 2.6499 9.7501H3.3499C4.2499 9.8001 5.0999 10.3001 5.5999 11.1001Z" fill="#C9FEFF"/>
</svg>
