<svg width="24" height="24" viewBox="0 0 24 24" fill="none" xmlns="http://www.w3.org/2000/svg">
<path d="M17.6467 8.14894C17.6467 8.34533 17.8059 8.50454 18.0023 8.50454C18.1987 8.50454 18.3579 8.34533 18.3579 8.14894C18.3579 7.95254 18.1987 7.79333 18.0023 7.79333C17.8059 7.79333 17.6467 7.95254 17.6467 8.14894Z" fill="#C9FEFF"/>
<path d="M6.26731 16.6834C6.26731 16.8798 6.42652 17.039 6.62291 17.039C6.81931 17.039 6.97852 16.8798 6.97852 16.6834C6.97852 16.487 6.81931 16.3278 6.62291 16.3278C6.42652 16.3278 6.26731 16.487 6.26731 16.6834Z" fill="#C9FEFF"/>
<path d="M3.42258 16.3278C3.42258 16.5242 3.58179 16.6834 3.77819 16.6834C3.97458 16.6834 4.13379 16.5242 4.13379 16.3278C4.13379 16.1314 3.97458 15.9722 3.77819 15.9722C3.58179 15.9722 3.42258 16.1314 3.42258 16.3278Z" fill="#C9FEFF"/>
<path d="M21.3511 11.1303L14.4947 10.1954L3.27362 13.702L10.13 14.6369L21.3511 11.1303Z" fill="#C9FEFF"/>
<path d="M20.4914 8.50453C20.4914 8.70092 20.6506 8.86013 20.847 8.86013C21.0434 8.86013 21.2026 8.70092 21.2026 8.50453C21.2026 8.30813 21.0434 8.14893 20.847 8.14893C20.6506 8.14893 20.4914 8.30813 20.4914 8.50453Z" fill="#C9FEFF"/>
<path d="M22.625 7.0369L7.68966 5L7.68966 8.54928L22.625 10.5862L22.625 7.0369ZM8.40086 7.08206C8.40086 6.49389 8.8795 6.01525 9.46767 6.01525C10.0558 6.01525 10.5345 6.49389 10.5345 7.08206C10.5345 7.67023 10.0558 8.14887 9.46767 8.14887C8.8795 8.14887 8.40086 7.67023 8.40086 7.08206ZM11.2457 7.43766C11.2457 6.84949 11.7243 6.37085 12.3125 6.37085C12.9007 6.37085 13.3793 6.84949 13.3793 7.43766C13.3793 8.02583 12.9007 8.50447 12.3125 8.50447C11.7243 8.50447 11.2457 8.02583 11.2457 7.43766ZM14.0905 7.79326C14.0905 7.2051 14.5692 6.72645 15.1573 6.72645C15.7455 6.72645 16.2241 7.2051 16.2241 7.79326C16.2241 8.38143 15.7455 8.86008 15.1573 8.86008C14.5692 8.86008 14.0905 8.38143 14.0905 7.79326ZM16.9353 8.14887C16.9353 7.5607 17.414 7.08206 18.0022 7.08206C18.5903 7.08206 19.069 7.5607 19.069 8.14887C19.069 8.73704 18.5903 9.21568 18.0022 9.21568C17.414 9.21568 16.9353 8.73704 16.9353 8.14887ZM19.7802 8.50447C19.7802 7.9163 20.2588 7.43766 20.847 7.43766C21.4352 7.43766 21.9138 7.9163 21.9138 8.50447C21.9138 9.09264 21.4352 9.57128 20.847 9.57128C20.2588 9.57128 19.7802 9.09264 19.7802 8.50447Z" fill="#C9FEFF"/>
<path d="M14.8015 17.7501C14.8015 17.9465 14.9607 18.1057 15.1571 18.1057C15.3535 18.1057 15.5127 17.9465 15.5127 17.7501C15.5127 17.5537 15.3535 17.3945 15.1571 17.3945C14.9607 17.3945 14.8015 17.5537 14.8015 17.7501Z" fill="#C9FEFF"/>
<path d="M9.11204 7.08204C9.11204 7.27844 9.27124 7.43765 9.46764 7.43765C9.66403 7.43765 9.82324 7.27844 9.82324 7.08204C9.82324 6.88565 9.66403 6.72644 9.46764 6.72644C9.27124 6.72644 9.11204 6.88565 9.11204 7.08204Z" fill="#C9FEFF"/>
<path d="M16.9355 16.2826L2.0002 14.2457L2.0002 17.795L16.9355 19.8319L16.9355 16.2826ZM2.71141 16.3278C2.71141 15.7396 3.19005 15.261 3.77822 15.261C4.36639 15.261 4.84503 15.7396 4.84503 16.3278C4.84503 16.916 4.36639 17.3946 3.77822 17.3946C3.19005 17.3946 2.71141 16.916 2.71141 16.3278ZM5.55624 16.6834C5.55624 16.0952 6.03488 15.6166 6.62305 15.6166C7.21121 15.6166 7.68986 16.0952 7.68986 16.6834C7.68986 17.2716 7.21121 17.7502 6.62305 17.7502C6.03488 17.7502 5.55624 17.2716 5.55624 16.6834ZM8.40106 17.039C8.40106 16.4508 8.87971 15.9722 9.46787 15.9722C10.056 15.9722 10.5347 16.4508 10.5347 17.039C10.5347 17.6272 10.056 18.1058 9.46787 18.1058C8.87971 18.1058 8.40106 17.6272 8.40106 17.039ZM11.2459 17.3946C11.2459 16.8064 11.7245 16.3278 12.3127 16.3278C12.9009 16.3278 13.3795 16.8064 13.3795 17.3946C13.3795 17.9828 12.9009 18.4614 12.3127 18.4614C11.7245 18.4614 11.2459 17.9828 11.2459 17.3946ZM14.0907 17.7502C14.0907 17.162 14.5694 16.6834 15.1575 16.6834C15.7457 16.6834 16.2243 17.162 16.2243 17.7502C16.2243 18.3384 15.7457 18.817 15.1575 18.817C14.5694 18.817 14.0907 18.3384 14.0907 17.7502Z" fill="#C9FEFF"/>
<path d="M11.9568 7.43763C11.9568 7.63403 12.116 7.79324 12.3124 7.79324C12.5088 7.79324 12.668 7.63403 12.668 7.43763C12.668 7.24124 12.5088 7.08203 12.3124 7.08203C12.116 7.08203 11.9568 7.24124 11.9568 7.43763Z" fill="#C9FEFF"/>
<path d="M14.8015 7.79323C14.8015 7.98962 14.9607 8.14883 15.1571 8.14883C15.3535 8.14883 15.5127 7.98962 15.5127 7.79323C15.5127 7.59683 15.3535 7.43762 15.1571 7.43762C14.9607 7.43762 14.8015 7.59683 14.8015 7.79323Z" fill="#C9FEFF"/>
<path d="M9.11204 17.039C9.11204 17.2353 9.27124 17.3946 9.46764 17.3946C9.66403 17.3946 9.82324 17.2353 9.82324 17.039C9.82324 16.8426 9.66403 16.6833 9.46764 16.6833C9.27124 16.6833 9.11204 16.8426 9.11204 17.039Z" fill="#C9FEFF"/>
<path d="M11.9568 17.3945C11.9568 17.5909 12.116 17.7501 12.3124 17.7501C12.5088 17.7501 12.668 17.5909 12.668 17.3945C12.668 17.1981 12.5088 17.0389 12.3124 17.0389C12.116 17.0389 11.9568 17.1981 11.9568 17.3945Z" fill="#C9FEFF"/>
</svg>
