<svg width="24" height="24" viewBox="0 0 24 24" fill="none" xmlns="http://www.w3.org/2000/svg">
<path fill-rule="evenodd" clip-rule="evenodd" d="M1.38397 12.7732L11.9016 15.4864C11.9571 15.5008 12.0136 15.5109 12.0704 15.5168C12.2843 15.2726 12.5496 15.0662 12.86 14.9155L17.4234 12.7001C18.667 12.0964 20.1645 12.6151 20.7683 13.8586C21.0167 14.3704 21.0751 14.9253 20.971 15.4431L21.661 15.4368C21.963 15.434 22.2519 15.3129 22.4654 15.0993L23.2352 14.3295C23.4513 14.1134 23.5728 13.8203 23.5728 13.5146V10.5499C23.5728 10.0305 23.2254 9.5753 22.7244 9.43826L6.92535 5.11628C6.65156 5.04138 6.35976 5.07016 6.10588 5.1971L1.14096 7.67956C0.748578 7.87575 0.501616 8.2777 0.503922 8.71639L0.519414 11.6634C0.522165 12.1867 0.877211 12.6425 1.38397 12.7732ZM3.40477 12.6436L6.28548 10.9149L15.5055 13.2196L12.048 14.6604L3.40477 12.6436Z" fill="#C9FEFF"/>
<path fill-rule="evenodd" clip-rule="evenodd" d="M12.5561 15.5052C11.4803 16.0274 11.0316 17.3229 11.5538 18.3987C12.0761 19.4745 13.3716 19.9233 14.4474 19.401L19.4691 16.9631C20.5449 16.4408 20.9936 15.1453 20.4714 14.0695C19.9491 12.9937 18.6536 12.545 17.5778 13.0673L12.5561 15.5052ZM14.2179 19.137C14.7812 18.8039 14.7824 17.9483 14.2205 17.2261C13.6587 16.5038 12.7466 16.1883 12.1833 16.5214C11.62 16.8545 11.538 17.7777 12.0999 18.5C12.6617 19.2223 13.6546 19.4701 14.2179 19.137Z" fill="#C9FEFF"/>
</svg>
