<svg width="32" height="32" viewBox="0 0 32 32" fill="none" xmlns="http://www.w3.org/2000/svg">
<g clip-path="url(#clip0_184_411)">
<path d="M31.0623 25.125H24.4998V22.3125C24.4998 21.7947 24.0801 21.375 23.5623 21.375H17V18.5625C17 18.0449 16.5801 17.625 16.0625 17.625H9.50001V14.8125C9.50001 14.2949 9.08008 13.875 8.56251 13.875H1.0625C0.544678 13.875 0.125 14.2949 0.125 14.8125V31.0625C0.125 31.5803 0.544678 32 1.0625 32H31.0623C31.5801 32 31.9998 31.5803 31.9998 31.0625V26.0625C31.9998 25.5447 31.5801 25.125 31.0623 25.125Z" fill="#C9FEFF"/>
<path d="M1.86351 1.76073L3.87498 2.85765V12H5.74999V3.8806L11.375 6.94872V15.75H13.25V7.97142L18.875 11.0395V19.5H20.75V12.0622L26.375 15.1304V23.25H28.25V16.1531L29.3635 16.7607C29.5061 16.8384 29.6599 16.8752 29.8115 16.8752C30.1436 16.8752 30.4651 16.6985 30.6353 16.3865C30.8833 15.9321 30.7158 15.3625 30.2612 15.1145L2.76146 0.114728C2.30687 -0.133319 1.73729 0.0341616 1.48948 0.488752C1.24144 0.943342 1.40892 1.51268 1.86351 1.76073Z" fill="#C9FEFF"/>
</g>
<defs>
<clipPath id="clip0_184_411">
<rect width="32" height="32" fill="white"/>
</clipPath>
</defs>
</svg>
