<svg width="24" height="24" viewBox="0 0 24 24" fill="none" xmlns="http://www.w3.org/2000/svg">
<path d="M12 7.91467C6.91125 7.91467 1.5 9.27217 1.5 11.7884V15.5497C1.66142 20.6915 22.3388 20.6917 22.5 15.5496V11.7884C22.5 9.27217 17.0887 7.91467 12 7.91467ZM12 18.6772C6.255 18.6772 2.25 17.0272 2.25 15.5497C2.25 14.0722 6.255 12.4259 12 12.4259C17.745 12.4259 21.75 14.0722 21.75 15.5497C21.75 17.0272 17.745 18.6772 12 18.6772Z" fill="#C9FEFF"/>
<path d="M11.9998 7.16465C15.3388 7.20464 18.438 7.58492 20.9998 8.86709C20.3393 4.04115 3.64374 4.04615 2.99609 8.87102C5.55383 7.58371 8.66004 7.20505 11.9998 7.16465Z" fill="#C9FEFF"/>
</svg>
