<svg width="24" height="24" viewBox="0 0 24 24" fill="none" xmlns="http://www.w3.org/2000/svg">
<g clip-path="url(#clip0_184_145)">
<path d="M5.9687 19.4799C5.20083 19.4799 4.60178 18.8481 4.60178 18.1129C4.60178 17.345 5.2335 16.746 5.9687 16.746C6.73657 16.746 7.33562 17.345 7.33562 18.1129C7.33562 18.8809 6.73657 19.4799 5.9687 19.4799ZM16.4358 11.3165C16.0708 10.5486 15.7333 10.3853 14.9381 10.3853H8.93671C8.13617 10.3853 7.80397 10.5541 7.43909 11.3165L5.57115 15.2484H18.3363L16.4358 11.3165ZM22.9327 8.28316L14.4697 1.6174C13.7673 1.0837 12.8688 0.78418 11.9701 0.78418C11.0716 0.78418 10.173 1.05103 9.47046 1.6174L1.00204 8.28316C0.136147 8.91488 0 9.55205 0 10.516V21.7834C0 22.5841 0.631724 23.2158 1.43227 23.2158H3.16406V16.9802C3.16406 16.4464 3.22941 16.0489 3.49626 15.4826L6.2301 9.78078C6.5623 9.11638 7.39552 8.58268 8.13072 8.58268H15.8639C16.5991 8.58268 17.4649 9.11638 17.7645 9.78078L20.5038 15.4826C20.7706 16.0489 20.836 16.4464 20.836 16.9802V23.2103H22.5678C23.3682 23.2103 24 22.5784 24 21.7779V10.516C23.9347 9.51393 23.7986 8.91488 22.9327 8.28316ZM17.9006 16.7461C17.1327 16.7461 16.5336 17.3451 16.5336 18.113C16.5336 18.881 17.1327 19.4801 17.9006 19.4801C18.6686 19.4801 19.2676 18.8482 19.2676 18.113C19.2676 17.3778 18.6686 16.7461 17.9006 16.7461ZM6.13752 23.1776H17.7373V21.1463H6.13752V23.1776Z" fill="#C9FEFF"/>
</g>
<defs>
<clipPath id="clip0_184_145">
<rect width="24" height="24" fill="white"/>
</clipPath>
</defs>
</svg>
