<svg width="32" height="32" viewBox="0 0 32 32" fill="none" xmlns="http://www.w3.org/2000/svg">
<path d="M24.79 18.61C24.6969 18.731 24.5772 18.8291 24.4403 18.8967C24.3034 18.9643 24.1528 18.9996 24 19H8.00004C7.84733 18.9996 7.69672 18.9643 7.55978 18.8967C7.42284 18.8291 7.3032 18.731 7.21004 18.61C7.10987 18.4912 7.03873 18.3508 7.00228 18.1998C6.96583 18.0488 6.96506 17.8913 7.00004 17.74L11 2.73998C11.0586 2.52181 11.1894 2.32992 11.371 2.19555C11.5526 2.06118 11.7743 1.99224 12 1.99998H20C20.2258 1.99224 20.4475 2.06118 20.6291 2.19555C20.8107 2.32992 20.9414 2.52181 21 2.73998L25 17.74C25.035 17.8913 25.0343 18.0488 24.9978 18.1998C24.9614 18.3508 24.8902 18.4912 24.79 18.61ZM20 28H17V20H15V28H12C11.7348 28 11.4805 28.1053 11.2929 28.2929C11.1054 28.4804 11 28.7348 11 29C11 29.2652 11.1054 29.5195 11.2929 29.7071C11.4805 29.8946 11.7348 30 12 30H20C20.2653 30 20.5196 29.8946 20.7072 29.7071C20.8947 29.5195 21 29.2652 21 29C21 28.7348 20.8947 28.4804 20.7072 28.2929C20.5196 28.1053 20.2653 28 20 28ZM19 21C19 21.2652 19.1054 21.5195 19.2929 21.7071C19.4805 21.8946 19.7348 22 20 22C20.2653 22 20.5196 21.8946 20.7072 21.7071C20.8947 21.5195 21 21.2652 21 21V20H19V21Z" fill="#C9FEFF"/>
</svg>
