<svg width="24" height="24" viewBox="0 0 24 24" fill="none" xmlns="http://www.w3.org/2000/svg">
<path d="M8.49297 12.1288C7.97927 11.9024 6.13593 10.8989 6.00711 8.11151C6.00038 7.96602 6.15071 7.86582 6.28614 7.91938C7.05343 8.22282 9.28383 9.00005 12 9.00005C14.7162 9.00005 16.9466 8.22282 17.7139 7.91938C17.8493 7.86582 17.9996 7.96602 17.9929 8.11151C17.8641 10.8989 16.0207 11.9024 15.507 12.1288C15.4284 12.1634 15.375 12.2398 15.375 12.3257V16C15.375 17.1046 14.4796 18 13.375 18H10.625C9.52043 18 8.625 17.1046 8.625 16V12.3257C8.625 12.2397 8.57158 12.1634 8.49297 12.1288Z" fill="#C9FEFF"/>
<rect x="10" y="18.5" width="1" height="2" rx="0.2" fill="#C9FEFF"/>
<rect x="13" y="18.5" width="1" height="2" rx="0.2" fill="#C9FEFF"/>
<ellipse cx="12" cy="6.40002" rx="6" ry="2" fill="#C9FEFF"/>
</svg>
