<svg width="24" height="24" viewBox="0 0 24 24" fill="none" xmlns="http://www.w3.org/2000/svg">
<path d="M4.5 14.25C4.83541 14.4365 5.1159 14.7079 5.31335 15.037C5.5108 15.3661 5.61828 15.7413 5.625 16.125C5.625 16.7217 5.38795 17.294 4.96599 17.716C4.54403 18.1379 3.97174 18.375 3.375 18.375C2.77826 18.375 2.20597 18.1379 1.78401 17.716C1.36205 17.294 1.125 16.7217 1.125 16.125C1.13172 15.7413 1.2392 15.3661 1.43665 15.037C1.6341 14.7079 1.91459 14.4365 2.25 14.25V12.375H4.5V14.25Z" fill="#C9FEFF"/>
<path d="M22.125 14.625C22.4604 14.8115 22.7409 15.0829 22.9384 15.412C23.1358 15.7411 23.2433 16.1163 23.25 16.5C23.25 17.0967 23.0129 17.669 22.591 18.091C22.169 18.5129 21.5967 18.75 21 18.75C20.4033 18.75 19.831 18.5129 19.409 18.091C18.9871 17.669 18.75 17.0967 18.75 16.5C18.7567 16.1163 18.8642 15.7411 19.0616 15.412C19.2591 15.0829 19.5396 14.8115 19.875 14.625V12.75H22.125V14.625Z" fill="#C9FEFF"/>
<path d="M13.125 16.5C13.4604 16.6865 13.7409 16.9579 13.9384 17.287C14.1358 17.6161 14.2433 17.9913 14.25 18.375C14.25 18.9717 14.0129 19.544 13.591 19.966C13.169 20.3879 12.5967 20.625 12 20.625C11.4033 20.625 10.831 20.3879 10.409 19.966C9.98705 19.544 9.75 18.9717 9.75 18.375C9.75672 17.9913 9.8642 17.6161 10.0616 17.287C10.2591 16.9579 10.5396 16.6865 10.875 16.5V14.625H13.125V16.5Z" fill="#C9FEFF"/>
<path d="M1.125 5.0119L2.87363 5.8369C5.73016 7.17533 8.84545 7.87104 12 7.87502C15.1547 7.87046 18.27 7.1741 21.1264 5.83502L22.875 5.0119V4.32715L20.7645 5.26465C18.0066 6.49513 15.0199 7.12909 12 7.12502C8.98011 7.12921 5.9934 6.49537 3.2355 5.26502L1.125 4.32715V5.0119Z" fill="#C9FEFF"/>
<path d="M3.375 9.375C3.50304 9.37624 3.6299 9.39959 3.75 9.444V7.03087C3.49725 6.92962 3.24862 6.81862 3 6.70837V9.44587C3.11998 9.40082 3.24685 9.37684 3.375 9.375Z" fill="#C9FEFF"/>
<path d="M21 9.75006C21.128 9.7513 21.2549 9.77464 21.375 9.81906V6.54456C21.1279 6.65968 20.8766 6.76618 20.625 6.87231V9.81906C20.7451 9.77464 20.872 9.7513 21 9.75006Z" fill="#C9FEFF"/>
<path d="M12 11.625C12.128 11.6262 12.2549 11.6496 12.375 11.694V8.6145C12.2501 8.61675 12.1249 8.625 12 8.625C11.8751 8.625 11.7499 8.61675 11.625 8.6145V11.694C11.7451 11.6496 11.872 11.6262 12 11.625Z" fill="#C9FEFF"/>
<path d="M2.625 11.625V10.875C2.625 10.6761 2.70402 10.4853 2.84467 10.3447C2.98532 10.204 3.17609 10.125 3.375 10.125C3.57391 10.125 3.76468 10.204 3.90533 10.3447C4.04598 10.4853 4.125 10.6761 4.125 10.875V11.625" fill="#C9FEFF"/>
<path d="M20.25 12V11.25C20.25 11.0511 20.329 10.8603 20.4697 10.7197C20.6103 10.579 20.8011 10.5 21 10.5C21.1989 10.5 21.3897 10.579 21.5303 10.7197C21.671 10.8603 21.75 11.0511 21.75 11.25V12" fill="#C9FEFF"/>
<path d="M11.25 13.875V13.125C11.25 12.9261 11.329 12.7353 11.4697 12.5947C11.6103 12.454 11.8011 12.375 12 12.375C12.1989 12.375 12.3897 12.454 12.5303 12.5947C12.671 12.7353 12.75 12.9261 12.75 13.125V13.875" fill="#C9FEFF"/>
</svg>
