<svg width="24" height="24" viewBox="0 0 24 24" fill="none" xmlns="http://www.w3.org/2000/svg">
<path d="M16.1498 7.8505C16.0014 7.78631 15.84 7.86299 15.7101 7.95912C15.2691 8.28541 14.0674 9 12 9C10.0601 9 8.73125 8.23743 8.27201 7.92811C8.15402 7.84863 8.01254 7.78895 7.87918 7.8385C7.63534 7.92909 7.46759 8.1687 7.47693 8.43812C7.47882 8.49241 7.49598 8.54326 7.51808 8.59288C7.70093 9.00335 8.59086 11.0494 8.82393 12.5C9.04823 13.896 8.87173 16.0323 8.83157 16.4717C8.82658 16.5263 8.82676 16.5803 8.84285 16.6327C8.92152 16.8888 9.15923 17.0687 9.43343 17.0687H14.5656C14.8398 17.0687 15.0775 16.8888 15.1562 16.6328C15.1723 16.5803 15.1725 16.5262 15.1675 16.4716C15.1279 16.039 14.9569 13.9648 15.1751 12.5691C15.4058 11.0938 16.3015 9.00315 16.4821 8.59148C16.5034 8.54287 16.5201 8.49305 16.5221 8.44001C16.5318 8.18098 16.3779 7.94921 16.1498 7.8505Z" fill="#C9FEFF"/>
<path d="M13.8008 18H10.1415C9.79098 18 9.51429 18.2903 9.56654 18.6369C9.72634 19.6969 10.2556 21.7075 11.9714 21.7075C13.6873 21.7075 14.2162 19.6967 14.3758 18.6369C14.428 18.2903 14.1513 18 13.8008 18Z" fill="#C9FEFF"/>
<path d="M17 4C17 7 14.7614 8 12 8C9.23858 8 7 7 7 4C7 2.067 9.23858 0 12 0C14.7614 0 17 2.067 17 4Z" fill="#C9FEFF"/>
</svg>
