<svg width="24" height="24" viewBox="0 0 24 24" fill="none" xmlns="http://www.w3.org/2000/svg">
<path fill-rule="evenodd" clip-rule="evenodd" d="M3.73253 13.2132C3.62321 13.256 3.55127 13.3614 3.55127 13.4788V18.7946C3.55127 18.9112 3.62226 19.0161 3.73053 19.0594L7.01155 20.3718C7.07866 20.3986 7.15346 20.399 7.22082 20.3728L19.7671 15.4937C19.8768 15.451 19.949 15.3455 19.949 15.2279V7.28545C19.949 7.08461 19.7469 6.9467 19.5599 7.01988L3.73253 13.2132ZM5.63361 18.53C5.39477 18.4371 5.39012 18.1008 5.62631 18.0014L18.1272 12.7378C18.3152 12.6587 18.5231 12.7967 18.5231 13.0007V14.5197C18.5231 14.6349 18.4537 14.7388 18.3473 14.783L7.64966 19.2288C7.5817 19.2571 7.50545 19.2579 7.43686 19.2313L5.63361 18.53Z" fill="#C9FEFF"/>
<rect x="0.310059" y="12.3555" width="22.9253" height="2.18802" rx="1.09401" transform="rotate(-21.3745 0.310059 12.3555)" fill="#C9FEFF"/>
</svg>
