<svg width="24" height="24" viewBox="0 0 24 24" fill="none" xmlns="http://www.w3.org/2000/svg">
<path fill-rule="evenodd" clip-rule="evenodd" d="M21.0286 18.8145C21.8611 18.0626 22.6547 17.1823 22.8176 16.0724C23.517 11.3049 17.4887 3.22565 12.169 2.08154C10.5423 1.73169 8.95991 2.56151 7.61652 3.54326C4.07266 6.13313 1.82568 8.70716 1.82568 13.1096C1.82568 18.3155 6.04593 22.5358 11.2519 22.5358C15.7735 22.5358 18.3664 21.2193 21.0286 18.8145ZM21.5313 15.2046C22.5228 14.3978 21.2499 10.7672 18.5427 7.44029C15.8355 4.11335 12.7191 2.34988 11.7277 3.15666C10.7362 3.96345 12.1271 7.31449 14.8343 10.6414C17.5415 13.9684 20.5398 16.0114 21.5313 15.2046Z" fill="#C9FEFF"/>
</svg>
