<svg width="24" height="24" viewBox="0 0 24 24" fill="none" xmlns="http://www.w3.org/2000/svg">
<path d="M11.9976 0C8.57493 0 6.9223 10.0299 6.53113 12.8001C6.47795 13.1767 6.77233 13.5014 7.15265 13.5014H16.8425C17.2228 13.5014 17.5172 13.1767 17.464 12.8001C17.0728 10.0299 15.4202 0 11.9976 0Z" fill="#C9FEFF"/>
<path d="M17.0069 14.1368H6.9882C6.74369 14.1368 6.59084 14.4014 6.71303 14.6132L8.72907 18.1077C8.78581 18.206 8.89071 18.2666 9.00424 18.2666H14.9909C15.1044 18.2666 15.2093 18.206 15.266 18.1077L17.2821 14.6132C17.4043 14.4014 17.2514 14.1368 17.0069 14.1368Z" fill="#C9FEFF"/>
<path d="M14.1117 18.902H9.88406C9.72878 18.902 9.59732 19.012 9.58017 19.1663C9.46899 20.1672 9.27482 23.6672 11.9978 23.6672C14.7203 23.6672 14.5267 20.1673 14.4156 19.1664C14.3985 19.012 14.267 18.902 14.1117 18.902Z" fill="#C9FEFF"/>
</svg>
