<svg width="24" height="24" viewBox="0 0 24 24" fill="none" xmlns="http://www.w3.org/2000/svg">
<path d="M5 11C5 10.4477 5.44772 10 6 10H10C10.5523 10 11 10.4477 11 11V21C11 21.5523 10.5523 22 10 22H6C5.44772 22 5 21.5523 5 21V11Z" fill="#C9FEFF"/>
<path d="M0 3C0 2.44772 0.447715 2 1 2H15C15.5523 2 16 2.44772 16 3C16 3.55228 15.5523 4 15 4H1C0.447715 4 0 3.55228 0 3Z" fill="#C9FEFF"/>
<path d="M8 11C7.44772 11 7 10.5523 7 10L7 4C7 3.44772 7.44771 3 8 3C8.55228 3 9 3.44772 9 4V10C9 10.5523 8.55229 11 8 11Z" fill="#C9FEFF"/>
<path d="M13 11C13 10.4477 13.4477 10 14 10H18C18.5523 10 19 10.4477 19 11V21C19 21.5523 18.5523 22 18 22H14C13.4477 22 13 21.5523 13 21V11Z" fill="#C9FEFF"/>
<path d="M8 3C8 2.44772 8.44772 2 9 2H23C23.5523 2 24 2.44772 24 3C24 3.55228 23.5523 4 23 4H9C8.44772 4 8 3.55228 8 3Z" fill="#C9FEFF"/>
<path d="M16 11C15.4477 11 15 10.5523 15 10L15 4C15 3.44772 15.4477 3 16 3C16.5523 3 17 3.44772 17 4V10C17 10.5523 16.5523 11 16 11Z" fill="#C9FEFF"/>
</svg>
