<svg width="24" height="24" viewBox="0 0 24 24" fill="none" xmlns="http://www.w3.org/2000/svg">
<path d="M23.7773 1.60501C23.6352 1.47208 23.4452 1.40383 23.2502 1.41686C14.3893 2.00575 9.55284 2.00575 0.750047 1.41686C0.555609 1.40402 0.364969 1.47194 0.222844 1.60487C0.0806719 1.73786 0 1.92381 0 2.11844V16.9309C0 17.1255 0.080625 17.3113 0.222609 17.4443C0.364453 17.5773 0.556547 17.6455 0.749484 17.6326C9.57891 17.0488 14.4156 17.0488 23.2505 17.6326C23.445 17.6455 23.6354 17.5772 23.7773 17.4443C23.9193 17.3113 24 17.1255 24 16.9309V2.11844C24 1.92386 23.9194 1.738 23.7773 1.60501Z" fill="#C9FEFF"/>
<path d="M19.4823 21.2025L14.4375 19.8507V18.626C13.6046 18.6091 12.7973 18.6011 11.9979 18.6011C11.1998 18.6011 10.3938 18.6091 9.5625 18.6259V19.8507L4.51767 21.2025C4.14258 21.303 3.91997 21.6885 4.02047 22.0636C4.10465 22.3778 4.38872 22.585 4.69917 22.585C4.75941 22.585 4.82067 22.5772 4.88161 22.5608L10.173 21.1431C10.2034 21.1471 13.7967 21.1471 13.8271 21.1431L19.1185 22.5608C19.1794 22.5772 19.2406 22.585 19.3009 22.585C19.6113 22.585 19.8955 22.3778 19.9796 22.0636C20.08 21.6885 19.8574 21.303 19.4823 21.2025Z" fill="#C9FEFF"/>
</svg>
