<svg width="24" height="24" viewBox="0 0 24 24" fill="none" xmlns="http://www.w3.org/2000/svg">
<g clip-path="url(#clip0_184_178)">
<path d="M0.328125 0V1.41376H2.16815V24H4.01074L5.04071 21.7621H11.3064V1.38721H12.7126V21.7621H18.9781L20.0081 24H21.8507V1.41376H23.6907V0L0.328125 0ZM9.091 12.6229C8.69678 12.6229 8.40491 12.3007 8.38788 11.9198C8.37085 11.54 8.72333 11.2167 9.091 11.2167C9.48523 11.2167 9.7771 11.5388 9.79413 11.9198C9.81116 12.2996 9.45886 12.6229 9.091 12.6229ZM14.983 12.6229C14.5887 12.6229 14.2969 12.3007 14.2798 11.9198C14.2628 11.54 14.6151 11.2167 14.983 11.2167C15.3772 11.2167 15.6691 11.5388 15.6861 11.9198C15.7031 12.2996 15.3508 12.6229 14.983 12.6229Z" fill="#C9FEFF"/>
</g>
<defs>
<clipPath id="clip0_184_178">
<rect width="24" height="24" fill="white"/>
</clipPath>
</defs>
</svg>
