<svg width="24" height="24" viewBox="0 0 24 24" fill="none" xmlns="http://www.w3.org/2000/svg">
<path d="M9.47446 12.1388C8.81314 11.9332 6.19044 10.9423 6.00981 8.11143C6.00053 7.96609 6.15071 7.86582 6.28614 7.91938C7.05343 8.22282 9.28383 9.00005 12 9.00005C14.7162 9.00005 16.9466 8.22282 17.7139 7.91938C17.8493 7.86582 17.9995 7.96609 17.9902 8.11144C17.8096 10.9423 15.1869 11.9332 14.5255 12.1388C14.4375 12.1661 14.375 12.2468 14.375 12.339V17.8C14.375 17.9105 14.2855 18 14.175 18H9.825C9.71454 18 9.625 17.9105 9.625 17.8V12.339C9.625 12.2468 9.56255 12.1661 9.47446 12.1388Z" fill="#C9FEFF"/>
<ellipse cx="12" cy="6.40002" rx="6" ry="2" fill="#C9FEFF"/>
<path d="M14.1708 18.5H9.82959C9.76072 18.5 9.70729 18.5601 9.71535 18.6285C10.0348 21.3368 13.9656 21.3368 14.285 18.6285C14.2931 18.5601 14.2397 18.5 14.1708 18.5Z" fill="#C9FEFF"/>
</svg>
