<svg width="32" height="32" viewBox="0 0 32 32" fill="none" xmlns="http://www.w3.org/2000/svg">
<g clip-path="url(#clip0_144_2350)">
<path d="M31.95 22.7L29.35 13.5C29.15 12.8 28.5 12.3 27.75 12.3H20.85C20.1 12.3 19.45 12.8 19.25 13.5L16.65 22.7C16.5 23.2 16.6 23.75 16.9 24.15C17.2 24.55 17.7 24.8 18.2 24.8H30.3C30.8 24.8 31.3 24.55 31.6 24.15C32 23.75 32.1 23.2 31.95 22.7ZM29.95 22.65C29.55 23.2 28.9 23.5 28.25 23.5C27.95 23.5 27.7 23.25 27.7 22.95C27.7 22.65 27.95 22.4 28.25 22.4C28.6 22.4 28.9 22.25 29.1 22C29.3 21.75 29.35 21.4 29.3 21.05L27.35 14.2C27.3 14.1 27.25 14 27.25 13.85C27.25 13.55 27.5 13.3 27.8 13.3C28.05 13.3 28.25 13.45 28.35 13.7L30.35 20.75C30.45 21.4 30.35 22.1 29.95 22.65ZM23.1 4.09996C21.75 3.29996 20.1 3.24996 18.7 3.94996L5.4 11.05C3.95 11.8 3.05 13.3 3.05 14.95V20.8C3.05 21.3 3.45 21.75 4 21.75C4.5 21.75 4.9 21.35 4.9 20.8V14.95C4.9 14 5.45 13.1 6.3 12.65L19.6 5.59996C20.35 5.19996 21.25 5.19996 22 5.59996C22.75 5.99996 23.35 7.04996 23.35 7.99996V11.15H25.2V8.04996C25.25 6.44996 24.4 4.89996 23.1 4.09996ZM6.8 13.65C6.3 13.9 6 14.4 6 15V20.85C6 21.95 5.1 22.85 4 22.85C2.9 22.85 2 21.95 2 20.85V14.95C2 12.9 3.15 11.05 4.95 10.1L7.8 8.59996C7.7 8.29996 7.55 8.04996 7.35 7.84996C7 7.49996 6.5 7.29996 6.05 7.29996H1.8C0.8 7.29996 0 8.09996 0 9.09996V26.7C0 27.7 0.8 28.5 1.8 28.5H6C7 28.5 7.8 27.7 7.8 26.7V13.05L6.8 13.65Z" fill="#C9FEFF"/>
</g>
<defs>
<clipPath id="clip0_144_2350">
<rect width="32" height="32" fill="white"/>
</clipPath>
</defs>
</svg>
