<svg width="24" height="24" viewBox="0 0 24 24" fill="none" xmlns="http://www.w3.org/2000/svg">
<g clip-path="url(#clip0_184_281)">
<path d="M0.388935 23.9252C0.739582 24.0994 1.15926 23.9558 1.33229 23.6108L3.51583 19.2438L5.69936 23.6108C5.87221 23.9554 6.29189 24.0995 6.64272 23.9252C6.99025 23.7516 7.13087 23.3292 6.95729 22.9819L4.65364 18.3746H6.32832C6.71651 18.3746 7.03145 18.0598 7.03145 17.6714C7.03145 14.1765 4.19826 11.3435 0.703327 11.3435C0.315144 11.3435 0.000202722 11.6581 0.000202722 12.0466V17.6714C0.000202722 18.0598 0.315144 18.3746 0.703327 18.3746H2.37819L0.0743604 22.9819C-0.0992235 23.3292 0.0414014 23.7516 0.388935 23.9252Z" fill="#C9FEFF"/>
<path d="M1.52595 4.57928C1.41389 4.74756 1.37965 4.95483 1.4311 5.14984C1.48329 5.34484 1.61586 5.50763 1.7964 5.59826C3.43757 6.41912 5.34608 6.55078 7.07368 5.99414C7.042 5.73944 7.02314 5.48126 7.04163 5.21374C7.18134 3.17798 8.79377 1.20685 10.0499 0H9.99201C6.58094 0 3.41615 1.74151 1.52595 4.57928Z" fill="#C9FEFF"/>
<path d="M11.9891 0.199707C11.0038 1.00995 8.58734 3.21069 8.44452 5.31183C8.42914 5.53558 8.44617 5.75018 8.48462 5.95947L9.74292 6.37896C10.2316 6.54174 10.7861 6.62799 11.2969 6.67926V14.1558H7.58374C8.02411 15.0142 8.31067 15.9625 8.40204 16.9683H11.2969V22.5931H9.14069C8.75214 22.5931 8.43756 22.9077 8.43756 23.2962C8.43756 23.6848 8.75214 23.9994 9.14069 23.9994H14.8592C15.248 23.9994 15.5624 23.6848 15.5624 23.2962C15.5624 22.9077 15.248 22.5931 14.8592 22.5931H12.7032V16.9683H15.5981C15.6893 15.9625 15.976 15.0142 16.4162 14.1558H12.7032V6.67926C13.214 6.62799 13.7685 6.54174 14.2572 6.37896L15.527 5.95562C15.8652 3.78216 13.0617 1.12292 11.9891 0.199707Z" fill="#C9FEFF"/>
<path d="M22.2047 5.59753C22.3854 5.50763 22.5178 5.3443 22.57 5.14929C22.6216 4.95428 22.5872 4.74627 22.4753 4.57873C20.5837 1.74078 17.4176 0 14.0078 0H13.906C15.3108 1.37714 17.1907 3.72986 16.9408 5.99963C18.6638 6.54986 20.5659 6.41546 22.2047 5.59753Z" fill="#C9FEFF"/>
<path d="M23.2966 11.3435C19.8017 11.3435 16.9685 14.1765 16.9685 17.6714C16.9685 18.0598 17.2834 18.3746 17.6716 18.3746H19.3465L17.0426 22.9819C16.869 23.3292 17.0097 23.7516 17.3572 23.9252C17.7078 24.0994 18.1275 23.9558 18.3006 23.6108L20.4841 19.2438L22.6676 23.6108C22.8405 23.9554 23.2601 24.0995 23.611 23.9252C23.9585 23.7516 24.0991 23.3292 23.9256 22.9819L21.6219 18.3746H23.2966C23.6848 18.3746 23.9997 18.0598 23.9997 17.6714V12.0466C23.9997 11.6581 23.6848 11.3435 23.2966 11.3435Z" fill="#C9FEFF"/>
</g>
<defs>
<clipPath id="clip0_184_281">
<rect width="24" height="24" fill="white"/>
</clipPath>
</defs>
</svg>
