<svg width="24" height="24" viewBox="0 0 24 24" fill="none" xmlns="http://www.w3.org/2000/svg">
<g clip-path="url(#clip0_184_56)">
<path d="M22.75 6H22.25C21.9185 6 21.6005 6.1317 21.3661 6.36612C21.1317 6.60054 21 6.91848 21 7.25V10H3V7.25C3 7.08585 2.96767 6.9233 2.90485 6.77165C2.84203 6.61999 2.74996 6.48219 2.63388 6.36612C2.51781 6.25004 2.38001 6.15797 2.22835 6.09515C2.0767 6.03233 1.91415 6 1.75 6V2.25C1.75 1.78587 1.93437 1.34075 2.26256 1.01256C2.59075 0.684374 3.03587 0.5 3.5 0.5H8.25C8.71413 0.5 9.15925 0.684374 9.48744 1.01256C9.81563 1.34075 10 1.78587 10 2.25V3.089C9.6279 3.20215 9.28358 3.39191 8.98919 3.64607C8.6948 3.90023 8.45684 4.21318 8.29061 4.56479C8.12438 4.91641 8.03355 5.29891 8.02397 5.68773C8.01439 6.07654 8.08627 6.46305 8.23498 6.82242C8.38369 7.1818 8.60595 7.50608 8.88747 7.77444C9.16899 8.04279 9.50354 8.24927 9.86962 8.38061C10.2357 8.51196 10.6252 8.56525 11.0131 8.53707C11.401 8.50889 11.7787 8.39987 12.122 8.217C12.2097 8.16877 12.2811 8.09551 12.327 8.00656C12.3729 7.91761 12.3913 7.81701 12.3799 7.71756C12.3684 7.61812 12.3275 7.52435 12.2626 7.4482C12.1976 7.37205 12.1114 7.31698 12.015 7.29C11.6159 7.17913 11.2754 6.91781 11.065 6.561C10.9179 6.31607 10.8401 6.03572 10.8401 5.75C10.8401 5.46428 10.9179 5.18393 11.065 4.939C11.2756 4.5824 11.6161 4.32116 12.015 4.21C12.1114 4.18296 12.1975 4.12784 12.2624 4.05166C12.3274 3.97548 12.3681 3.8817 12.3795 3.78226C12.391 3.68283 12.3725 3.58224 12.3266 3.49332C12.2806 3.40441 12.2092 3.33119 12.1215 3.283C11.6239 3.02103 11.0582 2.91707 10.5 2.985V2.25C10.5 1.65326 10.2629 1.08097 9.84099 0.65901C9.41903 0.237053 8.84674 0 8.25 0L3.5 0C2.90347 0.000661713 2.33155 0.237927 1.90974 0.659741C1.48793 1.08155 1.25066 1.65347 1.25 2.25V6C1.08585 6 0.923303 6.03233 0.771646 6.09515C0.619989 6.15797 0.48219 6.25004 0.366117 6.36612C0.131696 6.60054 0 6.91848 0 7.25L0 22.75C0 22.9142 0.0323322 23.0767 0.0951506 23.2284C0.157969 23.38 0.250043 23.5178 0.366117 23.6339C0.48219 23.75 0.619989 23.842 0.771646 23.9049C0.923303 23.9677 1.08585 24 1.25 24H1.75C1.91415 24 2.0767 23.9677 2.22835 23.9049C2.38001 23.842 2.51781 23.75 2.63388 23.6339C2.74996 23.5178 2.84203 23.38 2.90485 23.2284C2.96767 23.0767 3 22.9142 3 22.75V22.5H21V22.75C21 22.9142 21.0323 23.0767 21.0951 23.2284C21.158 23.38 21.25 23.5178 21.3661 23.6339C21.4822 23.75 21.62 23.842 21.7716 23.9049C21.9233 23.9677 22.0858 24 22.25 24H22.75C22.9142 24 23.0767 23.9677 23.2284 23.9049C23.38 23.842 23.5178 23.75 23.6339 23.6339C23.75 23.5178 23.842 23.38 23.9049 23.2284C23.9677 23.0767 24 22.9142 24 22.75V7.25C24 7.08585 23.9677 6.9233 23.9049 6.77165C23.842 6.61999 23.75 6.48219 23.6339 6.36612C23.5178 6.25004 23.38 6.15797 23.2284 6.09515C23.0767 6.03233 22.9142 6 22.75 6ZM5.5 19.5H3V17.5H5.5V19.5ZM5.5 17H3V13H5.5V17ZM11 19.5H7.5V17.5H11V19.5ZM11 17H7.5V13H11V17ZM16.5 19.5H13V17.5H16.5V19.5ZM16.5 17H13V13H16.5V17ZM21 19.5H18.5V17.5H21V19.5ZM21 17H18.5V13H21V17Z" fill="#C9FEFF"/>
</g>
<defs>
<clipPath id="clip0_184_56">
<rect width="24" height="24" fill="white"/>
</clipPath>
</defs>
</svg>
