<svg width="24" height="24" viewBox="0 0 24 24" fill="none" xmlns="http://www.w3.org/2000/svg">
<g opacity="0.8">
<path d="M13.3411 17.2H10.5261C10.4227 17.2 10.3351 17.2732 10.3237 17.376C10.2497 18.0424 10.1204 20.3729 11.9335 20.3729C13.7463 20.3729 13.6173 18.0424 13.5434 17.376C13.532 17.2732 13.4445 17.2 13.3411 17.2Z" fill="#C9FEFF"/>
<path d="M17.0397 9.37333C17.2236 9.37333 17.3737 9.22413 17.3623 9.04061C17.3256 8.44877 17.1911 7.8663 16.9636 7.31704C16.6936 6.66512 16.2978 6.07277 15.7988 5.57381C15.2999 5.07485 14.7075 4.67905 14.0556 4.40902C13.4037 4.13899 12.7049 4 11.9993 4C11.2937 4 10.5949 4.13899 9.94302 4.40902C9.2911 4.67906 8.69875 5.07485 8.19979 5.57381C7.70083 6.07277 7.30504 6.66512 7.035 7.31704C6.80749 7.8663 6.67301 8.44877 6.63629 9.04061C6.62491 9.22413 6.77504 9.37333 6.95891 9.37333L17.0397 9.37333Z" fill="#C9FEFF"/>
<path d="M6.95835 10.0515C6.77448 10.0515 6.62494 10.2006 6.63001 10.3844C6.65604 11.3292 6.79275 12.2607 7.03444 13.136C7.30448 14.1138 7.70028 14.0024 8.19923 14.7508C8.67767 15.4685 9.24197 16.0438 9.86232 16.447C9.91438 16.4809 9.97511 16.498 10.0372 16.498C10.3564 16.498 11.4055 16.498 11.9987 16.498C12.592 16.498 13.6411 16.498 13.9603 16.498C14.0224 16.498 14.0831 16.4809 14.1352 16.447C14.7555 16.0438 15.3198 15.4685 15.7983 14.7508C16.2972 14.0024 16.693 14.1138 16.9631 13.136C17.2047 12.2607 17.3415 11.3292 17.3675 10.3844C17.3726 10.2006 17.223 10.0515 17.0391 10.0515L6.95835 10.0515Z" fill="#C9FEFF"/>
</g>
</svg>
