<svg width="24" height="24" viewBox="0 0 24 24" fill="none" xmlns="http://www.w3.org/2000/svg">
<path d="M11.9999 23.625C12.6224 23.625 13.1249 23.1225 13.1249 22.5V17.7C16.3799 17.16 18.8699 14.34 18.8699 10.935V7.7775H19.7249C20.3399 7.7775 20.8499 7.27501 20.8499 6.6525C20.8499 6.02998 20.3399 5.5275 19.7249 5.5275H17.0849V1.5C17.0849 0.877485 16.5824 0.375 15.9599 0.375C15.3374 0.375 14.8349 0.877485 14.8349 1.5V5.5275H9.16487V1.5C9.16487 0.877485 8.66238 0.375 8.03987 0.375C7.4174 0.375 6.91487 0.877485 6.91487 1.5V5.5275H4.2749C3.65989 5.5275 3.1499 6.02998 3.1499 6.6525C3.1499 7.27501 3.65989 7.7775 4.2749 7.7775H5.12991V10.935C5.12991 14.34 7.61987 17.16 10.8749 17.7V22.5C10.8749 23.1225 11.3774 23.625 11.9999 23.625Z" fill="#C9FEFF"/>
</svg>
