<svg width="24" height="24" viewBox="0 0 24 24" fill="none" xmlns="http://www.w3.org/2000/svg">
<path d="M19.5 8.25H13.5V6C13.5 5.58578 13.1642 5.25 12.75 5.25H12V4.125C12 3.91785 11.8321 3.75 11.625 3.75H10.875C10.6679 3.75 10.5 3.91785 10.5 4.125V6C10.5 6.41415 10.8358 6.75 11.25 6.75H12V8.25H4.5C2.4324 8.25 0.75 9.9324 0.75 12V16.5C0.75 18.5676 2.4324 20.25 4.5 20.25H19.5C21.5676 20.25 23.25 18.5676 23.25 16.5V12C23.25 9.9324 21.5676 8.25 19.5 8.25ZM8.25 14.625C8.25 14.8321 8.08208 15 7.875 15H6.75V16.125C6.75 16.3321 6.58208 16.5 6.375 16.5H5.625C5.41792 16.5 5.25 16.3321 5.25 16.125V15H4.125C3.91792 15 3.75 14.8321 3.75 14.625V13.875C3.75 13.6678 3.91792 13.5 4.125 13.5H5.25V12.375C5.25 12.1678 5.41792 12 5.625 12H6.375C6.58208 12 6.75 12.1678 6.75 12.375V13.5H7.875C8.08208 13.5 8.25 13.6678 8.25 13.875V14.625ZM15.75 14.625C15.75 14.8321 15.5821 15 15.375 15H14.625C14.4179 15 14.25 14.8321 14.25 14.625V13.875C14.25 13.6678 14.4179 13.5 14.625 13.5H15.375C15.5821 13.5 15.75 13.6678 15.75 13.875V14.625ZM18 16.875C18 17.0821 17.8321 17.25 17.625 17.25H16.875C16.6679 17.25 16.5 17.0821 16.5 16.875V16.125C16.5 15.9178 16.6679 15.75 16.875 15.75H17.625C17.8321 15.75 18 15.9178 18 16.125V16.875ZM18 12.375C18 12.5821 17.8321 12.75 17.625 12.75H16.875C16.6679 12.75 16.5 12.5821 16.5 12.375V11.625C16.5 11.4179 16.6679 11.25 16.875 11.25H17.625C17.8321 11.25 18 11.4179 18 11.625V12.375ZM20.25 14.625C20.25 14.8321 20.0821 15 19.875 15H19.125C18.9179 15 18.75 14.8321 18.75 14.625V13.875C18.75 13.6678 18.9179 13.5 19.125 13.5H19.875C20.0821 13.5 20.25 13.6678 20.25 13.875V14.625Z" fill="#C9FEFF"/>
</svg>
