<svg width="24" height="24" viewBox="0 0 24 24" fill="none" xmlns="http://www.w3.org/2000/svg">
<path fill-rule="evenodd" clip-rule="evenodd" d="M11.4844 7.42692V22.9686L8.17553 22.9684C7.89095 22.9684 7.6599 23.1994 7.65986 23.484C7.65986 23.7686 7.8909 23.9996 8.17548 23.9996L15.8245 24C16.1091 24 16.3401 23.769 16.3402 23.4844C16.3402 23.1998 16.1091 22.9688 15.8245 22.9688L12.5156 22.9686V7.42692H15.3089V9.46078C15.3089 9.74536 15.54 9.97641 15.8245 9.97641C16.1091 9.97641 16.3402 9.74536 16.3402 9.46078V7.42692H17.4339C17.8163 7.42692 18.1737 7.23741 18.3883 6.92091C18.6029 6.60441 18.6466 6.20213 18.5049 5.84691L16.4635 0.726047C16.2887 0.287625 15.8644 0 15.3924 0H8.60762C8.13564 0 7.71128 0.287625 7.53653 0.726047L5.49507 5.84691C5.35346 6.20213 5.39715 6.60441 5.61175 6.92091C5.82629 7.23741 6.18376 7.42692 6.56617 7.42692H11.4844Z" fill="#C9FEFF"/>
</svg>
