<svg width="24" height="24" viewBox="0 0 24 24" fill="none" xmlns="http://www.w3.org/2000/svg">
<g clip-path="url(#clip0_184_303)">
<path fill-rule="evenodd" clip-rule="evenodd" d="M20.448 10.6007H18.8885C19.7314 10.0895 20.5896 9.60423 21.4603 9.14343H22.621C21.8846 9.61095 21.1598 10.0967 20.448 10.6007ZM13.2226 15.2543C14.2872 14.289 15.4042 13.3818 16.5648 12.5351H18.4848C17.4451 13.3929 16.4462 14.2996 15.4954 15.2543H13.2226ZM0 23.5804H17.6467C18.9629 19.0497 20.3952 16.0454 24 12.4564V6.09015C18.4598 7.08663 13.3162 9.57639 8.964 13.1346C5.23968 16.1798 2.54496 19.5518 0 23.5804ZM9.11088 5.95479V6.77559H8.27952V5.95479H9.11088ZM8.27952 9.18855H9.11088V10.0098H8.27952V9.18855ZM9.11088 7.57191V8.39271H8.27952V7.57191H9.11088ZM21.708 3.34503H20.8766V2.52375H21.708V3.34503ZM20.8766 4.96167V4.14087H21.708V4.96215H20.8766V4.96167ZM12.8846 2.60007H12.0533V1.77879H12.8846V2.60007ZM19.4467 2.35479H18.6154V1.53351H19.4467V2.35479ZM18.6154 3.97191V3.15063H19.4467V3.97191H18.6154ZM16.6277 4.59543V3.77415H17.459V4.59543H16.6277ZM16.6277 6.21207V5.39079H17.459V6.21207H16.6277ZM15.3096 6.81975H14.4782V5.99847H15.3096V6.81975ZM14.4782 5.20263V4.38135H15.3096V5.20263H14.4782ZM11.0275 5.51415H10.1962V4.69287H11.0275V5.51415ZM11.0275 6.30999V7.13079H10.1962V6.30999H11.0275ZM6.99552 13.9564C11.3914 9.95751 16.6694 7.05255 22.4846 5.73591L22.4496 1.57431H20.3347V0.419434H17.7576V2.46135H15.7234V3.30231H13.9862V0.647434H11.0477V3.02631H9.18432V4.19991H7.06944L6.99552 13.9564ZM3.38496 11.1441C3.76848 11.1441 4.07952 11.4542 4.07952 11.8382C4.07952 12.2212 3.76848 12.5322 3.38496 12.5322C3.0024 12.5322 2.69088 12.2217 2.69088 11.8382C2.69136 11.4542 3.0024 11.1441 3.38496 11.1441ZM2.69136 9.80343C2.69136 9.41991 3.00192 9.10887 3.38544 9.10887C3.76896 9.10887 4.08 9.41991 4.08 9.80343C4.08 10.1865 3.76896 10.4975 3.38544 10.4975C3.00144 10.4975 2.69136 10.1865 2.69136 9.80343ZM4.66176 13.4514V8.34087C3.81072 8.34087 2.95968 8.34087 2.10912 8.34087V13.4514H2.88768V18.3071C3.21264 17.9087 3.54432 17.5166 3.88368 17.1302V13.4514H4.66176ZM10.5408 18.0959H13.2197C12.2496 19.2786 11.3472 20.5156 10.5173 21.8006H7.58304C8.49648 20.5098 9.48336 19.2724 10.5408 18.0959Z" fill="#C9FEFF"/>
</g>
<defs>
<clipPath id="clip0_184_303">
<rect width="24" height="24" fill="white"/>
</clipPath>
</defs>
</svg>
