<svg width="24" height="24" viewBox="0 0 24 24" fill="none" xmlns="http://www.w3.org/2000/svg">
<path d="M14.1314 16.2768H10.0094C9.85795 16.2768 9.72978 16.3841 9.71306 16.5345C9.60466 17.5103 9.41534 20.9229 12.0702 20.9229C14.7247 20.9229 14.5359 17.5105 14.4277 16.5346C14.411 16.3841 14.2828 16.2768 14.1314 16.2768Z" fill="#C9FEFF"/>
<path d="M9.44141 14.5198C9.44141 14.358 9.57252 14.2269 9.73426 14.2269H14.2736C14.4353 14.2269 14.5664 14.358 14.5664 14.5198V15.3984C14.5664 15.5601 14.4353 15.6912 14.2736 15.6912H9.73426C9.57252 15.6912 9.44141 15.5601 9.44141 15.3984V14.5198Z" fill="#C9FEFF" fill-opacity="0.996078"/>
<path fill-rule="evenodd" clip-rule="evenodd" d="M9.40207 3.52055C8.57726 3.84458 8.0774 4.68689 8.18813 5.56611L9.07717 12.6249C9.14015 13.125 9.56537 13.5 10.0693 13.5H11.5999V8.39998H10.9999C10.779 8.39998 10.5999 8.22089 10.5999 7.99998C10.5999 7.77906 10.779 7.59998 10.9999 7.59998H11.9999H12.9999C13.2208 7.59998 13.3999 7.77906 13.3999 7.99998C13.3999 8.22089 13.2208 8.39998 12.9999 8.39998H12.3999V13.5H13.9304C14.4344 13.5 14.8596 13.125 14.9226 12.6249L15.8116 5.56611C15.9224 4.68688 15.4225 3.84458 14.5977 3.52055C12.9279 2.86457 11.0718 2.86457 9.40207 3.52055Z" fill="#C9FEFF"/>
</svg>
