<svg width="32" height="32" viewBox="0 0 32 32" fill="none" xmlns="http://www.w3.org/2000/svg">
<path d="M16.0094 31.772C15.3216 31.7869 14.6449 31.5966 14.0656 31.2253C13.4864 30.854 13.0309 30.3186 12.7573 29.6873C12.4837 29.056 12.4043 28.3576 12.5293 27.681C12.6544 27.0044 12.9782 26.3805 13.4593 25.8887C13.9405 25.3969 14.5573 25.0597 15.231 24.9199C15.9047 24.7802 16.6047 24.8443 17.2418 25.1042C17.8788 25.364 18.4241 25.8077 18.8079 26.3788C19.1917 26.9498 19.3967 27.6222 19.3967 28.3102C19.4054 29.2181 19.0537 30.0924 18.4187 30.7414C17.7838 31.3903 16.9173 31.7609 16.0094 31.772ZM16.0094 25.5985C15.4699 25.5834 14.9381 25.7297 14.4822 26.0186C14.0262 26.3074 13.6668 26.7257 13.4499 27.2199C13.233 27.7142 13.1684 28.2619 13.2645 28.793C13.3606 29.3241 13.6129 29.8145 13.9892 30.2015C14.3655 30.5884 14.8487 30.8543 15.3769 30.9651C15.9052 31.0759 16.4545 31.0267 16.9546 30.8236C17.4546 30.6205 17.8828 30.2729 18.1842 29.8252C18.4857 29.3774 18.6467 28.85 18.6467 28.3102C18.6556 27.6012 18.383 26.9175 17.8886 26.4092C17.3943 25.9008 16.7185 25.6093 16.0094 25.5985Z" fill="#C9FEFF"/>
<path d="M16 16.1095C15.9005 16.1095 15.8052 16.07 15.7348 15.9997C15.6645 15.9293 15.625 15.834 15.625 15.7345V0.5C15.625 0.400544 15.6645 0.305161 15.7348 0.234835C15.8052 0.164509 15.9005 0.125 16 0.125C16.0995 0.125 16.1948 0.164509 16.2652 0.234835C16.3355 0.305161 16.375 0.400544 16.375 0.5V15.7345C16.375 15.834 16.3355 15.9293 16.2652 15.9997C16.1948 16.07 16.0995 16.1095 16 16.1095Z" fill="#C9FEFF"/>
<path d="M27.4547 28.2317C26.7871 26.0324 25.6553 24.0019 24.1358 22.2775C22.6162 20.553 20.7443 19.1747 18.6464 18.2357C18.4119 18.1248 18.2139 17.9493 18.0756 17.7298C17.9372 17.5103 17.8643 17.2559 17.8654 16.9965V16.9465C17.8684 16.5299 17.7063 16.1291 17.4145 15.8318C17.1227 15.5346 16.725 15.365 16.3084 15.3602H15.6914C15.2749 15.365 14.8772 15.5346 14.5854 15.8318C14.2936 16.1291 14.1314 16.5299 14.1344 16.9465V16.9965C14.1355 17.2559 14.0627 17.5103 13.9243 17.7298C13.786 17.9493 13.588 18.1248 13.3534 18.2357C11.2556 19.1747 9.38366 20.5529 7.86411 22.2773C6.34456 24.0017 5.21277 26.0322 4.54519 28.2315C4.50098 28.3719 4.48883 28.5204 4.50964 28.6661C4.53045 28.8119 4.58369 28.9511 4.66544 29.0735C4.74467 29.194 4.84996 29.2953 4.97354 29.3697C5.09711 29.4441 5.23583 29.4898 5.37944 29.5035C8.90444 29.835 12.4544 30.0007 16.0044 30.0007C19.5544 30.0007 23.0999 29.835 26.6212 29.5035C26.7648 29.4898 26.9035 29.4441 27.0271 29.3697C27.1507 29.2953 27.256 29.194 27.3352 29.0735C27.4168 28.951 27.4699 28.8119 27.4906 28.6662C27.5113 28.5205 27.499 28.372 27.4547 28.2317Z" fill="#C9FEFF"/>
</svg>
