<svg width="24" height="24" viewBox="0 0 24 24" fill="none" xmlns="http://www.w3.org/2000/svg">
<g clip-path="url(#clip0_184_47)">
<path d="M18.3281 11.4844C18.3281 10.709 17.6973 10.0781 16.9219 10.0781H15.5156C14.7402 10.0781 14.1094 10.709 14.1094 11.4844V16.4062H18.3281V11.4844Z" fill="#C9FEFF"/>
<path d="M2.85938 3.51562C2.85938 2.35266 3.80578 1.40625 4.96875 1.40625H6.375C7.32534 1.40625 8.13075 2.03831 8.39362 2.904C6.83634 3.26503 5.67188 4.66266 5.67188 6.32812V7.03125H12.7031V6.32812C12.7031 4.60931 11.463 3.17564 9.83063 2.8725C9.52748 1.24003 8.09363 0 6.375 0H4.96875C3.03047 0 1.45312 1.57687 1.45312 3.51562V10.0781H2.85938V3.51562Z" fill="#C9FEFF"/>
<path d="M19.7344 17.8125H12.7031V15.7031H1.45312V17.8125C1.45312 19.6524 2.46797 21.2594 3.96713 22.1038L3.06534 23.0056L4.05966 24L5.4188 22.6409C5.72822 22.702 6.04791 22.7344 6.375 22.7344H17.625C17.9521 22.7344 18.2718 22.702 18.5812 22.6409L19.9403 24L20.9347 23.0056L20.0329 22.1039C21.532 21.2594 22.5469 19.6524 22.5469 17.8125V15.7031H19.7344V17.8125Z" fill="#C9FEFF"/>
<path d="M22.5938 11.4844H19.7344V14.2969H22.5938C23.3691 14.2969 24 13.6659 24 12.8906C24 12.1153 23.3691 11.4844 22.5938 11.4844Z" fill="#C9FEFF"/>
<path d="M12.7031 11.4844H1.40625C0.630937 11.4844 0 12.1153 0 12.8906C0 13.6659 0.630937 14.2969 1.40625 14.2969H12.7031V11.4844Z" fill="#C9FEFF"/>
</g>
<defs>
<clipPath id="clip0_184_47">
<rect width="24" height="24" fill="white"/>
</clipPath>
</defs>
</svg>
