<svg width="24" height="24" viewBox="0 0 24 24" fill="none" xmlns="http://www.w3.org/2000/svg">
<g clip-path="url(#clip0_184_80)">
<path d="M2.9625 18.0825C1.32895 18.0825 0 19.4115 0 21.045C0.16275 24.9752 5.76286 24.974 5.92505 21.045C5.925 19.4115 4.59605 18.0825 2.9625 18.0825Z" fill="#C9FEFF"/>
<path d="M7.27441 20.342C7.34988 20.7978 7.34988 21.2926 7.27441 21.7483H10.7006C10.6251 21.2926 10.6251 20.7978 10.7006 20.342H7.27441Z" fill="#C9FEFF"/>
<path d="M15.0125 18.0825C13.379 18.0825 12.05 19.4115 12.05 21.045C12.2128 24.9752 17.8129 24.974 17.9751 21.045C17.975 19.4115 16.646 18.0825 15.0125 18.0825Z" fill="#C9FEFF"/>
<path d="M22.218 3.31499C21.1354 2.86686 19.9007 3.11249 19.0724 3.94081L16.1274 6.88578H17.2718C17.5239 6.88578 17.7658 6.93036 17.9901 7.01188L20.0668 4.93517C20.4916 4.51039 21.1248 4.38444 21.6801 4.61427C22.2351 4.84414 22.5937 5.38096 22.5937 5.98264C22.5937 6.37096 22.9085 6.68539 23.2968 6.68539C23.6851 6.68539 23.9999 6.37021 23.9999 5.98189C23.9999 4.81011 23.3005 3.7633 22.218 3.31499Z" fill="#C9FEFF"/>
<path d="M5.66677 17.3465L14.7213 8.29199H0.703125C0.314812 8.29199 0 8.60755 0 8.99587C0 12.7788 2.34966 16.023 5.66677 17.3465Z" fill="#C9FEFF"/>
<path d="M17.2719 8.29199H16.71L7.19849 17.8034C12.668 18.9733 18.0395 14.5999 17.975 8.99582V8.99507C17.975 8.6068 17.6602 8.29199 17.2719 8.29199Z" fill="#C9FEFF"/>
<path d="M5.88384 6.88581L2.15765 3.15967C1.24078 4.23142 0.570934 5.52057 0.237793 6.93821C0.387605 6.90432 0.54323 6.88586 0.703121 6.88586L5.88384 6.88581Z" fill="#C9FEFF"/>
<path d="M9.69065 6.88573V0.710693C9.69065 0.322381 9.37508 0.00756836 8.98672 0.00756836C6.76162 0.00756836 4.72321 0.82085 3.1521 2.16532L7.87251 6.88573H9.69065Z" fill="#C9FEFF"/>
</g>
<defs>
<clipPath id="clip0_184_80">
<rect width="24" height="24" fill="white"/>
</clipPath>
</defs>
</svg>
