<svg width="24" height="24" viewBox="0 0 24 24" fill="none" xmlns="http://www.w3.org/2000/svg">
<path d="M9 11C9 10.4477 9.44772 10 10 10H14C14.5523 10 15 10.4477 15 11V21C15 21.5523 14.5523 22 14 22H10C9.44772 22 9 21.5523 9 21V11Z" fill="#C9FEFF"/>
<path d="M4 3C4 2.44772 4.44772 2 5 2H19C19.5523 2 20 2.44772 20 3C20 3.55228 19.5523 4 19 4H5C4.44772 4 4 3.55228 4 3Z" fill="#C9FEFF"/>
<path d="M12 11C11.4477 11 11 10.5523 11 10L11 4C11 3.44772 11.4477 3 12 3C12.5523 3 13 3.44772 13 4V10C13 10.5523 12.5523 11 12 11Z" fill="#C9FEFF"/>
</svg>
