<svg width="24" height="24" viewBox="0 0 24 24" fill="none" xmlns="http://www.w3.org/2000/svg">
<path fill-rule="evenodd" clip-rule="evenodd" d="M6.75 18H5.25C4.653 18 4.08075 18.237 3.65925 18.6592C3.237 19.0807 3 19.653 3 20.25C3 20.847 3.237 21.4193 3.65925 21.8408C4.08075 22.263 4.653 22.5 5.25 22.5H9.75C10.347 22.5 10.9192 22.263 11.3407 21.8408C11.763 21.4193 12 20.847 12 20.25C12 19.653 11.763 19.0807 11.3407 18.6592C10.9192 18.237 10.347 18 9.75 18H8.25V4.5C8.25 4.30125 8.32875 4.11 8.46975 3.96975C8.61 3.82875 8.80125 3.75 9 3.75H14.25C14.4487 3.75 14.64 3.82875 14.7803 3.96975C14.9213 4.11 15 4.30125 15 4.5L15.0007 5.25H13.959C13.545 5.25 13.209 5.586 13.209 6V8.937C11.625 9.8415 10.5563 11.547 10.5563 13.5C10.5563 13.914 10.8915 14.25 11.3063 14.25H20.3062C20.7202 14.25 21.0562 13.914 21.0562 13.5C21.0562 11.547 19.9867 9.8415 18.4027 8.937V6C18.4027 5.586 18.0675 5.25 17.6527 5.25H16.5V4.5C16.5 3.903 16.263 3.33075 15.8407 2.90925C15.4192 2.487 14.847 2.25 14.25 2.25C12.7605 2.25 10.4895 2.25 9 2.25C8.403 2.25 7.83075 2.487 7.40925 2.90925C6.987 3.33075 6.75 3.903 6.75 4.5V18Z" fill="#C9FEFF"/>
</svg>
