<svg width="24" height="24" viewBox="0 0 24 24" fill="none" xmlns="http://www.w3.org/2000/svg">
<g clip-path="url(#clip0_184_355)">
<path fill-rule="evenodd" clip-rule="evenodd" d="M23.5781 24H0.421875C0.234375 24 0.09375 23.8594 0.09375 23.6719V21.4219C0.09375 21.2344 0.234375 21.0938 0.421875 21.0938H1.3125V22.5938C1.3125 23.1562 1.73438 23.5781 2.29688 23.5781H4.54688C5.10938 23.5781 5.53125 23.1562 5.53125 22.5938V21.0938H7.03125V22.5938C7.03125 23.1562 7.45312 23.5781 8.01562 23.5781H10.2656C10.8281 23.5781 11.25 23.1562 11.25 22.5938V21.0938H12.75V22.5938C12.75 23.1562 13.1719 23.5781 13.7344 23.5781H15.9844C16.5469 23.5781 16.9688 23.1562 16.9688 22.5938V21.0938H18.4688V22.5938C18.4688 23.1562 18.8906 23.5781 19.4531 23.5781H21.7031C22.2656 23.5781 22.6875 23.1562 22.6875 22.5938V21.0938H23.5781C23.7656 21.0938 23.9062 21.2344 23.9062 21.4219V23.6719C23.9062 23.8594 23.7656 24 23.5781 24Z" fill="#C9FEFF"/>
<path fill-rule="evenodd" clip-rule="evenodd" d="M4.54688 22.9219H2.29688C2.10938 22.9219 1.96875 22.7812 1.96875 22.5938V12.3281C1.96875 12.2812 1.96875 12.2344 2.01562 12.1875L3.14062 10.0781C3.1875 9.9375 3.28125 9.89062 3.42188 9.89062C3.5625 9.89062 3.65625 9.9375 3.70312 10.0781L4.82812 12.1875C4.875 12.2344 4.875 12.2812 4.875 12.3281V22.5938C4.875 22.7812 4.73438 22.9219 4.54688 22.9219Z" fill="#C9FEFF"/>
<path fill-rule="evenodd" clip-rule="evenodd" d="M10.2656 22.9219H8.01562C7.82812 22.9219 7.6875 22.7812 7.6875 22.5938V12.3281C7.6875 12.2812 7.6875 12.2344 7.73438 12.1875L8.85938 10.0781C8.90625 9.9375 9 9.89062 9.14062 9.89062C9.28125 9.89062 9.375 9.9375 9.42188 10.0781L10.5469 12.1875C10.5938 12.2344 10.5938 12.2812 10.5938 12.3281V22.5938C10.5938 22.7812 10.4531 22.9219 10.2656 22.9219Z" fill="#C9FEFF"/>
<path fill-rule="evenodd" clip-rule="evenodd" d="M15.9844 22.9219H13.7344C13.5469 22.9219 13.4062 22.7812 13.4062 22.5938V12.3281C13.4062 12.2812 13.4062 12.2344 13.4531 12.1875L14.5781 10.0781C14.625 9.9375 14.7188 9.89062 14.8594 9.89062C15 9.89062 15.0938 9.9375 15.1406 10.0781L16.2656 12.1875C16.3125 12.2344 16.3125 12.2812 16.3125 12.3281V22.5938C16.3125 22.7812 16.1719 22.9219 15.9844 22.9219Z" fill="#C9FEFF"/>
<path fill-rule="evenodd" clip-rule="evenodd" d="M21.7031 22.9219H19.4531C19.2656 22.9219 19.125 22.7812 19.125 22.5938V12.3281C19.125 12.2812 19.125 12.2344 19.1719 12.1875L20.2969 10.0781C20.3438 9.9375 20.4375 9.89062 20.5781 9.89062C20.7188 9.89062 20.8125 9.9375 20.8594 10.0781L21.9844 12.1875C22.0312 12.2344 22.0312 12.2812 22.0312 12.3281V22.5938C22.0312 22.7812 21.8906 22.9219 21.7031 22.9219Z" fill="#C9FEFF"/>
<path fill-rule="evenodd" clip-rule="evenodd" d="M23.25 14.5781H21.7031C21.5156 14.5781 21.375 14.4375 21.375 14.25C21.375 14.0625 21.5156 13.9219 21.7031 13.9219H23.25C23.4375 13.9219 23.5781 14.0625 23.5781 14.25C23.5781 14.4375 23.4375 14.5781 23.25 14.5781ZM19.4531 14.5781H15.9844C15.7969 14.5781 15.6562 14.4375 15.6562 14.25C15.6562 14.0625 15.7969 13.9219 15.9844 13.9219H19.4531C19.6406 13.9219 19.7812 14.0625 19.7812 14.25C19.7812 14.4375 19.6406 14.5781 19.4531 14.5781ZM13.7344 14.5781H10.2656C10.0781 14.5781 9.9375 14.4375 9.9375 14.25C9.9375 14.0625 10.0781 13.9219 10.2656 13.9219H13.7344C13.9219 13.9219 14.0625 14.0625 14.0625 14.25C14.0625 14.4375 13.9219 14.5781 13.7344 14.5781ZM8.01562 14.5781H4.54688C4.35938 14.5781 4.21875 14.4375 4.21875 14.25C4.21875 14.0625 4.35938 13.9219 4.54688 13.9219H8.01562C8.20312 13.9219 8.34375 14.0625 8.34375 14.25C8.34375 14.4375 8.20312 14.5781 8.01562 14.5781ZM2.29688 14.5781H0.75C0.5625 14.5781 0.421875 14.4375 0.421875 14.25C0.421875 14.0625 0.5625 13.9219 0.75 13.9219H2.29688C2.48438 13.9219 2.625 14.0625 2.625 14.25C2.625 14.4375 2.48438 14.5781 2.29688 14.5781Z" fill="#C9FEFF"/>
<path fill-rule="evenodd" clip-rule="evenodd" d="M23.25 17.8125H21.7031C21.5156 17.8125 21.375 17.6719 21.375 17.4844C21.375 17.2969 21.5156 17.1562 21.7031 17.1562H23.25C23.4375 17.1562 23.5781 17.2969 23.5781 17.4844C23.5781 17.6719 23.4375 17.8125 23.25 17.8125ZM19.4531 17.8125H15.9844C15.7969 17.8125 15.6562 17.6719 15.6562 17.4844C15.6562 17.2969 15.7969 17.1562 15.9844 17.1562H19.4531C19.6406 17.1562 19.7812 17.2969 19.7812 17.4844C19.7812 17.6719 19.6406 17.8125 19.4531 17.8125ZM13.7344 17.8125H10.2656C10.0781 17.8125 9.9375 17.6719 9.9375 17.4844C9.9375 17.2969 10.0781 17.1562 10.2656 17.1562H13.7344C13.9219 17.1562 14.0625 17.2969 14.0625 17.4844C14.0625 17.6719 13.9219 17.8125 13.7344 17.8125ZM8.01562 17.8125H4.54688C4.35938 17.8125 4.21875 17.6719 4.21875 17.4844C4.21875 17.2969 4.35938 17.1562 4.54688 17.1562H8.01562C8.20312 17.1562 8.34375 17.2969 8.34375 17.4844C8.34375 17.6719 8.20312 17.8125 8.01562 17.8125ZM2.29688 17.8125H0.75C0.5625 17.8125 0.421875 17.6719 0.421875 17.4844C0.421875 17.2969 0.5625 17.1562 0.75 17.1562H2.29688C2.48438 17.1562 2.625 17.2969 2.625 17.4844C2.625 17.6719 2.48438 17.8125 2.29688 17.8125Z" fill="#C9FEFF"/>
<path fill-rule="evenodd" clip-rule="evenodd" d="M8.10938 9.5625H4.07812C2.4375 9.5625 1.07812 8.25 1.07812 6.65625C1.07812 5.39062 1.875 4.26562 3.09375 3.89062V3.84375C3.09375 2.85938 3.375 1.875 3.9375 1.17188C4.5 0.421875 5.29688 0 6.09375 0C6.89062 0 7.64062 0.421875 8.25 1.17188C8.8125 1.875 9.09375 2.85938 9.09375 3.84375V3.89062C10.3125 4.26562 11.1094 5.39062 11.1094 6.65625C11.1094 8.25 9.75 9.5625 8.10938 9.5625Z" fill="#C9FEFF"/>
<path fill-rule="evenodd" clip-rule="evenodd" d="M17.1562 7.40625H14.1094C12.8438 7.40625 11.8125 6.375 11.8125 5.15625C11.8125 4.17188 12.4219 3.32812 13.3125 3.04688C13.3594 1.35938 14.3438 0.09375 15.6562 0.09375C16.3125 0.09375 16.875 0.421875 17.2969 0.984375C17.7188 1.54688 17.9531 2.25 17.9531 3.04688C18.8438 3.32812 19.4531 4.17188 19.4531 5.15625C19.4531 6.375 18.4219 7.40625 17.1562 7.40625Z" fill="#C9FEFF"/>
<path fill-rule="evenodd" clip-rule="evenodd" d="M6.09375 21.75C5.90625 21.75 5.76562 21.6094 5.76562 21.4219V9.23438C5.76562 9.04688 5.90625 8.90625 6.09375 8.90625C6.28125 8.90625 6.42188 9.04688 6.42188 9.23438V21.4219C6.42188 21.6094 6.28125 21.75 6.09375 21.75Z" fill="#C9FEFF"/>
<path fill-rule="evenodd" clip-rule="evenodd" d="M15.6094 12C15.4219 12 15.2812 11.8594 15.2812 11.6719V7.07812C15.2812 6.89062 15.4219 6.75 15.6094 6.75C15.7969 6.75 15.9375 6.89062 15.9375 7.07812V11.6719C15.9375 11.8594 15.7969 12 15.6094 12Z" fill="#C9FEFF"/>
</g>
<defs>
<clipPath id="clip0_184_355">
<rect width="24" height="24" fill="white"/>
</clipPath>
</defs>
</svg>
