<svg width="24" height="24" viewBox="0 0 24 24" fill="none" xmlns="http://www.w3.org/2000/svg">
<path d="M8 1H1.5C1.224 1 1 1.2235 1 1.5V21.5C1 21.7765 1.224 22 1.5 22H2.5V22.5C2.5 22.7765 2.724 23 3 23C3.276 23 3.5 22.7765 3.5 22.5V22H8V1ZM3.5 4H6.5C6.776 4 7 4.2235 7 4.5C7 4.7765 6.776 5 6.5 5H3.5C2.847 4.9975 2.8455 4.0025 3.5 4ZM3.51 12.5C2.857 12.4985 2.8505 11.504 3.505 11.5C4.162 11.4965 4.167 12.497 3.51 12.5ZM6.5 7H3.5C3.224 7 3 6.7765 3 6.5C3 6.2235 3.224 6 3.5 6H6.5C7.153 6.0025 7.1545 6.9975 6.5 7Z" fill="#C9FEFF"/>
<path d="M9 22H15V1H9V22ZM10.51 12.5C9.857 12.4985 9.8505 11.504 10.505 11.5C11.162 11.4965 11.167 12.497 10.51 12.5ZM13.5 7H10.5C9.847 6.9975 9.8455 6.0025 10.5 6H13.5C14.153 6.0025 14.1545 6.9975 13.5 7ZM10.5 4H13.5C14.153 4.0025 14.1545 4.9975 13.5 5H10.5C9.847 4.9975 9.8455 4.0025 10.5 4Z" fill="#C9FEFF"/>
<path d="M22.5 1H16V22H20.5V22.5C20.5015 23.15 21.4975 23.157 21.5 22.5V22H22.5C22.7765 22 23 21.7765 23 21.5V1.5C23 1.2235 22.7765 1 22.5 1ZM17.51 12.5C16.857 12.4985 16.8505 11.504 17.505 11.5C18.162 11.4965 18.167 12.497 17.51 12.5ZM20.5 7H17.5C16.847 6.9975 16.8455 6.0025 17.5 6H20.5C21.153 6.0025 21.1545 6.9975 20.5 7ZM20.5 5H17.5C16.847 4.9975 16.8455 4.0025 17.5 4H20.5C21.153 4.0025 21.1545 4.9975 20.5 5Z" fill="#C9FEFF"/>
</svg>
