<svg width="24" height="24" viewBox="0 0 24 24" fill="none" xmlns="http://www.w3.org/2000/svg">
<path d="M8.94961 13.7862C10.3605 13.7862 17.1292 13.7761 17.1292 13.7761C17.1292 13.7761 18.2529 11.2677 20.0798 7.15642C20.8216 5.49024 23.1242 6.33533 22.8173 7.71497C21.53 13.4851 19.6623 21.9964 19.6623 21.9964H17.1707V20.7935C17.1707 19.6924 16.2783 18.7993 15.178 18.7993H11.7729C10.6718 18.7993 9.78016 19.6931 9.78016 20.7935V21.9964H7.03979C7.03979 21.9964 7.03979 17.0262 7.03979 15.6968C7.03979 14.3688 7.5387 13.7862 8.94961 13.7862Z" fill="#C9FEFF"/>
<path d="M18.4653 6.6837C19.7084 6.6837 20.7162 5.67594 20.7162 4.43279C20.7162 3.18965 19.7084 2.18188 18.4653 2.18188C17.2221 2.18188 16.2144 3.18965 16.2144 4.43279C16.2144 5.67594 17.2221 6.6837 18.4653 6.6837Z" fill="#C9FEFF"/>
<path d="M8.88485 11.0604H12.3038C13.1103 9.58039 15.3292 6.05166 17.7132 7.0153C18.3794 7.28512 19.1234 7.70403 18.5445 8.95057L16.5787 13.1724H8.88485C8.30231 13.1724 7.82812 12.6997 7.82812 12.1171C7.82812 11.5317 8.30231 11.0604 8.88485 11.0604Z" fill="#C9FEFF"/>
<path d="M2.43174 20.0022L6.5001 14.5942V18.739L4.42374 21.5004C4.17865 21.8262 3.80483 21.9964 3.42665 21.9964C3.16628 21.9964 2.90301 21.9157 2.67901 21.7462C2.12919 21.3331 2.01865 20.5521 2.43174 20.0022Z" fill="#C9FEFF"/>
</svg>
