<svg width="24" height="24" viewBox="0 0 24 24" fill="none" xmlns="http://www.w3.org/2000/svg">
<path d="M6.36035 3.1626H17.6396V4.91896H6.36035V3.1626Z" fill="#C9FEFF"/>
<path d="M8.94518 10.289C9.05984 9.62407 9.46484 9.03227 10.0583 8.68962C10.6518 8.34696 11.3669 8.29216 12 8.52527C12.6332 8.29221 13.3482 8.34696 13.9416 8.68966C14.5351 9.03232 14.9401 9.62412 15.0548 10.289C15.3903 10.5684 15.6378 10.938 15.7712 11.3495H17.6396V6.3252H6.36035V11.3496H8.22884C8.3622 10.938 8.60969 10.5684 8.94518 10.289Z" fill="#C9FEFF"/>
<path d="M6.36035 0H17.6396V1.75636H6.36035V0Z" fill="#C9FEFF"/>
<path d="M23.4646 15.4158C23.1114 15.6198 22.7151 15.7217 22.3187 15.7217C22.049 15.7217 21.7793 15.6746 21.5229 15.5802C20.8897 15.8133 20.1747 15.7585 19.5813 15.4158C18.9878 15.0731 18.5828 14.4813 18.4681 13.8165C18.1327 13.5371 17.8852 13.1674 17.7518 12.7559H15.7712C15.6378 13.1674 15.3903 13.5371 15.0548 13.8165C14.9401 14.4813 14.5352 15.0731 13.9417 15.4158C13.3482 15.7584 12.6332 15.8132 12 15.5802C11.7436 15.6745 11.4739 15.7217 11.2043 15.7217C10.8078 15.7217 10.4116 15.6198 10.0583 15.4158C9.46481 15.0731 9.05986 14.4814 8.9452 13.8165C8.60972 13.5371 8.36222 13.1675 8.22881 12.7559H6.24825C6.11484 13.1675 5.86734 13.5371 5.53186 13.8165C5.4172 14.4814 5.01225 15.0731 4.41872 15.4158C3.82528 15.7585 3.11025 15.8133 2.47706 15.5802C2.2207 15.6746 1.95098 15.7218 1.68131 15.7218C1.28489 15.7218 0.888656 15.6198 0.535406 15.4159C0.333562 15.2993 0.154219 15.1534 0 14.9862V17.6749H24V14.9862C23.8458 15.1534 23.6664 15.2993 23.4646 15.4158Z" fill="#C9FEFF"/>
<path d="M0 20.8374H4.08473C4.08473 22.5841 5.50069 24 7.24734 24H8.03798V20.8374H15.9621V24H16.7527C18.4994 24 19.9153 22.5841 19.9153 20.8374H24V19.0811H0V20.8374Z" fill="#C9FEFF"/>
<path d="M0.444234 12.821L0.794859 13.0238L0.795234 13.4289C0.795516 13.7455 0.965391 14.0401 1.23853 14.1978C1.51167 14.3556 1.8517 14.3553 2.12606 14.1973L2.47706 13.9951L2.82806 14.1973C3.10233 14.3554 3.44241 14.3555 3.71559 14.1979C3.98873 14.0401 4.15861 13.7455 4.15889 13.429L4.15927 13.0239L4.50989 12.821C4.78392 12.6625 4.95413 12.3681 4.95413 12.0526C4.95413 11.7372 4.78392 11.4428 4.50989 11.2843L4.15927 11.0814L4.15889 10.6763C4.15861 10.3598 3.98873 10.0651 3.71559 9.90746C3.44245 9.74972 3.10242 9.74996 2.82806 9.90797L2.47706 10.1102L2.12602 9.90797C1.98872 9.82885 1.83497 9.78933 1.68136 9.78933C1.52808 9.78933 1.37503 9.82871 1.23858 9.9075C0.965438 10.0652 0.795563 10.3598 0.795281 10.6764L0.794906 11.0815L0.444281 11.2844C0.170203 11.4428 0 11.7372 0 12.0526C0 12.3681 0.170203 12.6624 0.444234 12.821Z" fill="#C9FEFF"/>
<path d="M14.0328 11.2843L13.6822 11.0814L13.6818 10.6763C13.6815 10.3598 13.5116 10.0651 13.2385 9.90746C12.9654 9.74972 12.6253 9.74996 12.351 9.90797L12 10.1102L11.6489 9.90797C11.5116 9.82885 11.3579 9.78933 11.2043 9.78933C11.051 9.78933 10.8979 9.82871 10.7615 9.9075C10.4883 10.0652 10.3185 10.3598 10.3182 10.6764L10.3178 11.0815L9.96718 11.2844C9.69315 11.4429 9.52295 11.7373 9.52295 12.0527C9.52295 12.3682 9.69315 12.6626 9.96718 12.8211L10.3178 13.024L10.3182 13.4291C10.3185 13.7456 10.4883 14.0402 10.7615 14.198C11.0346 14.3557 11.3747 14.3554 11.649 14.1975L12 13.9952L12.351 14.1975C12.6253 14.3555 12.9654 14.3557 13.2385 14.198C13.5117 14.0403 13.6816 13.7457 13.6818 13.4291L13.6822 13.024L14.0328 12.8212C14.3069 12.6626 14.4771 12.3682 14.4771 12.0528C14.4771 11.7374 14.3068 11.4428 14.0328 11.2843Z" fill="#C9FEFF"/>
<path d="M19.4901 12.8211L19.8408 13.024L19.8411 13.4291C19.8414 13.7456 20.0113 14.0402 20.2844 14.198C20.5576 14.3557 20.8977 14.3555 21.172 14.1974L21.523 13.9952L21.874 14.1974C22.1482 14.3554 22.4883 14.3556 22.7615 14.1979C23.0347 14.0402 23.2045 13.7456 23.2048 13.429L23.2052 13.0239L23.5558 12.821C23.8298 12.6625 24 12.3681 24 12.0527C24 11.7372 23.8298 11.4428 23.5558 11.2843L23.2052 11.0814L23.2048 10.6763C23.2045 10.3598 23.0346 10.0651 22.7615 9.90748C22.4883 9.7497 22.1482 9.74998 21.874 9.90795L21.523 10.1102L21.172 9.90795C20.8977 9.74994 20.5576 9.74975 20.2844 9.90744C20.0112 10.0651 19.8414 10.3597 19.8411 10.6763L19.8408 11.0814L19.4901 11.2843C19.2161 11.4428 19.0459 11.7372 19.0459 12.0527C19.0459 12.3681 19.2161 12.6626 19.4901 12.8211Z" fill="#C9FEFF"/>
</svg>
