<svg width="24" height="24" viewBox="0 0 24 24" fill="none" xmlns="http://www.w3.org/2000/svg">
<path fill-rule="evenodd" clip-rule="evenodd" d="M12 17C15.866 17 19 13.866 19 10C19 6.13401 15.866 3 12 3C8.13401 3 5 6.13401 5 10C5 13.866 8.13401 17 12 17ZM14.0802 17.4084C14.1013 17.4042 14.1228 17.4014 14.1442 17.4036C14.2851 17.4177 14.3998 17.5229 14.4157 17.6664C14.5268 18.6673 14.7204 22.1672 11.9979 22.1672C9.27492 22.1672 9.46909 18.6672 9.58027 17.6663C9.59621 17.5229 9.71095 17.4177 9.85178 17.4036C9.87323 17.4014 9.8947 17.4042 9.91584 17.4084C10.118 17.4487 11.2431 17.6664 11.9979 17.6664C12.7527 17.6664 13.878 17.4487 14.0802 17.4084ZM13.1899 7.02513C13.2336 6.61094 13.2335 6.61093 13.2334 6.61092L13.2331 6.61089L13.2324 6.61082L13.2304 6.61061L13.2238 6.60995L13.2007 6.60778C13.181 6.60601 13.1531 6.60364 13.118 6.60109C13.0479 6.59598 12.9488 6.59006 12.8304 6.58656C12.5954 6.57962 12.2752 6.58192 11.9494 6.62176C11.6316 6.66062 11.2686 6.7396 10.9736 6.91006C10.6616 7.09026 10.3936 7.39733 10.3936 7.85809C10.3936 8.07575 10.4554 8.27336 10.5807 8.4382C10.7012 8.59673 10.8599 8.69812 11.0116 8.7661C11.2887 8.89032 11.6357 8.94033 11.9099 8.97986L11.9404 8.98426C12.1683 9.01721 12.3527 9.04564 12.4973 9.08557C12.5533 9.10105 12.6034 9.11826 12.6478 9.13813C12.7192 9.17015 12.7465 9.19725 12.7561 9.20996L12.7561 9.20999C12.761 9.21641 12.7735 9.23279 12.7735 9.28603C12.7735 9.33926 12.761 9.35565 12.7561 9.36207L12.7561 9.3621C12.7465 9.37481 12.7192 9.40191 12.6478 9.43393C12.572 9.46789 12.4794 9.49408 12.3689 9.51715C12.248 9.5424 12.1057 9.56391 11.9404 9.5878L11.9099 9.5922C11.6357 9.63173 11.2887 9.68173 11.0116 9.80596C10.8599 9.87394 10.7012 9.97533 10.5807 10.1339C10.4554 10.2987 10.3936 10.4963 10.3936 10.714C10.3936 10.9316 10.4554 11.1292 10.5807 11.2941C10.7012 11.4526 10.8599 11.554 11.0116 11.622C11.2183 11.7146 11.4638 11.766 11.6891 11.8025C11.7658 11.815 11.8402 11.8257 11.9099 11.8357L11.9404 11.8401C12.2567 11.8859 12.4891 11.9229 12.6478 11.994C12.7192 12.026 12.7465 12.0531 12.7561 12.0658L12.7561 12.0659C12.761 12.0723 12.7735 12.0887 12.7735 12.1419C12.7735 12.2778 12.7266 12.3457 12.6569 12.3994C12.5677 12.468 12.4224 12.5225 12.2305 12.5538C12.0446 12.5841 11.8517 12.5869 11.7003 12.581C11.6258 12.578 11.5642 12.5731 11.522 12.569C11.501 12.567 11.485 12.5651 11.4748 12.5639L11.4642 12.5626L11.463 12.5624L11.4628 12.5624L11.4625 12.5624C11.2349 12.5307 11.0246 12.6893 10.9926 12.9169C10.9606 13.1447 11.1193 13.3553 11.3471 13.3873L11.4034 12.9861C11.3471 13.3873 11.3472 13.3873 11.3473 13.3873L11.3476 13.3874L11.3483 13.3875L11.3503 13.3877L11.3561 13.3885L11.3753 13.3909C11.3913 13.3928 11.4136 13.3954 11.4414 13.3981C11.4969 13.4035 11.5747 13.4096 11.6675 13.4133C11.8508 13.4205 12.1041 13.4184 12.3645 13.3759C12.6188 13.3344 12.9197 13.2484 13.1652 13.0593C13.4302 12.8551 13.6064 12.5479 13.6064 12.1419C13.6064 11.9243 13.5446 11.7266 13.4193 11.5618C13.2988 11.4033 13.1401 11.3019 12.9884 11.2339C12.7113 11.1097 12.3643 11.0597 12.0901 11.0201L12.0596 11.0157C12.0143 11.0092 11.9707 11.0028 11.9288 10.9965C11.6783 10.9587 11.4882 10.9228 11.3522 10.8619C11.2808 10.8298 11.2536 10.8027 11.2439 10.79L11.2439 10.79C11.239 10.7836 11.2265 10.7672 11.2265 10.714C11.2265 10.6607 11.239 10.6443 11.2439 10.6379L11.2439 10.6379C11.2536 10.6252 11.2808 10.5981 11.3522 10.5661C11.5109 10.4949 11.7433 10.4579 12.0596 10.4122L12.0901 10.4078L12.0901 10.4078C12.0949 10.4071 12.0997 10.4064 12.1046 10.4057C12.3765 10.3665 12.7161 10.3161 12.9884 10.194C13.1401 10.1261 13.2988 10.0247 13.4193 9.86614C13.5446 9.7013 13.6064 9.50368 13.6064 9.28603C13.6064 9.06838 13.5446 8.87076 13.4193 8.70592C13.2988 8.54739 13.1401 8.446 12.9884 8.37802C12.9085 8.3422 12.8228 8.31255 12.7347 8.28754C12.5172 8.22583 12.2852 8.19239 12.0901 8.16426L12.0596 8.15986C11.7433 8.11414 11.5109 8.07711 11.3522 8.00599C11.2808 7.97397 11.2536 7.94687 11.2439 7.93416L11.2439 7.93413C11.239 7.92771 11.2265 7.91133 11.2265 7.85809C11.2265 7.77692 11.2559 7.7089 11.3902 7.63131C11.5414 7.54397 11.7734 7.48246 12.0506 7.44856C12.3198 7.41564 12.5946 7.41293 12.8058 7.41916C12.8764 7.42125 12.9389 7.4243 12.9905 7.4274C13.0155 7.42891 13.0379 7.43042 13.0574 7.43185C13.0874 7.43403 13.1106 7.436 13.1258 7.43737L13.1425 7.43894L13.146 7.43929L13.1463 7.43932L13.1464 7.43933L13.1464 7.43933L13.1465 7.43934L13.1466 7.43935C13.3752 7.4633 13.58 7.29745 13.6041 7.0688C13.6283 6.84005 13.4624 6.63506 13.2336 6.61094L13.1899 7.02513Z" fill="#C9FEFF"/>
</svg>
