<svg width="24" height="24" viewBox="0 0 24 24" fill="none" xmlns="http://www.w3.org/2000/svg">
<path d="M15.9044 7.80005H8.09456C7.71273 7.80005 7.42229 8.14291 7.48506 8.51954L8.82387 16.5524C8.87352 16.8503 9.13131 17.0687 9.43337 17.0687H14.5656C14.8676 17.0687 15.1254 16.8503 15.1751 16.5524L16.5139 8.51954C16.5767 8.14291 16.2862 7.80005 15.9044 7.80005Z" fill="#C9FEFF"/>
<path d="M13.8008 18H10.1414C9.79091 18 9.51422 18.2903 9.56648 18.6369C9.72628 19.6969 10.2555 21.7075 11.9714 21.7075C13.6872 21.7075 14.2162 19.6967 14.3758 18.6369C14.428 18.2903 14.1513 18 13.8008 18Z" fill="#C9FEFF"/>
<path d="M6.98471 6.40592L7.18299 6.61128C7.29943 6.73188 7.45988 6.8 7.62752 6.8H16.3715C16.5392 6.8 16.6996 6.73188 16.8161 6.61128L17.0143 6.40592C18.608 4.75529 17.4383 2 15.1439 2H8.85519C6.56078 2 5.39106 4.75529 6.98471 6.40592Z" fill="#C9FEFF"/>
</svg>
