<svg width="40" height="40" viewBox="0 0 40 40" fill="none" xmlns="http://www.w3.org/2000/svg">
<path fill-rule="evenodd" clip-rule="evenodd" d="M14.9476 10.1595C17.2602 8.12015 20.2965 6.88062 23.6206 6.88062C30.8605 6.88062 36.7397 12.7598 36.7397 19.9997C36.7397 27.2396 30.8605 33.1187 23.6206 33.1187C20.2965 33.1187 17.2602 31.8792 14.9476 29.8399C14.3866 29.3441 13.5271 29.3965 13.0313 29.9593C12.5355 30.5202 12.5898 31.378 13.1507 31.8738C15.9428 34.3383 19.6089 35.833 23.6206 35.833C32.3588 35.833 39.454 28.7379 39.454 19.9997C39.454 11.2615 32.3588 4.16634 23.6206 4.16634C19.6089 4.16634 15.9428 5.661 13.1507 8.12557C12.5898 8.62138 12.5355 9.4791 13.0313 10.0401C13.5271 10.6028 14.3866 10.6553 14.9476 10.1595Z" fill="white"/>
<path fill-rule="evenodd" clip-rule="evenodd" d="M21.5365 12.038V19.2761C21.5365 19.6362 21.6794 19.9818 21.9345 20.2351L27.725 26.0256C28.2534 26.5558 29.1147 26.5558 29.6431 26.0256C30.1733 25.4972 30.1733 24.6359 29.6431 24.1075L24.2507 18.7133V12.038C24.2507 11.2888 23.6427 10.6808 22.8936 10.6808C22.1445 10.6808 21.5365 11.2888 21.5365 12.038Z" fill="white"/>
<path fill-rule="evenodd" clip-rule="evenodd" d="M1.90402 16.0235H12.7612C13.5103 16.0235 14.1183 15.4155 14.1183 14.6664C14.1183 13.9172 13.5103 13.3092 12.7612 13.3092H1.90402C1.15487 13.3092 0.546875 13.9172 0.546875 14.6664C0.546875 15.4155 1.15487 16.0235 1.90402 16.0235Z" fill="white"/>
<path fill-rule="evenodd" clip-rule="evenodd" d="M3.71391 21.3565H14.5711C15.3202 21.3565 15.9282 20.7485 15.9282 19.9994C15.9282 19.2502 15.3202 18.6422 14.5711 18.6422H3.71391C2.96477 18.6422 2.35677 19.2502 2.35677 19.9994C2.35677 20.7485 2.96477 21.3565 3.71391 21.3565Z" fill="white"/>
<path fill-rule="evenodd" clip-rule="evenodd" d="M5.52381 26.6904H16.381C17.1301 26.6904 17.7381 26.0824 17.7381 25.3332C17.7381 24.5841 17.1301 23.9761 16.381 23.9761H5.52381C4.77467 23.9761 4.16667 24.5841 4.16667 25.3332C4.16667 26.0824 4.77467 26.6904 5.52381 26.6904Z" fill="white"/>
</svg>
