<svg width="24" height="24" viewBox="0 0 24 24" fill="none" xmlns="http://www.w3.org/2000/svg">
<path d="M11.9999 12.6869C12.2961 12.6869 19.2861 12.6644 19.2861 10.8794C19.2896 8.45774 4.73461 8.44332 4.71363 10.8793C4.71363 12.6644 11.7036 12.6869 11.9999 12.6869Z" fill="#C9FEFF"/>
<path d="M12 18.5144C17.0887 18.5144 22.5 17.1569 22.5 14.6407L22.5 10.8794C22.3386 5.73762 1.66117 5.73734 1.5 10.8794L1.5 14.6406C1.5 17.1569 6.91125 18.5144 12 18.5144ZM12 7.7519C17.745 7.7519 21.75 9.4019 21.75 10.8794C21.75 12.3569 17.745 14.0032 12 14.0032C6.255 14.0032 2.25 12.3569 2.25 10.8794C2.25 9.40191 6.255 7.7519 12 7.7519Z" fill="#C9FEFF"/>
<path d="M12.0002 19.2644C8.66122 19.2244 5.56203 18.8442 3.00016 17.562C3.66075 22.3879 20.3563 22.3829 21.0039 17.5581C18.4462 18.8454 15.34 19.224 12.0002 19.2644Z" fill="#C9FEFF"/>
<path d="M3.68868 7.0741C3.7525 7.1487 3.84303 7.19529 3.94082 7.20388C4.03862 7.21247 4.13588 7.18237 4.21172 7.12004C4.28757 7.05771 4.33595 6.96813 4.34647 6.87052C4.35699 6.77292 4.32882 6.67508 4.26801 6.59801L3.0152 5.07258C2.98394 5.03454 2.9455 5.00303 2.90206 4.97985C2.85862 4.95667 2.81104 4.94227 2.76204 4.93747C2.71304 4.93268 2.66357 4.93758 2.61647 4.95191C2.56936 4.96623 2.52554 4.98969 2.4875 5.02095C2.44946 5.05221 2.41795 5.09066 2.39476 5.13409C2.37158 5.17753 2.35718 5.22511 2.35239 5.27411C2.3476 5.32311 2.3525 5.37258 2.36682 5.41969C2.38115 5.46679 2.40461 5.51062 2.43587 5.54866L3.68868 7.0741Z" fill="#C9FEFF"/>
<path d="M6.17593 6.31094C6.22404 6.39694 6.30406 6.46056 6.3987 6.48805C6.49334 6.51553 6.59499 6.50467 6.68168 6.45781C6.76837 6.41095 6.83314 6.33185 6.86199 6.23762C6.89083 6.14339 6.88144 6.04159 6.83584 5.95423L5.80716 4.05087C5.75879 3.96535 5.6788 3.90222 5.58439 3.87505C5.48998 3.84787 5.38867 3.85882 5.30224 3.90554C5.21581 3.95226 5.15116 4.03102 5.12218 4.1249C5.0932 4.21877 5.10221 4.32027 5.14726 4.40758L6.17593 6.31094Z" fill="#C9FEFF"/>
<path d="M8.8639 5.82356C8.89207 5.91799 8.95629 5.99753 9.04265 6.04498C9.12901 6.09243 9.23058 6.10397 9.32539 6.07711C9.4202 6.05025 9.50063 5.98715 9.54927 5.90145C9.59792 5.81576 9.61087 5.71436 9.58533 5.61918L8.98915 3.5155C8.961 3.42104 8.89679 3.34146 8.81042 3.29399C8.72404 3.24651 8.62245 3.23495 8.52762 3.26182C8.43278 3.28868 8.35234 3.35181 8.3037 3.43753C8.25506 3.52326 8.24213 3.62469 8.26772 3.71988L8.8639 5.82356Z" fill="#C9FEFF"/>
<path d="M20.3134 7.07359L21.5618 5.54814C21.6225 5.47094 21.6506 5.37299 21.6399 5.27536C21.6291 5.17772 21.5806 5.08818 21.5045 5.02598C21.4285 4.96378 21.3311 4.93388 21.2333 4.9427C21.1355 4.95153 21.045 4.99838 20.9814 5.07319L19.733 6.59862C19.6723 6.67583 19.6443 6.77375 19.655 6.87135C19.6658 6.96895 19.7144 7.05846 19.7903 7.12064C19.8663 7.18283 19.9637 7.21273 20.0615 7.20394C20.1593 7.19514 20.2497 7.14834 20.3134 7.07359Z" fill="#C9FEFF"/>
<path d="M17.3173 6.46252C17.4049 6.50958 17.5075 6.52005 17.6028 6.49164C17.698 6.46323 17.7781 6.39825 17.8256 6.31091L18.8543 4.40753C18.9016 4.32002 18.9122 4.2173 18.8838 4.12198C18.8553 4.02665 18.7902 3.94653 18.7027 3.89923C18.6152 3.85193 18.5125 3.84133 18.4171 3.86976C18.3218 3.89819 18.2417 3.96333 18.1944 4.05084L17.1657 5.95422C17.1185 6.04174 17.1079 6.14444 17.1363 6.23975C17.1647 6.33506 17.2298 6.41518 17.3173 6.46252Z" fill="#C9FEFF"/>
<path d="M14.673 6.08204C14.7686 6.10894 14.871 6.09684 14.9578 6.04838C15.0446 5.99992 15.1086 5.91906 15.1358 5.8235L15.7317 3.7198C15.7452 3.67239 15.7493 3.62278 15.7436 3.5738C15.738 3.52482 15.7227 3.47743 15.6987 3.43436C15.6747 3.39129 15.6425 3.35337 15.6038 3.32278C15.5651 3.29219 15.5208 3.26953 15.4734 3.25609C15.4259 3.24265 15.3763 3.2387 15.3273 3.24447C15.2784 3.25024 15.231 3.26561 15.188 3.2897C15.145 3.31379 15.1071 3.34613 15.0766 3.38487C15.0461 3.42361 15.0236 3.46798 15.0102 3.51545L14.4144 5.61915C14.401 5.66652 14.397 5.71607 14.4027 5.76498C14.4085 5.81388 14.4238 5.86118 14.4478 5.90417C14.4718 5.94716 14.504 5.98499 14.5427 6.01551C14.5813 6.04603 14.6256 6.06864 14.673 6.08204Z" fill="#C9FEFF"/>
<path d="M12 5.67456C12.0995 5.67456 12.1948 5.63505 12.2652 5.56472C12.3355 5.4944 12.375 5.39902 12.375 5.29956L12.375 3.19605C12.375 3.09659 12.3355 3.00121 12.2652 2.93088C12.1948 2.86056 12.0995 2.82105 12 2.82105C11.9005 2.82105 11.8052 2.86056 11.7348 2.93088C11.6645 3.00121 11.625 3.09659 11.625 3.19605L11.625 5.29956C11.625 5.39902 11.6645 5.4944 11.7348 5.56473C11.8052 5.63505 11.9005 5.67456 12 5.67456Z" fill="#C9FEFF"/>
</svg>
