<svg width="24" height="24" viewBox="0 0 24 24" fill="none" xmlns="http://www.w3.org/2000/svg">
<path d="M14.1314 17.5499H10.0094C9.85795 17.5499 9.72978 17.6571 9.71306 17.8076C9.60466 18.7834 9.41534 22.1959 12.0702 22.1959C14.7247 22.1959 14.5359 18.7835 14.4277 17.8077C14.411 17.6572 14.2828 17.5499 14.1314 17.5499Z" fill="#C9FEFF"/>
<path d="M9.44141 15.7929C9.44141 15.6311 9.57252 15.5 9.73426 15.5H14.2736C14.4353 15.5 14.5664 15.6311 14.5664 15.7929V16.6714C14.5664 16.8332 14.4353 16.9643 14.2736 16.9643H9.73426C9.57252 16.9643 9.44141 16.8332 9.44141 16.6714V15.7929Z" fill="#C9FEFF" fill-opacity="0.996078"/>
<path fill-rule="evenodd" clip-rule="evenodd" d="M12.5001 14.9824C16.1327 14.726 19 11.6978 19 8C19 4.13401 15.866 1 12 1C8.13401 1 5 4.13401 5 8C5 11.6979 7.86741 14.7261 11.5001 14.9824V10.5H11.0001C10.724 10.5 10.5001 10.2761 10.5001 9.99998C10.5001 9.72383 10.724 9.49998 11.0001 9.49998H12.0001H13.0001C13.2762 9.49998 13.5001 9.72383 13.5001 9.99998C13.5001 10.2761 13.2762 10.5 13.0001 10.5H12.5001V14.9824Z" fill="#C9FEFF"/>
</svg>
