<svg width="24" height="24" viewBox="0 0 24 24" fill="none" xmlns="http://www.w3.org/2000/svg">
<path d="M14.1314 16.2768H10.0094C9.85795 16.2768 9.72978 16.3841 9.71306 16.5345C9.60466 17.5103 9.41534 20.9229 12.0702 20.9229C14.7247 20.9229 14.5359 17.5105 14.4277 16.5346C14.411 16.3841 14.2828 16.2768 14.1314 16.2768Z" fill="#C9FEFF"/>
<path d="M9.44141 14.5198C9.44141 14.358 9.57252 14.2269 9.73426 14.2269H14.2736C14.4353 14.2269 14.5664 14.358 14.5664 14.5198V15.3984C14.5664 15.5601 14.4353 15.6912 14.2736 15.6912H9.73426C9.57252 15.6912 9.44141 15.5601 9.44141 15.3984V14.5198Z" fill="#C9FEFF" fill-opacity="0.996078"/>
<path fill-rule="evenodd" clip-rule="evenodd" d="M12.3893 13.593C16.6268 13.4407 20 10.8158 20 7.59998C20 4.28627 16.4183 1.59998 12 1.59998C7.58172 1.59998 4 4.28627 4 7.59998C4 10.8159 7.37343 13.4409 11.6111 13.593C11.604 13.5631 11.6002 13.532 11.6002 13.5V8.39995H11.0002C10.7793 8.39995 10.6002 8.22087 10.6002 7.99995C10.6002 7.77904 10.7793 7.59995 11.0002 7.59995H12.0002H13.0002C13.2211 7.59995 13.4002 7.77904 13.4002 7.99995C13.4002 8.22087 13.2211 8.39995 13.0002 8.39995H12.4002V13.5C12.4002 13.532 12.3964 13.5631 12.3893 13.593Z" fill="#C9FEFF"/>
</svg>
