<svg width="24" height="24" viewBox="0 0 24 24" fill="none" xmlns="http://www.w3.org/2000/svg">
<path d="M14.6862 14.0303H9.31396V18.2966H14.6862V14.0303Z" fill="#C9FEFF"/>
<path d="M13.0635 3.27052C12.7835 2.97516 12.4057 2.8125 11.9997 2.8125C11.5938 2.8125 11.216 2.97516 10.9359 3.27052C10.8032 3.41058 10.6187 3.48989 10.4257 3.48989H9.31396V9.81164L14.6862 9.81159V3.48989H13.5737C13.3807 3.48989 13.1963 3.41058 13.0635 3.27052Z" fill="#C9FEFF"/>
<path d="M18.3281 0.703125C18.3281 0.314812 18.0133 0 17.625 0H6.375C5.98669 0 5.67188 0.314812 5.67188 0.703125V21.1875H18.3281V0.703125ZM16.0924 18.9998C16.0924 19.3881 15.7776 19.7029 15.3892 19.7029H8.61075C8.22244 19.7029 7.90762 19.3881 7.90762 18.9998V13.3272C7.90762 12.9389 8.22244 12.624 8.61075 12.624H15.3892C15.7775 12.624 16.0923 12.9389 16.0923 13.3272L16.0924 18.9998ZM16.0924 10.5147C16.0924 10.903 15.7776 11.2178 15.3892 11.2178L8.6108 11.2179C8.42428 11.2179 8.24545 11.1438 8.11359 11.0119C7.98173 10.8801 7.90767 10.7012 7.90767 10.5148V2.78677C7.90767 2.39845 8.22248 2.08364 8.6108 2.08364H10.1482C10.6633 1.65005 11.3223 1.40625 11.9996 1.40625C12.6769 1.40625 13.3359 1.65005 13.8511 2.08364H15.3892C15.7776 2.08364 16.0924 2.39845 16.0924 2.78677V10.5147Z" fill="#C9FEFF"/>
<path d="M19.2656 22.5938H4.73438C4.34606 22.5938 4.03125 22.9086 4.03125 23.2969C4.03125 23.6852 4.34606 24 4.73438 24H19.2656C19.6539 24 19.9688 23.6852 19.9688 23.2969C19.9688 22.9086 19.6539 22.5938 19.2656 22.5938Z" fill="#C9FEFF"/>
</svg>
