<svg width="32" height="32" viewBox="0 0 32 32" fill="none" xmlns="http://www.w3.org/2000/svg">
<path d="M19.3333 20C19.6242 19.997 19.9063 19.8989 20.1363 19.7207C20.3663 19.5424 20.5317 19.2939 20.6073 19.0128C20.6828 18.7318 20.6643 18.4338 20.5547 18.1642C20.445 17.8947 20.2502 17.6684 19.9999 17.52V11.3333H22.6666L20.6666 0.666626H11.3333L9.33325 11.3333H15.3333V28.6666H13.3333C12.8028 28.6666 12.2941 28.8773 11.919 29.2524C11.544 29.6275 11.3333 30.1362 11.3333 30.6666V31.3333H20.6666V30.6666C20.6666 30.1362 20.4559 29.6275 20.0808 29.2524C19.7057 28.8773 19.197 28.6666 18.6666 28.6666H16.6666V11.3333H18.6666V17.52C18.4163 17.6684 18.2215 17.8947 18.1118 18.1642C18.0022 18.4338 17.9837 18.7318 18.0592 19.0128C18.1348 19.2939 18.3002 19.5424 18.5302 19.7207C18.7602 19.8989 19.0423 19.997 19.3333 20Z" fill="#C9FEFF"/>
</svg>
