<svg width="24" height="24" viewBox="0 0 24 24" fill="none" xmlns="http://www.w3.org/2000/svg">
<path d="M17.2441 22.6949C17.0412 23.4455 16.3514 24 15.5264 24H8.43255C7.61432 24 6.92453 23.4455 6.7149 22.6949H17.2441ZM14.1063 2.12343C14.1063 2.50889 14.0048 2.87405 13.8155 3.18514C13.7276 2.91462 13.5788 2.67119 13.3827 2.47509C13.4165 2.36687 13.43 2.24514 13.43 2.12343C13.43 1.32546 12.7808 0.676249 11.9761 0.676249C11.1781 0.676249 10.5289 1.32546 10.5289 2.12343C10.5289 2.24515 10.5424 2.36687 10.5762 2.47509C10.3801 2.67118 10.2314 2.91462 10.1435 3.18514C9.95411 2.87405 9.85269 2.50889 9.85269 2.12343C9.85269 0.953531 10.8062 0 11.9761 0C13.1528 0 14.1063 0.953531 14.1063 2.12343ZM11.9761 2.55623C11.2728 2.55623 10.7047 3.13102 10.7047 3.83435V3.87492C11.1173 3.77347 11.5433 3.72612 11.9761 3.72612C12.4089 3.72612 12.8417 3.77347 13.2542 3.87492V3.83435C13.2542 3.13103 12.6862 2.55623 11.9761 2.55623ZM17.2441 8.9062H6.7149C7.10713 6.35674 9.31843 4.40237 11.9761 4.40237C14.6405 4.40238 16.8518 6.35674 17.2441 8.9062ZM8.68276 7.31023C8.47989 7.28319 8.26349 7.42522 8.20938 7.63485C8.14854 7.84449 8.27026 8.03382 8.47989 8.06089C8.68953 8.08792 8.89916 7.9459 8.96004 7.73626C9.01411 7.52663 8.89239 7.33731 8.68276 7.31023ZM10.0488 5.71429C9.67009 5.66695 9.21025 5.94424 9.02088 6.33643C8.82479 6.7219 8.97354 7.06679 9.35224 7.10736C9.73094 7.15471 10.1908 6.87746 10.3801 6.48523C10.5762 6.09976 10.4275 5.75487 10.0488 5.71429ZM8.64219 18.4683V13.1327C8.64219 13.011 8.52723 12.9096 8.38521 12.9096H6.65402V18.6915H8.38521C8.52723 18.6915 8.64219 18.59 8.64219 18.4683ZM13.1122 12.9096H10.8468C10.7183 12.9096 10.6101 13.0178 10.6101 13.1462V18.448C10.6101 18.5833 10.7183 18.6915 10.8468 18.6915H13.1122C13.2407 18.6915 13.3489 18.5833 13.3489 18.448V13.1462C13.3489 13.0178 13.2407 12.9096 13.1122 12.9096ZM14.6405 13.1327V18.4683C14.6405 18.962 15.0598 19.3677 15.5737 19.3677H17.3049V19.5098H6.65402V19.3677H8.38521C8.89916 19.3677 9.31843 18.962 9.31843 18.4683V13.1327C9.31843 12.6391 8.89917 12.2333 8.38521 12.2333H6.65402V12.0845H17.3049V12.2333H15.5737C15.0598 12.2333 14.6405 12.6391 14.6405 13.1327ZM14.0251 13.1462C14.0251 12.6458 13.6126 12.2333 13.1122 12.2333H10.8468C10.3463 12.2333 9.93384 12.6458 9.93384 13.1462V18.448C9.93384 18.9552 10.3463 19.3677 10.8468 19.3677H13.1122C13.6126 19.3677 14.0251 18.9552 14.0251 18.448V13.1462ZM17.3049 12.9096V18.6915H15.5737C15.4317 18.6915 15.3167 18.59 15.3167 18.4683V13.1327C15.3167 13.011 15.4317 12.9096 15.5737 12.9096H17.3049ZM5.60162 21.1031C5.60162 21.6087 6.01144 22.0185 6.51698 22.0185H17.5243C18.0298 22.0185 18.4396 21.6087 18.4396 21.1031C18.4396 20.5976 18.0298 20.1878 17.5243 20.1878H6.51698C6.01144 20.1878 5.60162 20.5976 5.60162 21.1031ZM18.3984 10.4958C18.3984 9.99029 17.9886 9.58047 17.4831 9.58047H6.47578C5.97025 9.58047 5.56042 9.99029 5.56042 10.4958C5.56042 11.0014 5.97024 11.4112 6.47578 11.4112H17.4831C17.9886 11.4112 18.3984 11.0014 18.3984 10.4958Z" fill="#C9FEFF"/>
</svg>
