<svg width="32" height="32" viewBox="0 0 32 32" fill="none" xmlns="http://www.w3.org/2000/svg">
<path d="M30.4657 13.7205H32V11.2365H30.4657V7.95711C30.4657 7.77711 30.4124 7.60336 30.2922 7.4693L28.1557 5.07942C28.0171 4.92492 27.8227 4.83667 27.6151 4.83667C27.4074 4.83667 27.2113 4.92492 27.0728 5.07942L24.9417 7.46923C24.8215 7.6033 24.7671 7.77704 24.7671 7.95704V11.2365H22.7214V7.95704C22.7214 7.77704 22.6675 7.6033 22.5473 7.46923L20.4104 5.07942C20.2719 4.92492 20.0772 4.83667 19.8696 4.83667C19.6621 4.83667 19.4659 4.92492 19.3273 5.07942L17.1968 7.46923C17.0766 7.6033 17.0228 7.77704 17.0228 7.95704V11.2365H14.9771V7.95704C14.9771 7.77704 14.9226 7.6033 14.8024 7.46923L12.6652 5.07942C12.5266 4.92492 12.3318 4.83667 12.1243 4.83667C11.9167 4.83667 11.7204 4.92492 11.5819 5.07942L9.45206 7.46923C9.33181 7.6033 9.27862 7.77704 9.27862 7.95704V11.2365H7.23287V7.95704C7.23287 7.77704 7.17762 7.6033 7.05744 7.46923L4.91994 5.07942C4.78144 4.92492 4.58644 4.83667 4.37887 4.83667C4.17131 4.83667 3.97494 4.92492 3.83631 5.07942L1.707 7.46923C1.58681 7.6033 1.53419 7.77704 1.53419 7.95704V11.2365H0V13.7205H1.53425V20.6611H0V23.1451H1.53425V26.4034C1.53425 26.8069 1.83506 27.1634 2.23856 27.1634H6.52481C6.92831 27.1634 7.23287 26.8069 7.23287 26.4034V23.1451H9.27856V26.4034C9.27856 26.8069 9.58056 27.1634 9.98413 27.1634H14.2704C14.6739 27.1634 14.9771 26.8069 14.9771 26.4034V23.1451H17.0228V26.4034C17.0228 26.8069 17.3261 27.1634 17.7296 27.1634H22.0158C22.4193 27.1634 22.7214 26.8069 22.7214 26.4034V23.1451H24.7671V26.4034C24.7671 26.8069 25.0716 27.1634 25.4751 27.1634H29.7614C30.1649 27.1634 30.4657 26.8069 30.4657 26.4034V24.6133V23.1451H31.9999V20.6611H30.4656V13.7205H30.4657V13.7205ZM9.27856 20.6612H7.23287V13.7205H9.27856V20.6612ZM17.0228 20.6612H14.9771V13.7205H17.0228V20.6612ZM24.7671 20.6612H22.7214V13.7205H24.7671V20.6612Z" fill="#C9FEFF"/>
</svg>
