<svg width="24" height="24" viewBox="0 0 24 24" fill="none" xmlns="http://www.w3.org/2000/svg">
<path fill-rule="evenodd" clip-rule="evenodd" d="M20.6409 18.9911C22.7765 16.7264 19.8393 11.7147 15.7847 7.89117C11.73 4.06763 8.0934 2.8802 5.95778 5.1449C3.82216 7.4096 5.37783 12.3451 9.43246 16.1686C13.4871 19.9922 18.5053 21.2558 20.6409 18.9911ZM20.1099 16.6209C20.6545 16.0961 18.4102 11.9855 15.3955 8.85718C12.3807 5.7289 9.48233 4.6276 8.93776 5.1524C8.39319 5.67719 10.6506 8.77857 13.6653 11.9068C16.68 15.0351 19.5653 17.1457 20.1099 16.6209Z" fill="#C9FEFF"/>
<path d="M9.05392 19.9585L12.7575 17.1096C12.8719 17.0216 12.8583 16.8452 12.7319 16.7758L9.6146 15.063C9.54498 15.0247 9.45932 15.0313 9.39635 15.0797L3.46608 19.6415C3.31471 19.7579 3.39705 20 3.58802 20H8.93198C8.97608 20 9.01896 19.9854 9.05392 19.9585Z" fill="#C9FEFF" stroke="#C9FEFF" stroke-width="0.6" stroke-linecap="round"/>
</svg>
