<svg width="32" height="32" viewBox="0 0 32 32" fill="none" xmlns="http://www.w3.org/2000/svg">
<path d="M15.8381 2.40002C10.6341 2.40002 6.40002 6.63373 6.40002 11.8381C6.40002 15.3007 8.32273 18.4946 11.3485 20.1453V22.0956C11.3485 22.6386 11.7886 23.0787 12.3316 23.0787H19.3122C19.8552 23.0787 20.2954 22.6386 20.2954 22.0956V20.148C23.3411 18.5039 25.2763 15.3087 25.2763 11.8382C25.2763 6.63373 21.0422 2.40002 15.8381 2.40002ZM18.9045 18.6447C18.5539 18.8043 18.3288 19.154 18.3288 19.5394V21.1124H13.3147V19.5394C13.3147 19.1556 13.0913 18.8066 12.7429 18.6464C10.0842 17.4217 8.36629 14.7492 8.36629 11.8381C8.36629 7.71812 11.7181 4.36629 15.8381 4.36629C19.9582 4.36629 23.31 7.71812 23.31 11.8381C23.31 14.7538 21.5807 17.4256 18.9045 18.6447Z" fill="#FFFAF1"/>
<path d="M18.5545 24.3884H13.1145C12.5715 24.3884 12.1313 24.8286 12.1313 25.3716C12.1313 25.9146 12.5714 26.3547 13.1145 26.3547H18.5545C19.0975 26.3547 19.5376 25.9146 19.5376 25.3716C19.5376 24.8286 19.0975 24.3884 18.5545 24.3884Z" fill="#FFFAF1"/>
<path d="M16.984 27.6345H14.69C14.1471 27.6345 13.7069 28.0747 13.7069 28.6177C13.7069 29.1606 14.1471 29.6008 14.69 29.6008H16.984C17.527 29.6008 17.9672 29.1606 17.9672 28.6177C17.9671 28.0747 17.527 27.6345 16.984 27.6345Z" fill="#FFFAF1"/>
</svg>
