<svg width="24" height="24" viewBox="0 0 24 24" fill="none" xmlns="http://www.w3.org/2000/svg">
<path fill-rule="evenodd" clip-rule="evenodd" d="M8.75374 17.9181H2.10426C1.92297 17.9181 1.77466 17.7698 1.77466 17.5886V8.61132C1.77466 8.43005 1.92298 8.28174 2.10426 8.28174C2.70575 8.28174 3.27019 8.51657 3.69865 8.94092C4.123 9.36527 4.35783 9.9297 4.35783 10.5353V15.9365L7.62078 15.9365C8.42828 15.9365 9.08335 16.5915 9.08335 17.399V17.5885C9.08335 17.7698 8.93503 17.9181 8.75374 17.9181Z" fill="#C9FEFF"/>
<path fill-rule="evenodd" clip-rule="evenodd" d="M2.46253 22.4049C2.44606 22.4049 2.4337 22.4049 2.41721 22.4008C2.23594 22.376 2.10822 22.2113 2.13294 22.03L2.73445 17.5434C2.75917 17.3622 2.92396 17.2344 3.10524 17.2592C3.28651 17.2839 3.41423 17.4487 3.38951 17.63L2.788 22.1206C2.76741 22.2854 2.62732 22.4049 2.46253 22.4049Z" fill="#C9FEFF"/>
<path fill-rule="evenodd" clip-rule="evenodd" d="M8.55168 22.4047C8.39513 22.4047 8.25505 22.2894 8.22621 22.1287L7.46816 17.6421C7.43932 17.4608 7.55879 17.2919 7.73594 17.2631C7.91722 17.2342 8.08614 17.3537 8.11498 17.5309L8.87717 22.0174C8.906 22.1987 8.78652 22.3676 8.60937 22.3965C8.58878 22.4047 8.57229 22.4047 8.55168 22.4047Z" fill="#C9FEFF"/>
<path fill-rule="evenodd" clip-rule="evenodd" d="M21.9744 17.9182H15.3249C15.1437 17.9182 14.9954 17.7698 14.9954 17.5886V17.3991C14.9954 16.5916 15.6504 15.9365 16.4579 15.9365L19.725 15.9365V10.5353C19.725 9.93382 19.9598 9.3694 20.3842 8.94092C20.8085 8.51657 21.3729 8.28174 21.9786 8.28174C22.1598 8.28174 22.3082 8.43006 22.3082 8.61132V17.5885C22.304 17.7698 22.1598 17.9182 21.9744 17.9182Z" fill="#C9FEFF"/>
<path fill-rule="evenodd" clip-rule="evenodd" d="M21.6161 22.4047C21.4554 22.4047 21.3112 22.2852 21.2906 22.1204L20.6891 17.6339C20.6644 17.4526 20.7921 17.2878 20.9734 17.2631C21.1546 17.2384 21.3194 17.3661 21.3441 17.5473L21.9456 22.0339C21.9704 22.2152 21.8427 22.3799 21.6614 22.4047C21.6449 22.4047 21.6284 22.4047 21.6161 22.4047Z" fill="#C9FEFF"/>
<path fill-rule="evenodd" clip-rule="evenodd" d="M15.5268 22.4047C15.5103 22.4047 15.4897 22.4047 15.4732 22.4005C15.2919 22.3717 15.1725 22.1987 15.2054 22.0215L15.9676 17.535C15.9965 17.3537 16.1695 17.2342 16.3466 17.2672C16.5279 17.296 16.6474 17.4691 16.6144 17.6462L15.8522 22.1286C15.8234 22.2893 15.6833 22.4047 15.5268 22.4047Z" fill="#C9FEFF"/>
<path fill-rule="evenodd" clip-rule="evenodd" d="M17.0883 13.7488H6.82975C6.20765 13.7488 5.69678 13.2421 5.69678 12.6159C5.69678 11.9938 6.20353 11.4829 6.82975 11.4829L17.0883 11.4829C17.7104 11.4829 18.2212 11.9897 18.2212 12.6159C18.2212 13.2421 17.7104 13.7488 17.0883 13.7488Z" fill="#C9FEFF"/>
<path fill-rule="evenodd" clip-rule="evenodd" d="M12.2803 15.9566H11.6376C11.0361 15.9566 10.4675 15.7217 10.0432 15.2974C9.80514 15.0594 9.62361 14.7715 9.51221 14.457H14.4012C14.0901 15.3317 13.2449 15.9566 12.2803 15.9566Z" fill="#C9FEFF"/>
<path fill-rule="evenodd" clip-rule="evenodd" d="M22.2174 22.4048H1.78271C1.60143 22.4048 1.45312 22.2565 1.45312 22.0752C1.45312 21.8939 1.60145 21.7456 1.78271 21.7456L22.2174 21.7456C22.3987 21.7456 22.547 21.8939 22.547 22.0752C22.547 22.2565 22.3987 22.4048 22.2174 22.4048Z" fill="#C9FEFF"/>
<path fill-rule="evenodd" clip-rule="evenodd" d="M13.644 22.4049C13.6234 22.4049 13.6028 22.4049 13.5781 22.4008C13.5575 22.3967 13.5369 22.3884 13.5163 22.3802C13.4957 22.3719 13.4751 22.3596 13.4586 22.3513C13.4422 22.339 13.4257 22.3266 13.4092 22.3101C13.3927 22.2937 13.3804 22.2772 13.368 22.2607C13.3556 22.2442 13.3474 22.2236 13.3391 22.203C13.3309 22.1824 13.3227 22.1618 13.3186 22.1412C13.3144 22.1206 13.3103 22.1 13.3103 22.0753C13.3103 22.0547 13.3144 22.0341 13.3186 22.0094C13.3227 21.9888 13.3309 21.9682 13.3391 21.9476C13.3474 21.927 13.3597 21.9105 13.368 21.8899C13.3804 21.8734 13.3927 21.8528 13.4092 21.8405C13.4257 21.824 13.4422 21.8116 13.4586 21.7993C13.4751 21.7869 13.4957 21.7787 13.5163 21.7704C13.5369 21.7622 13.5575 21.754 13.5781 21.7498C13.6193 21.7416 13.6646 21.7416 13.7058 21.7498C13.7264 21.754 13.747 21.7622 13.7676 21.7704C13.7882 21.7787 13.8047 21.7869 13.8253 21.7993C13.8418 21.8116 13.8583 21.824 13.8747 21.8405C13.8912 21.857 13.9036 21.8734 13.9159 21.8899C13.9283 21.9064 13.9365 21.927 13.9448 21.9476C13.953 21.9682 13.9613 21.9888 13.9654 22.0094C13.9695 22.03 13.9695 22.0506 13.9695 22.0753C13.9695 22.0959 13.9695 22.1165 13.9654 22.1412C13.9613 22.1618 13.953 22.1824 13.9448 22.203C13.9365 22.2236 13.9283 22.2401 13.9159 22.2607C13.9036 22.2772 13.8912 22.2937 13.8747 22.3101C13.8583 22.3266 13.8418 22.339 13.8253 22.3513C13.8088 22.3637 13.7882 22.3719 13.7676 22.3802C13.747 22.3884 13.7264 22.3967 13.7058 22.4008C13.6852 22.4008 13.6646 22.4049 13.644 22.4049Z" fill="#C9FEFF"/>
<path fill-rule="evenodd" clip-rule="evenodd" d="M14.5958 8.0223H9.40061C9.1534 8.0223 8.93917 7.86576 8.86501 7.63091C8.79496 7.40845 8.86912 7.1736 9.04629 7.02942L11.5429 4.31854L12.2021 4.3103L14.9336 7.00883C15.1231 7.1489 15.2014 7.38785 15.1354 7.61444C15.0654 7.85751 14.8512 8.0223 14.5958 8.0223Z" fill="#C9FEFF"/>
<path fill-rule="evenodd" clip-rule="evenodd" d="M11.959 22.4047C11.7777 22.4047 11.6294 22.2564 11.6294 22.0752V15.3433C11.6294 15.162 11.7777 15.0137 11.959 15.0137C12.1402 15.0137 12.2886 15.162 12.2886 15.3433V22.0751C12.2886 22.2564 12.1403 22.4047 11.959 22.4047Z" fill="#C9FEFF"/>
<path fill-rule="evenodd" clip-rule="evenodd" d="M11.584 1.92067L11.5549 3.61014L12.2142 3.60192L12.2431 1.92892C12.2431 1.74765 12.0989 1.59933 11.9177 1.59521H11.9136C11.7323 1.59521 11.5881 1.7394 11.584 1.92067Z" fill="#C9FEFF"/>
</svg>
