<svg width="40" height="40" viewBox="0 0 40 40" fill="none" xmlns="http://www.w3.org/2000/svg">
<path d="M23.4445 35C20.0222 35 17.2222 32.2 17.2222 28.7778C17.2222 25.3556 20.0222 22.5556 23.4445 22.5556C26.8667 22.5556 29.6667 25.3556 29.6667 28.7778C29.6667 32.2 26.8667 35 23.4445 35ZM23.4445 25.6667C21.7333 25.6667 20.3333 27.0667 20.3333 28.7778C20.3333 30.4889 21.7333 31.8889 23.4445 31.8889C25.1556 31.8889 26.5556 30.4889 26.5556 28.7778C26.5556 27.0667 25.1556 25.6667 23.4445 25.6667Z" fill="white"/>
<path d="M28.1111 30.3333C27.1778 30.3333 26.5556 29.7111 26.5556 28.7778V8.55556C26.5556 7.62222 27.1778 7 28.1111 7H34.3334C35.2667 7 35.8889 7.62222 35.8889 8.55556C35.8889 9.48889 35.2667 10.1111 34.3334 10.1111H29.6667V28.7778C29.6667 29.7111 29.0445 30.3333 28.1111 30.3333Z" fill="white"/>
<path d="M21.8889 11.6667H6.33333C5.39999 11.6667 4.77777 11.0445 4.77777 10.1111C4.77777 9.17779 5.39999 8.55557 6.33333 8.55557H21.8889C22.8222 8.55557 23.4444 9.17779 23.4444 10.1111C23.4444 11.0445 22.8222 11.6667 21.8889 11.6667Z" fill="white"/>
<path d="M21.8889 17.8889H6.33333C5.39999 17.8889 4.77777 17.2667 4.77777 16.3333C4.77777 15.4 5.39999 14.7778 6.33333 14.7778H21.8889C22.8222 14.7778 23.4444 15.4 23.4444 16.3333C23.4444 17.2667 22.8222 17.8889 21.8889 17.8889Z" fill="white"/>
<path d="M15.6667 24.1111H6.33333C5.39999 24.1111 4.77777 23.4889 4.77777 22.5556C4.77777 21.6222 5.39999 21 6.33333 21H15.6667C16.6 21 17.2222 21.6222 17.2222 22.5556C17.2222 23.4889 16.6 24.1111 15.6667 24.1111Z" fill="white"/>
</svg>
