<svg width="24" height="24" viewBox="0 0 24 24" fill="none" xmlns="http://www.w3.org/2000/svg">
<path fill-rule="evenodd" clip-rule="evenodd" d="M16.7388 17.8935C18.2567 18.208 19.2324 19.6934 18.9179 21.2114C18.5973 22.7592 17.0826 23.754 15.5348 23.4333L10.0685 22.3009C8.5356 21.9834 7.55039 20.4833 7.86794 18.9505C8.18549 17.4176 9.68555 16.4324 11.2184 16.7499L16.7388 17.8935ZM16.0614 23.133C15.2149 23.0016 14.7981 21.9621 15.1304 20.8113C15.4627 19.6604 16.4597 18.6426 17.3062 18.7741C18.1526 18.9055 18.6592 20.1794 18.3269 21.3302C17.9946 22.4811 16.9079 23.2645 16.0614 23.133Z" fill="#C9FEFF"/>
<path fill-rule="evenodd" clip-rule="evenodd" d="M4 5.2435L16.7984 0.444092L19.998 2.0439V11.6427L7.19961 16.4421L4 14.8423V5.2435ZM18.3985 3.00331L7.19983 7.16342V15.4821L18.3985 11.3226V3.00331Z" fill="#C9FEFF"/>
</svg>
