<svg width="32" height="32" viewBox="0 0 32 32" fill="none" xmlns="http://www.w3.org/2000/svg">
<path d="M15.9999 15.0841C15.6049 15.0841 6.28491 15.1141 6.28491 17.4941C6.28032 20.723 25.6869 20.7422 25.7149 17.4943C25.7149 15.1141 16.3949 15.0841 15.9999 15.0841Z" fill="#C9FEFF"/>
<path d="M16 7.31421C9.215 7.31421 2 9.12421 2 12.4792V17.4942C2.21523 24.3499 29.7851 24.3503 30 17.4942V12.4792C30 9.12421 22.785 7.31421 16 7.31421ZM16 21.6642C8.34 21.6642 3 19.4642 3 17.4942C3 15.5242 8.34 13.3292 16 13.3292C23.66 13.3292 29 15.5242 29 17.4942C29 19.4642 23.66 21.6642 16 21.6642Z" fill="#C9FEFF"/>
<path d="M16.0001 6.31422C20.452 6.36754 24.5843 6.87458 28.0001 8.58414C27.1193 2.14956 4.85865 2.15621 3.99512 8.58938C7.40544 6.87296 11.547 6.36808 16.0001 6.31422Z" fill="#C9FEFF"/>
<path d="M27.0821 22.5678C26.997 22.4683 26.8763 22.4062 26.7459 22.3947C26.6155 22.3833 26.4858 22.4234 26.3847 22.5065C26.2836 22.5896 26.2191 22.7091 26.205 22.8392C26.191 22.9694 26.2286 23.0998 26.3096 23.2026L27.9801 25.2365C28.0217 25.2872 28.073 25.3292 28.1309 25.3601C28.1888 25.391 28.2523 25.4102 28.3176 25.4166C28.3829 25.423 28.4489 25.4165 28.5117 25.3974C28.5745 25.3783 28.6329 25.347 28.6837 25.3053C28.7344 25.2636 28.7764 25.2124 28.8073 25.1545C28.8382 25.0965 28.8574 25.0331 28.8638 24.9678C28.8702 24.9024 28.8637 24.8365 28.8446 24.7737C28.8255 24.7109 28.7942 24.6524 28.7525 24.6017L27.0821 22.5678Z" fill="#C9FEFF"/>
<path d="M23.7655 23.5853C23.7014 23.4707 23.5947 23.3858 23.4685 23.3492C23.3423 23.3125 23.2068 23.327 23.0912 23.3895C22.9756 23.452 22.8892 23.5574 22.8508 23.6831C22.8123 23.8087 22.8248 23.9445 22.8856 24.0609L24.2572 26.5988C24.3217 26.7128 24.4283 26.797 24.5542 26.8332C24.6801 26.8694 24.8152 26.8548 24.9304 26.7925C25.0457 26.7302 25.1319 26.6252 25.1705 26.5001C25.2091 26.3749 25.1971 26.2396 25.1371 26.1231L23.7655 23.5853Z" fill="#C9FEFF"/>
<path d="M20.1811 24.2353C20.1436 24.1094 20.058 24.0033 19.9428 23.9401C19.8277 23.8768 19.6922 23.8614 19.5658 23.8972C19.4394 23.933 19.3322 24.0172 19.2673 24.1314C19.2025 24.2457 19.1852 24.3809 19.2192 24.5078L20.0141 27.3127C20.0517 27.4387 20.1373 27.5448 20.2524 27.6081C20.3676 27.6714 20.5031 27.6868 20.6295 27.651C20.756 27.6151 20.8632 27.531 20.9281 27.4167C20.9929 27.3024 21.0102 27.1671 20.9761 27.0402L20.1811 24.2353Z" fill="#C9FEFF"/>
<path d="M4.91562 22.5685L3.25107 24.6024C3.1701 24.7054 3.13274 24.836 3.14703 24.9662C3.16131 25.0963 3.22609 25.2157 3.32745 25.2987C3.42881 25.3816 3.55865 25.4215 3.68909 25.4097C3.81952 25.3979 3.94014 25.3355 4.02501 25.2357L5.68955 23.2018C5.77044 23.0989 5.80774 22.9683 5.79343 22.8382C5.77912 22.708 5.71435 22.5887 5.61303 22.5058C5.51171 22.4229 5.38191 22.383 5.25151 22.3947C5.12112 22.4064 5.00052 22.4688 4.91562 22.5685Z" fill="#C9FEFF"/>
<path d="M8.91049 23.3832C8.79375 23.3205 8.65691 23.3065 8.5299 23.3444C8.40289 23.3823 8.29605 23.4689 8.23276 23.5854L6.86118 26.1232C6.79811 26.2399 6.78398 26.3768 6.82189 26.5039C6.8598 26.631 6.94665 26.7379 7.06333 26.8009C7.18001 26.864 7.31696 26.8781 7.44406 26.8402C7.57116 26.8023 7.67799 26.7155 7.74106 26.5988L9.11264 24.061C9.17564 23.9443 9.18973 23.8073 9.15183 23.6803C9.11392 23.5532 9.02712 23.4463 8.91049 23.3832Z" fill="#C9FEFF"/>
<path d="M12.4357 23.8905C12.3082 23.8547 12.1716 23.8708 12.0559 23.9354C11.9403 24 11.8549 24.1078 11.8185 24.2353L11.0241 27.0402C11.0061 27.1034 11.0006 27.1696 11.0082 27.2349C11.0157 27.3002 11.0361 27.3633 11.0681 27.4208C11.1001 27.4782 11.1431 27.5288 11.1946 27.5695C11.2462 27.6103 11.3053 27.6406 11.3685 27.6585C11.4318 27.6764 11.4979 27.6816 11.5632 27.674C11.6285 27.6663 11.6917 27.6458 11.749 27.6136C11.8064 27.5815 11.8568 27.5384 11.8975 27.4868C11.9382 27.4351 11.9683 27.3759 11.986 27.3126L12.7804 24.5077C12.7984 24.4446 12.8037 24.3785 12.796 24.3133C12.7884 24.2481 12.768 24.185 12.736 24.1277C12.704 24.0704 12.661 24.0199 12.6095 23.9792C12.5579 23.9385 12.4989 23.9084 12.4357 23.8905Z" fill="#C9FEFF"/>
<path d="M16 24.434C15.8674 24.434 15.7402 24.4866 15.6465 24.5804C15.5527 24.6742 15.5 24.8014 15.5 24.934V27.7386C15.5 27.8713 15.5527 27.9984 15.6464 28.0922C15.7402 28.186 15.8674 28.2386 16 28.2386C16.1326 28.2386 16.2598 28.186 16.3536 28.0922C16.4473 27.9984 16.5 27.8713 16.5 27.7386V24.934C16.5 24.8014 16.4473 24.6742 16.3536 24.5804C16.2598 24.4866 16.1326 24.434 16 24.434Z" fill="#C9FEFF"/>
</svg>
