<svg width="24" height="24" viewBox="0 0 24 24" fill="none" xmlns="http://www.w3.org/2000/svg">
<path d="M19.5594 7.71338H8.05273L9.44604 2.81335C9.69938 1.9467 10.5061 1.33337 11.4127 1.33337H16.2061C17.1127 1.33337 17.9194 1.94002 18.1661 2.81335L19.5594 7.71338Z" fill="#C9FEFF"/>
<path d="M19.9058 11.8867C19.5192 12.4001 18.9259 12.7001 18.2792 12.7001H14.4725V16.1867C14.4725 17.6734 13.2659 18.8801 11.7792 18.8801H7.78585V19.3667C7.78585 20.4734 6.88586 21.3667 5.78585 21.3667H5.01253V22.0001C5.01253 22.3667 4.71252 22.6667 4.34587 22.6667C3.97917 22.6667 3.6792 22.3667 3.6792 22.0001V14.4267C3.6792 14.0534 3.97917 13.7601 4.34587 13.7601C4.71252 13.7601 5.01253 14.0534 5.01253 14.4267V15.0534H5.78585C6.88586 15.0534 7.78585 15.9534 7.78585 17.0534V17.5468H11.7792C12.5325 17.5468 13.1392 16.9334 13.1392 16.1867V12.7001H9.33919C8.6925 12.7001 8.0992 12.4001 7.70585 11.8867C7.31917 11.3667 7.19918 10.7134 7.37252 10.0934L7.67253 9.04675H19.9392L20.2392 10.0934C20.4192 10.7201 20.2992 11.3667 19.9058 11.8867Z" fill="#C9FEFF"/>
</svg>
