<svg width="24" height="24" viewBox="0 0 24 24" fill="none" xmlns="http://www.w3.org/2000/svg">
<g clip-path="url(#clip0_144_2882)">
<path d="M8.23132 10.4438C9.46362 10.4438 10.4409 9.44366 10.4409 8.23444V0.703125C10.4409 0.314758 10.1259 0 9.73773 0H6.7251C6.33673 0 6.02197 0.314758 6.02197 0.703125V8.23444C6.02197 9.46857 7.02411 10.4438 8.23132 10.4438Z" fill="#C9FEFF"/>
<path d="M11.8469 4.83069V8.23444C11.8469 10.2281 10.2248 11.85 8.23114 11.85C6.23767 11.85 4.61554 10.2281 4.61554 8.23444V4.83069L0.955994 8.49042C0.681335 8.76489 0.681335 9.21002 0.955994 9.48468L9.49622 18.0249L17.2687 10.2524L11.8469 4.83069Z" fill="#C9FEFF"/>
<path d="M23.1902 10.9777C23.0814 10.7151 22.8251 10.5437 22.5407 10.5437H18.9663L9.7876 19.7224V23.2968C9.7876 23.6861 10.1038 23.9999 10.4905 23.9999C10.6735 23.9999 10.8535 23.9285 10.9879 23.7939L23.0378 11.744C23.2389 11.5429 23.2991 11.2406 23.1902 10.9777Z" fill="#C9FEFF"/>
</g>
<defs>
<clipPath id="clip0_144_2882">
<rect width="24" height="24" fill="white"/>
</clipPath>
</defs>
</svg>
