<svg width="24" height="24" viewBox="0 0 24 24" fill="none" xmlns="http://www.w3.org/2000/svg">
<g clip-path="url(#clip0_184_396)">
<path fill-rule="evenodd" clip-rule="evenodd" d="M12.5189 0.208603L23.619 10.8485C23.8651 11.0946 24 11.4185 24 11.7496C24 12.4386 23.439 12.9996 22.7499 12.9996H21V21.9996C21 23.1045 20.105 23.9995 18.9999 23.9995H5.00006C3.89502 23.9995 3 23.1045 3 21.9996V12.9996H1.25006C0.561035 12.9996 0 12.4386 0 11.7496C0 11.4185 0.134949 11.0946 0.370056 10.8595L11.4811 0.208603C11.7709 -0.0695343 12.2291 -0.0695343 12.5189 0.208603ZM6.70711 9.29289C6.07714 9.92286 6.52331 11 7.41421 11H16.5858C17.4767 11 17.9229 9.92286 17.2929 9.29289L12.7071 4.70711C12.3166 4.31658 11.6834 4.31658 11.2929 4.70711L6.70711 9.29289Z" fill="#C9FEFF"/>
</g>
<defs>
<clipPath id="clip0_184_396">
<rect width="24" height="24" fill="white"/>
</clipPath>
</defs>
</svg>
