<svg width="24" height="24" viewBox="0 0 24 24" fill="none" xmlns="http://www.w3.org/2000/svg">
<rect x="2" y="8" width="2" height="8" fill="#C9FEFF"/>
<rect x="4" y="13" width="2" height="7" transform="rotate(-90 4 13)" fill="#C9FEFF"/>
<path fill-rule="evenodd" clip-rule="evenodd" d="M15 3C12.7909 3 11 4.79086 11 7V17C11 19.2091 12.7909 21 15 21C17.2091 21 19 19.2091 19 17V7C19 4.79086 17.2091 3 15 3ZM15 19.9412C16.6569 19.9412 18 19.0458 18 17.9412C18 16.8366 16.6569 15.9412 15 15.9412C13.3431 15.9412 12 16.8366 12 17.9412C12 19.0458 13.3431 19.9412 15 19.9412ZM11.7 12C11.7 11.8343 11.8343 11.7 12 11.7H18C18.1657 11.7 18.3 11.8343 18.3 12C18.3 12.1657 18.1657 12.3 18 12.3H12C11.8343 12.3 11.7 12.1657 11.7 12ZM15 8.05884C16.6569 8.05884 18 7.16341 18 6.05884C18 4.95427 16.6569 4.05884 15 4.05884C13.3431 4.05884 12 4.95427 12 6.05884C12 7.16341 13.3431 8.05884 15 8.05884Z" fill="#C9FEFF"/>
</svg>
