<svg width="24" height="24" viewBox="0 0 24 24" fill="none" xmlns="http://www.w3.org/2000/svg">
<path d="M4.7704 15.1087C4.7704 13.8506 5.57248 12.8646 6.59686 12.8646H8.70521C9.72901 12.8646 10.5317 13.85 10.5317 15.1087V16.0959C11.2186 15.9383 11.9743 15.826 12.7638 15.7636C13.3837 14.7799 13.7429 13.6145 13.7429 12.365C13.7429 10.77 13.1579 9.31134 12.1914 8.193L12.7386 2.89808C12.7884 2.41454 12.6308 1.92985 12.3054 1.56834C11.98 1.2074 11.5148 1 11.029 1H3.72024C3.23268 1 2.76632 1.20854 2.44033 1.57235C2.11492 1.93615 1.95851 2.42313 2.01179 2.90839L2.58528 8.15061C1.60158 9.27009 1.00345 10.7391 1.00001 12.3507C0.996577 14.0064 1.62278 15.5161 2.65289 16.6522C3.0144 17.0509 3.52945 17.2749 4.06685 17.2749H4.76982V15.1087H4.7704ZM3.54492 2.5635C3.57128 2.53428 3.62857 2.48501 3.72024 2.48501H11.0284C11.1195 2.48501 11.1768 2.53371 11.2031 2.56292C11.2295 2.59214 11.2719 2.65402 11.2621 2.74511L10.8221 7.00248C9.82756 6.35966 8.64276 5.98612 7.37088 5.98612C6.11103 5.98612 4.93769 6.35107 3.9494 6.98071L3.48591 2.74683C3.47617 2.65574 3.51857 2.59272 3.54492 2.5635ZM3.09002 10.5861C3.04935 10.7408 2.91013 10.8428 2.75773 10.8428C2.72908 10.8428 2.69987 10.8393 2.67065 10.8313C2.48674 10.7832 2.37674 10.5953 2.42486 10.4119C2.45294 10.3036 3.14961 7.75243 5.88759 7.36112C6.07608 7.3342 6.24967 7.46482 6.2766 7.65274C6.30353 7.84066 6.1729 8.01483 5.98498 8.04175C3.69445 8.36946 3.09575 10.5643 3.09002 10.5861Z" fill="#C9FEFF"/>
<path d="M21.8613 13.552H19.7529C19.1239 13.552 18.614 14.2487 18.614 15.1081V16.9947C17.4504 16.6206 15.9132 16.3931 14.2283 16.3931C12.5433 16.3931 11.0067 16.6206 9.84257 16.9947V15.1081C9.84257 14.2487 9.33267 13.552 8.70361 13.552H6.59526C5.9662 13.552 5.4563 14.2487 5.4563 15.1081V21.4434C5.4563 22.3028 5.9662 22.9994 6.59526 22.9994H8.70361C9.33267 22.9994 9.84257 22.3028 9.84257 21.4434V19.4846C11.0062 19.8587 12.5433 20.0861 14.2283 20.0861C15.9132 20.0861 17.4498 19.8587 18.614 19.4846V21.4434C18.614 22.3028 19.1239 22.9994 19.7529 22.9994H21.8613C22.4903 22.9994 23.0002 22.3028 23.0002 21.4434V15.1086C23.0002 14.2487 22.4903 13.552 21.8613 13.552Z" fill="#C9FEFF"/>
</svg>
