<svg width="32" height="32" viewBox="0 0 32 32" fill="none" xmlns="http://www.w3.org/2000/svg">
<path d="M6.52632 4.09202L8.68425 4.35516H17.8948V6.5131H8.1316V4.82889L0 3.85513V28.6709L8.1316 26.7498V7.03938H9.76319V9.24988C9.44743 9.35517 9.21054 9.67093 9.21054 10.0131V20.3288C9.21054 20.7762 9.57897 21.1446 10.0263 21.1446C10.4737 21.1446 10.8421 20.7762 10.8421 20.3288V10.0394C10.8421 9.6973 10.6053 9.38148 10.2895 9.27624V7.06569H12.4474V9.27624C12.1316 9.38148 11.8947 9.6973 11.8947 10.0394V21.9604C11.8947 22.4078 12.2631 22.7762 12.7105 22.7762C13.1579 22.7762 13.5263 22.4078 13.5263 21.9604V10.0394C13.5263 9.6973 13.2895 9.38148 12.9736 9.27624V7.06569H15.1316V9.27624C14.8158 9.38148 14.5789 9.6973 14.5789 10.0394V21.9604C14.5789 22.4078 14.9473 22.7762 15.3947 22.7762C15.8421 22.7762 16.2105 22.4078 16.2105 21.9604V10.0394C16.2105 9.6973 15.9737 9.38148 15.6579 9.27624V7.06569H17.8158V27.1183H8.60527L6.44739 27.6973V30.9078H8.07898V29.2762H17.8421V30.9078H19.4738V29.2762H29.237V30.9078H30.8685V2.69727H6.52632V4.09202ZM19.5264 4.32886H28.7369V27.092H19.5264V4.32886Z" fill="#C9FEFF"/>
<path d="M20.0789 26.5658H28.2105V4.88159H20.0789V26.5658ZM21.6316 14.4079C22 14.4079 22.3157 14.7237 22.3157 15.0921C22.3157 15.4606 22 15.7763 21.6316 15.7763C21.2631 15.7763 20.9473 15.4606 20.9473 15.0921C20.9473 14.6974 21.263 14.4079 21.6316 14.4079Z" fill="#C9FEFF"/>
<path d="M6.52639 2.17103H30.9211L32.0001 1.09204H5.42114L6.52639 2.17103Z" fill="#C9FEFF"/>
</svg>
