<svg width="24" height="24" viewBox="0 0 24 24" fill="none" xmlns="http://www.w3.org/2000/svg">
<g clip-path="url(#clip0_184_317)">
<path d="M23.2925 9.14056H21.9906C22.1162 8.56245 22.2418 7.98435 22.3676 7.40624H22.5038C22.8921 7.40624 23.2069 7.09143 23.2069 6.70312C23.2069 6.31481 22.8921 6 22.5038 6H1.50414C1.11583 6 0.801021 6.31481 0.801021 6.70312C0.801021 7.09143 1.11583 7.40624 1.50414 7.40624H1.64022C1.76533 7.98439 1.89067 8.56245 2.01601 9.14056H0.707271C0.318961 9.14056 0.00415039 9.45537 0.00415039 9.84368C0.00415039 10.232 0.318961 10.5468 0.707271 10.5468H2.32145C3.13735 14.1657 6.28621 16.6874 10.0026 16.6874H14.0031C17.7193 16.6874 20.8684 14.1656 21.6842 10.5468H23.2925C23.6809 10.5468 23.9957 10.232 23.9957 9.84368C23.9957 9.45537 23.6809 9.14056 23.2925 9.14056Z" fill="#C9FEFF"/>
<path d="M17.7838 17.3032C17.3559 17.492 16.9112 17.6492 16.4528 17.7724L17.2536 19.5469H12.7058V18.0938H11.2996V19.5469H6.75433L7.55495 17.773C7.09643 17.6499 6.65173 17.4928 6.22371 17.3041L3.64959 23.0076C3.48984 23.3615 3.64724 23.778 4.00119 23.9377C4.09508 23.9801 4.19333 24.0002 4.29004 24.0002C4.55793 24.0002 4.81396 23.8462 4.93133 23.5861L6.11965 20.9531H11.2996V23.2966C11.2996 23.6849 11.6144 23.9997 12.0027 23.9997C12.391 23.9997 12.7058 23.6849 12.7058 23.2966V20.9531H17.8883L19.0766 23.5861C19.194 23.8461 19.45 24.0001 19.7179 24.0001C19.8146 24.0001 19.9129 23.9801 20.0068 23.9377C20.3607 23.7779 20.5182 23.3615 20.3584 23.0076L17.7838 17.3032Z" fill="#C9FEFF"/>
<path d="M12.0042 4.59361C12.3925 4.59361 12.7073 4.2788 12.7073 3.89048V0.703125C12.7073 0.314812 12.3925 0 12.0042 0C11.6158 0 11.301 0.314812 11.301 0.703125V3.89048C11.301 4.2788 11.6158 4.59361 12.0042 4.59361Z" fill="#C9FEFF"/>
<path d="M9.19165 4.59361C9.57996 4.59361 9.89478 4.2788 9.89478 3.89048V1.875C9.89478 1.48669 9.57996 1.17188 9.19165 1.17188C8.80334 1.17188 8.48853 1.48669 8.48853 1.875V3.89048C8.48853 4.2788 8.80334 4.59361 9.19165 4.59361Z" fill="#C9FEFF"/>
<path d="M6.37915 4.59361C6.76746 4.59361 7.08228 4.2788 7.08228 3.89048V2.8125C7.08228 2.42419 6.76746 2.10938 6.37915 2.10938C5.99084 2.10938 5.67603 2.42419 5.67603 2.8125V3.89048C5.67603 4.2788 5.99084 4.59361 6.37915 4.59361Z" fill="#C9FEFF"/>
<path d="M14.8167 4.59361C15.205 4.59361 15.5198 4.2788 15.5198 3.89048V1.875C15.5198 1.48669 15.205 1.17188 14.8167 1.17188C14.4283 1.17188 14.1135 1.48669 14.1135 1.875V3.89048C14.1135 4.2788 14.4283 4.59361 14.8167 4.59361Z" fill="#C9FEFF"/>
<path d="M17.6292 4.59361C18.0175 4.59361 18.3323 4.2788 18.3323 3.89048V2.8125C18.3323 2.42419 18.0175 2.10938 17.6292 2.10938C17.2408 2.10938 16.926 2.42419 16.926 2.8125V3.89048C16.926 4.2788 17.2408 4.59361 17.6292 4.59361Z" fill="#C9FEFF"/>
</g>
<defs>
<clipPath id="clip0_184_317">
<rect width="24" height="24" fill="white"/>
</clipPath>
</defs>
</svg>
