<svg width="32" height="32" viewBox="0 0 32 32" fill="none" xmlns="http://www.w3.org/2000/svg">
<path fill-rule="evenodd" clip-rule="evenodd" d="M24.1165 15.4366L8.59758 23.1364L17.3213 10.6778L24.1165 15.4366ZM15.5311 9.42513L6.80884 21.8837L8.73595 4.66633L15.5311 9.42513ZM25.2104 13.5343L18.5755 8.88909L23.2206 2.25416L25.2104 13.5343ZM16.7853 7.63493L10.1503 2.98975L21.4305 1L16.7853 7.63493Z" fill="#C9FEFF"/>
<path fill-rule="evenodd" clip-rule="evenodd" d="M6.80595 21.8997C6.09512 23.0402 5.8271 24.4065 6.06162 25.7379C6.31361 27.1639 7.12058 28.4312 8.30773 29.2614C8.70248 29.5382 9.10596 29.8208 9.50217 30.099C11.9741 31.8295 15.3797 31.2279 17.1101 28.7575L19.1989 25.7743C20.0059 24.6206 21.5965 24.341 22.7487 25.1479C23.9024 25.9549 24.182 27.5455 23.3751 28.6977C23.0299 29.1915 23.1493 29.8732 23.6431 30.2199C24.1369 30.5651 24.8186 30.4457 25.1653 29.9519C26.6641 27.8092 26.1441 24.8581 24.0029 23.3577C21.8602 21.8589 18.9091 22.3789 17.4087 24.5201L15.3199 27.5033C14.2828 28.9861 12.2392 29.3474 10.7563 28.3088L9.56043 27.4713C8.8496 26.9731 8.36454 26.2127 8.21305 25.3577C8.07759 24.5871 8.22325 23.7962 8.61654 23.1276L8.34852 23.2601C7.99019 23.4379 7.5634 23.4058 7.23566 23.1771C6.90937 22.947 6.73312 22.5581 6.77682 22.1604L6.80595 21.8997Z" fill="#C9FEFF"/>
</svg>
