<svg width="24" height="24" viewBox="0 0 24 24" fill="none" xmlns="http://www.w3.org/2000/svg">
<g clip-path="url(#clip0_184_329)">
<path d="M24 4V3C24 2.20435 23.6839 1.44129 23.1213 0.87868C22.5587 0.31607 21.7956 0 21 0C20.2044 0 19.4413 0.31607 18.8787 0.87868C18.3161 1.44129 18 2.20435 18 3V6H13V3C13 2.73478 13.1054 2.48043 13.2929 2.29289C13.4804 2.10536 13.7348 2 14 2C14.2652 2 14.5196 2.10536 14.7071 2.29289C14.8946 2.48043 15 2.73478 15 3V4H17V3C17 2.20435 16.6839 1.44129 16.1213 0.87868C15.5587 0.316071 14.7956 6.32203e-08 14 6.32203e-08C13.2044 6.32203e-08 12.4413 0.316071 11.8787 0.87868C11.3161 1.44129 11 2.20435 11 3V14.15C10.5414 14.0434 10.0715 13.993 9.60075 14C7.20075 14 7.20075 15 4.80075 15C2.40075 15 2.4 14 0 14V18C2.4 18 2.4 19 4.8 19C7.2 19 7.2 18 9.6 18C12 18 12 19 14.4 19C16.8 19 16.8 18 19.2 18C21.6 18 21.6 19 24 19V15C21.9014 15 21.6375 14.2354 20 14.0434V3C20 2.73478 20.1054 2.48043 20.2929 2.29289C20.4804 2.10536 20.7348 2 21 2C21.2652 2 21.5196 2.10536 21.7071 2.29289C21.8946 2.48043 22 2.73478 22 3V4H24ZM18 8V10H13V8H18ZM13 14.85V12H18V14.1066C16.7033 14.364 16.315 15 14.4 15C13.929 15.007 13.4588 14.9567 13 14.85Z" fill="#C9FEFF"/>
<path d="M14.4 20C12 20 12 19 9.6 19C7.2 19 7.2 20 4.8 20C2.4 20 2.4 19 0 19V24H24V20C21.6 20 21.6 19 19.2 19C16.8 19 16.8 20 14.4 20Z" fill="#C9FEFF"/>
</g>
<defs>
<clipPath id="clip0_184_329">
<rect width="24" height="24" fill="white"/>
</clipPath>
</defs>
</svg>
