<svg width="24" height="24" viewBox="0 0 24 24" fill="none" xmlns="http://www.w3.org/2000/svg">
<path d="M21.75 22.5H2.25C2.05109 22.5 1.86032 22.421 1.71967 22.2803C1.57902 22.1397 1.5 21.9489 1.5 21.75C1.5 21.5511 1.57902 21.3603 1.71967 21.2197C1.86032 21.079 2.05109 21 2.25 21H21.75C21.9489 21 22.1397 21.079 22.2803 21.2197C22.421 21.3603 22.5 21.5511 22.5 21.75C22.5 21.9489 22.421 22.1397 22.2803 22.2803C22.1397 22.421 21.9489 22.5 21.75 22.5Z" fill="#C9FEFF"/>
<path d="M20.25 20.25V18.75C20.2501 18.6515 20.2307 18.5539 20.193 18.4629C20.1554 18.3719 20.1001 18.2892 20.0305 18.2195C19.9608 18.1499 19.8781 18.0946 19.7871 18.057C19.6961 18.0193 19.5985 17.9999 19.5 18H4.5C4.40149 17.9999 4.30394 18.0193 4.21292 18.057C4.1219 18.0946 4.0392 18.1499 3.96954 18.2195C3.89989 18.2892 3.84464 18.3719 3.80697 18.4629C3.7693 18.5539 3.74994 18.6515 3.75 18.75V20.25H20.25Z" fill="#C9FEFF"/>
<path d="M18.75 17.25V15.75C18.7501 15.6515 18.7307 15.5539 18.693 15.4629C18.6554 15.3719 18.6001 15.2892 18.5305 15.2195C18.4608 15.1499 18.3781 15.0946 18.2871 15.057C18.1961 15.0193 18.0985 14.9999 18 15H6C5.90149 14.9999 5.80394 15.0193 5.71292 15.057C5.6219 15.0946 5.5392 15.1499 5.46954 15.2195C5.39989 15.2892 5.34464 15.3719 5.30697 15.4629C5.2693 15.5539 5.24994 15.6515 5.25 15.75V17.25H18.75Z" fill="#C9FEFF"/>
<path d="M16.5 1.5H7.5C7.40149 1.49994 7.30394 1.5193 7.21292 1.55697C7.1219 1.59464 7.0392 1.64989 6.96954 1.71954C6.89989 1.7892 6.84464 1.8719 6.80697 1.96292C6.7693 2.05394 6.74994 2.15149 6.75 2.25V14.25H17.25V2.25C17.2501 2.15149 17.2307 2.05394 17.193 1.96292C17.1554 1.8719 17.1001 1.7892 17.0305 1.71954C16.9608 1.64989 16.8781 1.59464 16.7871 1.55697C16.6961 1.5193 16.5985 1.49994 16.5 1.5ZM10.4963 9C10.3473 9 10.2016 8.9558 10.0776 8.87299C9.95369 8.79017 9.85709 8.67247 9.80005 8.53475C9.74301 8.39704 9.72808 8.2455 9.75716 8.09931C9.78624 7.95311 9.85802 7.81882 9.96342 7.71342C10.0688 7.60802 10.2031 7.53624 10.3493 7.50716C10.4955 7.47808 10.647 7.49301 10.7848 7.55005C10.9225 7.60709 11.0402 7.70369 11.123 7.82763C11.2058 7.95157 11.25 8.09728 11.25 8.24634C11.2494 8.44605 11.1698 8.63741 11.0286 8.77863C10.8874 8.91984 10.696 8.99943 10.4963 9Z" fill="#C9FEFF"/>
</svg>
