<svg width="32" height="32" viewBox="0 0 32 32" fill="none" xmlns="http://www.w3.org/2000/svg">
<path fill-rule="evenodd" clip-rule="evenodd" d="M5 0C2.23858 0 0 2.23858 0 5V27C0 29.7614 2.23858 32 5 32H27C29.7614 32 32 29.7614 32 27V5C32 2.23858 29.7614 0 27 0H5ZM23.7214 12.6925C24.1039 12.2941 24.0909 11.6611 23.6925 11.2786C23.2941 10.8961 22.6611 10.9091 22.2786 11.3075L15.32 18.556L11.7214 14.8075C11.3389 14.4091 10.7059 14.3961 10.3075 14.7786C9.90906 15.1611 9.89614 15.7941 10.2786 16.1925L14.5986 20.6925C14.7872 20.889 15.0477 21 15.32 21C15.5923 21 15.8528 20.889 16.0414 20.6925L23.7214 12.6925Z" fill="#C9FEFF"/>
</svg>
