<svg width="22" height="18" viewBox="0 0 22 18" fill="none" xmlns="http://www.w3.org/2000/svg">
<path d="M20.75 3H11.375L9.35 0.3C9.28014 0.206853 9.18955 0.13125 9.08541 0.0791795C8.98127 0.0271087 8.86643 0 8.75 0H1.25C1.05109 0 0.860322 0.0790178 0.71967 0.21967C0.579018 0.360322 0.5 0.551088 0.5 0.75V17.25C0.5 17.4489 0.579018 17.6397 0.71967 17.7803C0.860322 17.921 1.05109 18 1.25 18H20.75C20.9489 18 21.1397 17.921 21.2803 17.7803C21.421 17.6397 21.5 17.4489 21.5 17.25V3.75C21.5 3.55109 21.421 3.36032 21.2803 3.21967C21.1397 3.07902 20.9489 3 20.75 3ZM20 16.5H2V11.25H9.1925L6.7175 13.7175C6.6472 13.7872 6.59141 13.8702 6.55333 13.9616C6.51525 14.053 6.49565 14.151 6.49565 14.25C6.49565 14.349 6.51525 14.447 6.55333 14.5384C6.59141 14.6298 6.6472 14.7128 6.7175 14.7825C6.78722 14.8528 6.87017 14.9086 6.96157 14.9467C7.05296 14.9847 7.15099 15.0043 7.25 15.0043C7.34901 15.0043 7.44704 14.9847 7.53843 14.9467C7.62983 14.9086 7.71278 14.8528 7.7825 14.7825L11.5325 11.0325C11.6008 10.9612 11.6543 10.8771 11.69 10.785C11.765 10.6024 11.765 10.3976 11.69 10.215C11.6543 10.1229 11.6008 10.0388 11.5325 9.9675L7.7825 6.2175C7.64127 6.07627 7.44973 5.99693 7.25 5.99693C7.05027 5.99693 6.85873 6.07627 6.7175 6.2175C6.57627 6.35873 6.49693 6.55027 6.49693 6.75C6.49693 6.94973 6.57627 7.14127 6.7175 7.2825L9.1925 9.75H2V1.5H8.375L10.4 4.2C10.4699 4.29315 10.5604 4.36875 10.6646 4.42082C10.7687 4.47289 10.8836 4.5 11 4.5H20V16.5Z" fill="#C9FEFF"/>
</svg>
