<svg width="40" height="40" viewBox="0 0 40 40" fill="none" xmlns="http://www.w3.org/2000/svg">
<path fill-rule="evenodd" clip-rule="evenodd" d="M11.6667 6.66671C8.90529 6.66671 6.66671 8.90529 6.66671 11.6667V28.3334C6.66671 31.0949 8.90529 33.3334 11.6667 33.3334H28.3334C31.0949 33.3334 33.3334 31.0949 33.3334 28.3334V18.3334C33.3334 17.4129 34.0795 16.6667 35 16.6667C35.9205 16.6667 36.6667 17.4129 36.6667 18.3334V28.3334C36.6667 32.9357 32.9357 36.6667 28.3334 36.6667H11.6667C7.06434 36.6667 3.33337 32.9357 3.33337 28.3334V11.6667C3.33337 7.06434 7.06434 3.33337 11.6667 3.33337H21.6667C22.5872 3.33337 23.3334 4.07957 23.3334 5.00004C23.3334 5.92051 22.5872 6.66671 21.6667 6.66671H11.6667Z" fill="#C9FEFF"/>
<path fill-rule="evenodd" clip-rule="evenodd" d="M28.6927 4.70151C29.5687 3.82551 30.7569 3.33337 31.9957 3.33337C33.2345 3.33337 34.4225 3.82551 35.2985 4.70151C36.1745 5.57751 36.6667 6.76561 36.6667 8.00446C36.6667 9.24331 36.1745 10.4314 35.2985 11.3074L33.9934 12.6127C33.3425 13.2635 32.2872 13.2635 31.6364 12.6127L27.3874 8.36377C26.7365 7.71289 26.7365 6.65762 27.3874 6.00674L28.6927 4.70151ZM25.0304 10.7208C24.3795 10.0699 23.3242 10.0699 22.6734 10.7208L15.2379 18.1564C15.0243 18.3699 14.8727 18.6375 14.7995 18.9305L13.3832 24.5959C13.2412 25.1637 13.4076 25.7645 13.8216 26.1785C14.2355 26.5925 14.8363 26.7589 15.4043 26.6169L21.0695 25.2007C21.3625 25.1274 21.6302 24.9759 21.8437 24.7622L29.2794 17.3267C29.9302 16.6759 29.9302 15.6206 29.2794 14.9697L25.0304 10.7208Z" fill="#C9FEFF"/>
</svg>
