<svg width="24" height="24" viewBox="0 0 24 24" fill="none" xmlns="http://www.w3.org/2000/svg">
<path fill-rule="evenodd" clip-rule="evenodd" d="M4.44476 13.5264C2.54228 13.5264 1 15.0686 1 16.9711C1 18.8736 2.54228 20.4159 4.44476 20.4159C6.34725 20.4159 7.88952 18.8736 7.88952 16.9711C7.88952 15.0686 6.34725 13.5264 4.44476 13.5264Z" fill="#C9FEFF"/>
<path fill-rule="evenodd" clip-rule="evenodd" d="M14.466 9.35107C12.5635 9.35107 11.0212 10.8934 11.0212 12.7958C11.0212 14.6983 12.5635 16.2405 14.466 16.2405C16.3685 16.2405 17.9108 14.6983 17.9108 12.7958C17.9108 10.8934 16.3685 9.35107 14.466 9.35107Z" fill="#C9FEFF"/>
<path fill-rule="evenodd" clip-rule="evenodd" d="M16.6675 16.5389C14.8298 16.0465 12.9408 17.137 12.4486 18.9748C11.9561 20.8124 13.0467 22.7013 14.8843 23.1937C16.7219 23.6861 18.6109 22.5955 19.1032 20.7579C19.5956 18.9202 18.5051 17.0313 16.6675 16.5389Z" fill="#C9FEFF"/>
<path fill-rule="evenodd" clip-rule="evenodd" d="M16.0316 3.36093V12.7957C16.0316 13.3146 16.4523 13.7352 16.9711 13.7352C17.4899 13.7352 17.9106 13.3146 17.9106 12.7957V1.93948C17.9106 1.62404 17.7522 1.32966 17.4891 1.15572C17.226 0.981789 16.8931 0.951538 16.6028 1.07517L6.58175 5.34453C6.23533 5.49212 6.0105 5.83229 6.0105 6.20884V16.9712C6.0105 17.49 6.43112 17.9106 6.94998 17.9106C7.46883 17.9106 7.88946 17.49 7.88946 16.9712V6.82978L16.0316 3.36093Z" fill="#C9FEFF"/>
<path fill-rule="evenodd" clip-rule="evenodd" d="M20.0844 11.6236C20.4049 11.5346 20.7486 11.6218 20.988 11.8528L23.4609 14.2392C23.8343 14.5996 23.8449 15.1944 23.4845 15.5676C23.1243 15.9411 22.5295 15.9516 22.1561 15.5913L20.8304 14.312L19.1033 20.7577C18.969 21.2589 18.4538 21.5564 17.9526 21.4221C17.4514 21.2878 17.1541 20.7726 17.2883 20.2714L19.4281 12.2857C19.5142 11.9644 19.7638 11.7125 20.0844 11.6236Z" fill="#C9FEFF"/>
</svg>
