<svg width="24" height="24" viewBox="0 0 24 24" fill="none" xmlns="http://www.w3.org/2000/svg">
<path d="M14.1314 16.2768H10.0094C9.85795 16.2768 9.72978 16.3841 9.71306 16.5345C9.60466 17.5103 9.41534 20.9229 12.0702 20.9229C14.7247 20.9229 14.5359 17.5105 14.4277 16.5346C14.411 16.3841 14.2828 16.2768 14.1314 16.2768Z" fill="#C9FEFF"/>
<path d="M9.44141 14.5198C9.44141 14.358 9.57252 14.2269 9.73426 14.2269H14.2736C14.4353 14.2269 14.5664 14.358 14.5664 14.5198V15.3984C14.5664 15.5601 14.4353 15.6912 14.2736 15.6912H9.73426C9.57252 15.6912 9.44141 15.5601 9.44141 15.3984V14.5198Z" fill="#C9FEFF" fill-opacity="0.996078"/>
<path fill-rule="evenodd" clip-rule="evenodd" d="M7.7393 2.82595C6.23098 3.47237 5.54016 5.22548 6.20205 6.72708L8.92446 12.9033C9.08431 13.2659 9.44321 13.5 9.83951 13.5H11.6V8.39995H11C10.779 8.39995 10.6 8.22087 10.6 7.99995C10.6 7.77904 10.779 7.59995 11 7.59995H12H13C13.2209 7.59995 13.4 7.77904 13.4 7.99995C13.4 8.22087 13.2209 8.39995 13 8.39995H12.4V13.5H14.1604C14.5567 13.5 14.9156 13.2659 15.0755 12.9033L17.7979 6.72708C18.4598 5.22548 17.7689 3.47237 16.2606 2.82595C13.5399 1.6599 10.4601 1.6599 7.7393 2.82595Z" fill="#C9FEFF"/>
</svg>
