<svg width="24" height="24" viewBox="0 0 24 24" fill="none" xmlns="http://www.w3.org/2000/svg">
<g clip-path="url(#clip0_184_236)">
<path d="M8.29101 10.299V19.1306C8.29101 19.5233 8.04338 19.8726 7.67378 20.0019C7.15079 20.1858 6.5197 20.2828 5.84795 20.2828C3.91586 20.2828 1.83779 19.49 1.83779 17.7492V6.44868C1.79436 5.67252 2.06509 4.3013 3.36516 3.55933C3.96853 3.21467 7.13693 1.17725 8.72806 0.147915C9.01173 -0.0359613 9.37394 -0.0488973 9.67147 0.111879C9.96899 0.274503 10.1538 0.585891 10.1538 0.924076V2.26203C10.1538 2.77208 9.73984 3.18603 9.22979 3.18603C8.83247 3.18603 8.49337 2.93563 8.36308 2.58266C6.92534 3.50666 4.80753 4.86309 4.28177 5.16339C3.80868 5.43412 3.70612 5.93124 3.68579 6.20105C3.68579 6.50412 3.75139 6.74251 3.86966 6.87279C4.19769 7.23038 5.29078 7.0077 6.48366 6.2916C7.62942 5.60414 13.2806 1.84161 13.337 1.80372C13.6225 1.6143 13.9866 1.59675 14.285 1.75845C14.5862 1.91922 14.7738 2.23246 14.7738 2.57342V2.67875C14.7738 2.98737 14.6195 3.27566 14.3635 3.44752C14.3635 3.44752 10.4402 6.06614 10.0928 6.28883C8.76317 7.14445 8.29101 8.19411 8.29101 10.299ZM22.1658 5.83976V17.8351C22.1658 18.1521 22.0023 18.4478 21.7334 18.6168C21.7334 18.6168 16.3464 22.8007 15.2534 23.4651C14.6786 23.8153 13.9468 24.0001 13.1383 24.0001C11.2173 24.0001 9.22979 22.9606 9.22979 21.2225V10.0273V9.7566C9.22979 9.7529 9.23257 9.74921 9.23257 9.74459C9.25105 9.06822 9.40905 8.10264 10.6666 7.17494C11.4206 6.61869 15.9112 3.55655 16.1016 3.42719C16.3853 3.235 16.7521 3.21467 17.0533 3.3736C17.3564 3.53345 17.5458 3.84761 17.5458 4.19042V5.52837C17.5458 6.03842 17.1328 6.45237 16.6218 6.45237C16.2402 6.45237 15.9122 6.22137 15.7717 5.89058C14.3386 6.87095 12.2346 8.31516 11.7634 8.66166C11.1683 9.10148 11.0889 9.39162 11.0787 9.76399C11.0806 10.0403 11.1554 10.2509 11.3069 10.3895C11.7782 10.821 13.0468 10.6399 14.2979 9.88966C15.2238 9.33341 19.2136 6.25279 20.6717 5.11257C20.9517 4.89636 21.3287 4.85662 21.6465 5.01093C21.9644 5.16524 22.1658 5.48587 22.1658 5.83976ZM20.3178 9.95711L15.6978 13.5413V15.3893L20.3178 11.8051V9.95711Z" fill="#C9FEFF"/>
</g>
<defs>
<clipPath id="clip0_184_236">
<rect width="24" height="24" fill="white"/>
</clipPath>
</defs>
</svg>
