<svg width="24" height="24" viewBox="0 0 24 24" fill="none" xmlns="http://www.w3.org/2000/svg">
<g clip-path="url(#clip0_184_309)">
<path d="M23.0086 6.7195L13.312 0.384955C12.5131 -0.132129 11.4837 -0.126842 10.6896 0.396058L0.982857 6.72479C0.380121 7.12185 0.213575 7.93237 0.610112 8.53511C1.00718 9.13785 1.81717 9.30492 2.42044 8.90733L12.0098 2.65473L21.5874 8.91261C21.8074 9.05484 22.0532 9.12198 22.2965 9.12198C22.7258 9.12198 23.1445 8.91208 23.3946 8.52612C23.7869 7.92021 23.6135 7.11234 23.0086 6.7195Z" fill="#C9FEFF"/>
<path d="M20.556 14.6011C20.4761 14.1438 20.0786 13.8054 19.6149 13.8054H19.0819L18.8794 11.6974C18.6632 9.44294 16.7921 7.7373 14.527 7.7373H9.47463C7.20908 7.7373 5.33848 9.44347 5.12171 11.6974L4.91974 13.8054H4.38627C3.92205 13.8054 3.52499 14.1438 3.4441 14.6011L2.65102 19.0973C2.55268 19.6546 2.71024 20.2282 3.07399 20.6607C3.424 21.0773 3.9395 21.3258 4.47879 21.3443V22.0909C4.47879 23.1478 5.3258 23.9995 6.38376 23.9995H6.98543C8.04234 23.9995 8.90203 23.1478 8.90203 22.0909V21.3565H15.1049V22.0893C15.1049 23.1467 15.9577 23.9995 17.0146 23.9995H17.6169C18.6738 23.9995 19.5276 23.1467 19.5276 22.0893V21.3443C20.0669 21.3258 20.5792 21.0794 20.9282 20.6634C21.292 20.2298 21.4474 19.6593 21.3501 19.101L20.556 14.6011ZM6.15535 19.6223C5.26341 19.6223 4.54012 18.8996 4.54012 18.0066C4.54012 17.1136 5.26341 16.3903 6.15535 16.3903C7.04782 16.3903 7.77163 17.113 7.77163 18.0066C7.77163 18.8996 7.04782 19.6223 6.15535 19.6223ZM6.55823 13.8054L6.74487 11.8608C6.88075 10.447 8.05397 9.38214 9.47463 9.38214H9.76595V9.99333C9.76595 10.5236 10.1873 10.9461 10.7171 10.9461H13.2846C13.8143 10.9461 14.2431 10.5236 14.2431 9.99333V9.38267H14.527C15.9477 9.38267 17.1209 10.4475 17.2563 11.8613L17.4434 13.8059L6.55823 13.8054ZM17.8442 19.6223C16.9523 19.6223 16.229 18.8996 16.229 18.0066C16.229 17.1136 16.9523 16.3903 17.8442 16.3903C18.7367 16.3903 19.4605 17.113 19.4605 18.0066C19.4605 18.8996 18.7367 19.6223 17.8442 19.6223Z" fill="#C9FEFF"/>
</g>
<defs>
<clipPath id="clip0_184_309">
<rect width="24" height="24" fill="white"/>
</clipPath>
</defs>
</svg>
