<svg width="24" height="24" viewBox="0 0 24 24" fill="none" xmlns="http://www.w3.org/2000/svg">
<path d="M0.703125 18.3281H17.6719C18.0605 18.3281 18.375 18.0136 18.375 17.625V4.96875C18.375 4.58011 18.0605 4.26562 17.6719 4.26562H0.703125C0.314484 4.26562 0 4.58011 0 4.96875V17.625C0 18.0136 0.314484 18.3281 0.703125 18.3281Z" fill="#C9FEFF"/>
<path d="M7.07812 19.7344V20.4375C7.07812 20.8254 6.76294 21.1406 6.375 21.1406H4.96875C4.58011 21.1406 4.26562 21.4551 4.26562 21.8438C4.26562 22.2324 4.58011 22.5469 4.96875 22.5469H13.4531C13.8418 22.5469 14.1562 22.2324 14.1562 21.8438C14.1562 21.4551 13.8418 21.1406 13.4531 21.1406H12C11.6121 21.1406 11.2969 20.8254 11.2969 20.4375V19.7344H7.07812Z" fill="#C9FEFF"/>
<path d="M23.2969 1.45312H16.2656C15.877 1.45312 15.5625 1.76761 15.5625 2.15625V2.85938H17.6719C18.835 2.85938 19.7812 3.80559 19.7812 4.96875V17.625C19.7812 18.7882 18.835 19.7344 17.6719 19.7344H15.5625V21.8438C15.5625 22.2324 15.877 22.5469 16.2656 22.5469H23.2969C23.6855 22.5469 24 22.2324 24 21.8438V2.15625C24 1.76761 23.6855 1.45312 23.2969 1.45312ZM21.8906 19.0312C21.5023 19.0312 21.1875 18.7164 21.1875 18.3281C21.1875 17.9397 21.5023 17.625 21.8906 17.625C22.2789 17.625 22.5938 17.9397 22.5938 18.3281C22.5938 18.7164 22.2789 19.0312 21.8906 19.0312ZM21.8906 16.2188C21.5023 16.2188 21.1875 15.9039 21.1875 15.5156C21.1875 15.1272 21.5023 14.8125 21.8906 14.8125C22.2789 14.8125 22.5938 15.1272 22.5938 15.5156C22.5938 15.9039 22.2789 16.2188 21.8906 16.2188Z" fill="#C9FEFF"/>
</svg>
