<svg width="24" height="24" viewBox="0 0 24 24" fill="none" xmlns="http://www.w3.org/2000/svg">
<g clip-path="url(#clip0_184_290)">
<path d="M9.3501 7.03217V12.3534H14.6498V7.03217C13.5135 6.23389 12.5948 5.14686 11.9999 3.87842C11.4051 5.14686 10.4863 6.23389 9.3501 7.03217Z" fill="#C9FEFF"/>
<path d="M18.4749 12.3534V8.44305C17.6583 8.36664 16.8769 8.16648 16.1499 7.86133V12.3534H18.4749Z" fill="#C9FEFF"/>
<path d="M7.85015 7.86133C7.12312 8.16648 6.34171 8.36664 5.52515 8.44305V12.3534H7.85015V7.86133Z" fill="#C9FEFF"/>
<path d="M11.25 0.503359V0.0214844C8.20894 0.390953 5.97965 2.75748 5.58989 5.53727C5.51433 6.06119 5.5252 6.42442 5.5252 6.93508C8.74317 6.56242 11.25 3.82023 11.25 0.503359Z" fill="#C9FEFF"/>
<path d="M18.4748 6.93508C18.4748 6.23355 18.492 5.67784 18.2564 4.78352C17.613 2.32141 15.4554 0.334141 12.75 0.0214844V0.503359C12.75 3.82023 15.2569 6.56242 18.4748 6.93508Z" fill="#C9FEFF"/>
<path d="M22.125 13.8535C18.2039 13.8535 6.25636 13.8535 1.875 13.8535C0.840937 13.8535 0 14.6945 0 15.7285C0 16.7626 0.840937 17.6035 1.875 17.6035C2.28938 17.6035 2.625 17.2679 2.625 16.8535C2.625 16.4391 2.28938 16.1035 1.875 16.1035C1.66828 16.1035 1.5 15.9352 1.5 15.7285C1.5 15.5218 1.66828 15.3535 1.875 15.3535H3.75V18.1801C2.75231 18.7582 2.74927 20.197 3.75 20.777V22.4785H3C2.58562 22.4785 2.25 22.8141 2.25 23.2285C2.25 23.6429 2.58562 23.9785 3 23.9785H21C21.4144 23.9785 21.75 23.6429 21.75 23.2285C21.75 22.8141 21.4144 22.4785 21 22.4785H20.25V20.777C21.2478 20.1987 21.2506 18.7599 20.25 18.1801V15.3535H22.125C22.3317 15.3535 22.5 15.5218 22.5 15.7285C22.5 15.9352 22.3317 16.1035 22.125 16.1035C21.7106 16.1035 21.375 16.4391 21.375 16.8535C21.375 17.2679 21.7106 17.6035 22.125 17.6035C23.1591 17.6035 24 16.7626 24 15.7285C24 14.6945 23.1591 13.8535 22.125 13.8535ZM15 18.1801C14.0023 18.7582 13.9993 20.197 15 20.777V22.4785H12.75V20.777C13.7478 20.1987 13.7506 18.7599 12.75 18.1801C12.75 17.4313 12.75 16.0512 12.75 15.3535H15V18.1801ZM5.25 22.4785V20.777C6.24778 20.1987 6.25059 18.7599 5.25 18.1801C5.25 17.4313 5.25 16.0512 5.25 15.3535H7.5V18.1801C6.50231 18.7582 6.49927 20.197 7.5 20.777V22.4785H5.25ZM9 20.777C9.99778 20.1987 10.0006 18.7599 9 18.1801C9 17.2383 9 16.2969 9 15.3535H11.25V18.1801C10.2523 18.7582 10.2493 20.197 11.25 20.777V22.4785H9V20.777ZM16.5 22.4785V20.777C17.4978 20.1987 17.5006 18.7599 16.5 18.1801C16.5 17.4313 16.5 16.0512 16.5 15.3535H18.75V18.1801C17.7523 18.7582 17.7493 20.197 18.75 20.777V22.4785H16.5Z" fill="#C9FEFF"/>
</g>
<defs>
<clipPath id="clip0_184_290">
<rect width="24" height="24" fill="white"/>
</clipPath>
</defs>
</svg>
