<svg width="24" height="24" viewBox="0 0 24 24" fill="none" xmlns="http://www.w3.org/2000/svg">
<g clip-path="url(#clip0_184_95)">
<path d="M17.6232 18.1499H5.48383V22.488C5.48383 22.5095 5.48291 22.5307 5.48218 22.5519H17.6248C17.6241 22.5307 17.6232 22.5095 17.6232 22.488V18.1499Z" fill="#C9FEFF"/>
<path d="M0.701842 7.12902H13.5163C13.9039 7.12902 14.2181 6.81481 14.2181 6.42718V1.68622C14.2181 1.29858 13.9039 0.984375 13.5163 0.984375H0.701842C0.314209 0.984375 0 1.29858 0 1.68622V6.42718C0 6.81481 0.314209 7.12902 0.701842 7.12902Z" fill="#C9FEFF"/>
<path d="M21.1144 11.5306V13.7478H21.5134V8.05254H23.2981C23.5132 8.05254 23.7165 7.95385 23.8496 7.78484C23.9827 7.61565 24.0309 7.39483 23.9803 7.18572L22.907 2.74927C22.8308 2.43433 22.549 2.2124 22.2249 2.2124H19.3981C19.0742 2.2124 18.7922 2.43433 18.7161 2.74927L17.6427 7.18572C17.5922 7.39483 17.6403 7.61565 17.7734 7.78484C17.9065 7.95385 18.1098 8.05254 18.3249 8.05254H20.1097V9.73656C20.7119 10.1075 21.1144 10.7729 21.1144 11.5306Z" fill="#C9FEFF"/>
<path d="M17.6231 16.7461V15.6835C17.6231 14.6162 18.4914 13.7479 19.5588 13.7479H19.7105V11.5307C19.7105 11.1436 19.3958 10.8289 19.0087 10.8289H4.09808C3.71118 10.8289 3.39624 11.1436 3.39624 11.5307V13.7479H3.54803C4.61535 13.7479 5.48364 14.6162 5.48364 15.6835V16.7461H17.6231Z" fill="#C9FEFF"/>
<path d="M4.08001 15.6835C4.08001 15.3904 3.84143 15.1516 3.54809 15.1516H1.04266C0.749328 15.1516 0.510742 15.3904 0.510742 15.6835V22.4881C0.510742 22.7814 0.749328 23.02 1.04266 23.02H3.54809C3.84143 23.02 4.08001 22.7814 4.08001 22.4881V15.6835Z" fill="#C9FEFF"/>
<path d="M22.5963 22.4881V15.6835C22.5963 15.3904 22.3575 15.1516 22.0642 15.1516H19.5588C19.2654 15.1516 19.0269 15.3904 19.0269 15.6835V22.4881C19.0269 22.7814 19.2654 23.02 19.5588 23.02H22.0642C22.3575 23.02 22.5963 22.7814 22.5963 22.4881Z" fill="#C9FEFF"/>
</g>
<defs>
<clipPath id="clip0_184_95">
<rect width="24" height="24" fill="white"/>
</clipPath>
</defs>
</svg>
