<svg width="24" height="24" viewBox="0 0 24 24" fill="none" xmlns="http://www.w3.org/2000/svg">
<path d="M8.79081 11.7198C8.80137 11.667 8.87416 11.6603 8.89417 11.7103C9.58956 13.4476 11.7958 13.9723 13.1988 12.734L14.4351 11.6429C14.4828 11.6009 14.558 11.631 14.5635 11.6944L15.0548 17.4268C15.1968 19.0837 14.1851 20.6222 12.6075 21.1482C11.928 21.3747 11.1963 21.3934 10.5061 21.2017L10.4567 21.1879C8.55573 20.6599 7.38424 18.7546 7.77106 16.82L8.79081 11.7198Z" fill="#C9FEFF"/>
<path opacity="0.2" fill-rule="evenodd" clip-rule="evenodd" d="M7.83092 2.83092C5.66119 5.00065 8.27369 9.68452 9.61668 11.7598C10.0431 12.4188 10.7901 12.7876 11.5457 12.5753C12.5025 12.3065 13.8996 11.6937 15.2968 10.2968C16.6942 8.89963 17.307 7.50233 17.5756 6.54549C17.7878 5.79001 17.4189 5.04318 16.7601 4.61685C14.6849 3.2739 10.0007 0.661098 7.83092 2.83092ZM15.2997 9.54795C17.049 7.80912 17.7883 5.31729 16.2901 4.95551C15.2997 4.71637 13.9948 5.48262 12.2455 7.22145C10.4962 8.96028 10.1592 10.8731 10.3196 11.5413C10.6872 13.0723 13.5504 11.2868 15.2997 9.54795Z" fill="#C9FEFF"/>
</svg>
