<svg width="24" height="24" viewBox="0 0 24 24" fill="none" xmlns="http://www.w3.org/2000/svg">
<path d="M16.941 18.897H15.1061V19.9157H14.1145V19.968C14.1138 22.1952 12.3095 23.9995 10.0822 24C7.85571 23.9995 6.05069 22.1952 6.04999 19.968V19.4384C5.50129 19.2011 5.11737 18.6554 5.11737 18.0194V14.8103C5.11737 13.9564 5.80983 13.2641 6.66357 13.2641C7.5173 13.2641 8.20976 13.9564 8.20976 14.8103V18.0194C8.20976 18.678 7.79713 19.2389 7.21716 19.4618V19.968C7.2202 21.5494 8.50033 22.8303 10.0822 22.8326C11.6641 22.83 12.9452 21.5494 12.9475 19.968V19.9157H11.9554V18.897H10.1205V17.9032H10.6202L8.9573 7.62689H8.17849V5.69467H9.66564V4.44838L11.202 4.07939V3.08679L13.071 2.34182V0H13.991V2.34205L15.8598 3.08679V4.07939L17.3959 4.44838V5.69444H18.8833V7.62666H18.1043L16.4416 17.903H16.941V18.897ZM11.5519 17.9032H13.0708V7.62689H9.88922L11.5519 17.9032ZM17.1721 7.62689H13.9908V17.9032H15.509L17.1721 7.62689Z" fill="#C9FEFF"/>
</svg>
