<svg width="24" height="24" viewBox="0 0 24 24" fill="none" xmlns="http://www.w3.org/2000/svg">
<path fill-rule="evenodd" clip-rule="evenodd" d="M23 14.1147C23 14.2877 22.895 14.4434 22.7345 14.508L7.53419 20.6384C7.42397 20.6829 7.30015 20.679 7.19289 20.6278L1.2414 17.7871C1.09391 17.7167 1 17.5678 1 17.4044V15.8329C1 15.6623 1.10215 15.5084 1.25928 15.4421L16.4546 9.03333C16.5713 8.98415 16.7037 8.98962 16.8159 9.04824L22.7724 12.1616C22.9123 12.2347 23 12.3795 23 12.5374V14.1147ZM22.3974 13.4862L18.1566 11.3658L3.12065 17.5276L7.36146 19.648L22.3974 13.4862Z" fill="#C9FEFF"/>
<path d="M12 12C11.4477 12 11 11.5523 11 11L11 4C11 3.44772 11.4477 3 12 3C12.5523 3 13 3.44772 13 4V11C13 11.5523 12.5523 12 12 12Z" fill="#C9FEFF"/>
</svg>
