<svg width="24" height="24" viewBox="0 0 24 24" fill="none" xmlns="http://www.w3.org/2000/svg">
<path fill-rule="evenodd" clip-rule="evenodd" d="M17.1601 5.60036C14.6186 3.05891 10.3718 3.55114 8.47908 6.60653L7.6113 8.00736C5.486 11.4382 5.8185 15.8486 8.43414 18.922L8.50049 19H3.75217C3.33676 19 3 19.3367 3 19.7521C3 20.1659 3.33411 20.5019 3.74782 20.5043L10.0238 20.5406L14.797 20.5406C16.2599 20.5406 17.6494 19.8999 18.5994 18.7874L20.6644 16.3691C22.5534 14.1569 22.4238 10.8641 20.3668 8.80713L17.1601 5.60036ZM20.8759 12.9033C21.5193 12.2626 20.3147 10.0099 18.1855 7.87164C16.0562 5.73339 13.8086 4.51936 13.1652 5.16002C12.5218 5.80068 13.7264 8.05343 15.8557 10.1917C17.9849 12.3299 20.2326 13.544 20.8759 12.9033Z" fill="#C9FEFF"/>
</svg>
