<svg width="24" height="24" viewBox="0 0 24 24" fill="none" xmlns="http://www.w3.org/2000/svg">
<path fill-rule="evenodd" clip-rule="evenodd" d="M8.82884 2C7.77161 2 6.91455 2.85705 6.91455 3.91428V17.3143C6.91455 18.3715 7.77161 19.2286 8.82884 19.2286H12.6574C13.7146 19.2286 14.5717 18.3715 14.5717 17.3143V3.91429C14.5717 2.85706 13.7146 2 12.6574 2H8.82884ZM10.5516 3.91433C10.1287 3.91433 9.78586 4.25716 9.78586 4.68005V16.5486C9.78586 16.9715 10.1287 17.3143 10.5516 17.3143H12.083C12.5059 17.3143 12.8487 16.9715 12.8487 16.5486V4.68005C12.8487 4.25716 12.5059 3.91433 12.083 3.91433H10.5516Z" fill="#C9FEFF"/>
<path d="M11.7 15.3999C18.4 15.3999 18.4 16.8356 18.4 16.8356C18.4 16.8356 18.4 16.8356 18.4 16.8356V18.2713V19.707C18.4 19.707 18.4 19.707 18.4 19.707C18.4 19.707 18.4 21.1428 11.7 21.1428C5 21.1428 5 19.707 5 19.707C5 19.707 5 19.707 5 19.707V18.2713V16.8356C5 16.8356 5 16.8356 5 16.8356C5 16.8356 5 15.3999 11.7 15.3999Z" fill="#C9FEFF"/>
</svg>
