<svg width="24" height="24" viewBox="0 0 24 24" fill="none" xmlns="http://www.w3.org/2000/svg">
<path d="M5.14137 17.1511C5.14137 17.1507 5.14137 17.1502 5.14137 17.1497C5.14295 16.8904 5.07293 16.6056 4.95381 16.3318C4.75122 15.8673 4.40581 15.4355 4.02102 15.2158C3.82852 15.1044 3.65343 15.0585 3.51255 15.0789C3.38969 15.0982 2.63927 15.5566 2.68834 15.5281C3.4147 15.8565 3.983 16.69 4.156 17.4815C4.202 17.6894 4.23147 17.8949 4.20834 18.1372L4.90225 17.7344C5.06816 17.6385 5.14137 17.3714 5.14137 17.1511Z" fill="#C9FEFF"/>
<path d="M6.48067 13.0834C6.00537 12.8105 5.57387 12.759 5.26094 12.9329L3.91748 13.7136C5.37014 14.1245 6.69008 16.1465 6.68454 17.767C6.68341 17.9365 6.66475 18.093 6.63673 18.2417C6.63325 18.2602 6.63066 18.2792 6.62676 18.2974C6.62217 18.3188 6.62015 18.3423 6.615 18.3631L7.9436 17.5914C8.25558 17.407 8.42843 17.0065 8.42843 16.464C8.42843 16.4637 8.42843 16.4635 8.42843 16.4633C8.43224 15.2214 7.55815 13.7052 6.48067 13.0834Z" fill="#C9FEFF"/>
<path d="M2.88822 16.2429C2.30288 15.7259 1.7322 15.76 1.72731 16.5356C1.72731 16.6429 1.74681 16.7551 1.76634 16.8673C1.65414 16.9356 0.512765 17.5648 0.420087 17.6184C0.298144 17.6867 0.259114 17.833 0.322526 17.9501C0.390822 18.0672 0.537148 18.1111 0.654208 18.0477C1.1176 17.7892 1.58099 17.5306 1.91755 17.3453C2.00047 17.5404 2.10776 17.7257 2.23459 17.8965L1.12248 18.5111C1.00542 18.5793 0.961508 18.7257 1.0298 18.8427C1.09322 18.9647 1.24442 19.0037 1.36149 18.9403L2.57115 18.2672C2.65895 18.3452 2.75163 18.4135 2.8443 18.4672C3.39061 18.7842 3.72717 18.5452 3.72717 17.9745C3.72717 17.8233 3.70279 17.6623 3.65888 17.5014C3.53208 17.0331 3.24428 16.5551 2.88822 16.2429Z" fill="#C9FEFF"/>
<path d="M3.33936 14.1452C3.2212 14.1577 3.1089 14.1845 3.01075 14.2409C2.7629 14.3844 2.60249 14.6649 2.5459 15.0465C3.1421 14.6975 3.20265 14.6443 3.38947 14.6056C3.65387 14.5493 3.95605 14.6122 4.26546 14.7915C4.65546 15.0148 5.00072 15.3918 5.24678 15.824C5.48659 16.2441 5.63229 16.7164 5.6297 17.1518C5.6297 17.6641 5.40716 18.0047 5.14859 18.1576L4.31315 18.6433C4.36918 18.6816 4.42474 18.7172 4.48029 18.7499C5.46372 19.3183 6.19166 18.889 6.19559 17.7641C6.2019 15.9435 4.50375 14.0254 3.33936 14.1452Z" fill="#C9FEFF"/>
<path d="M17.4233 6.73362C16.9441 6.4552 16.505 6.40399 16.1844 6.58881C16.1799 6.5914 16.1748 6.59128 16.1702 6.59358C7.29863 11.7486 15.0693 7.23328 6.1499 12.4165C6.33672 12.4694 6.52871 12.5484 6.72425 12.6607C7.93701 13.3607 8.92018 15.0672 8.91637 16.4648C8.91637 16.6872 8.8838 16.8863 8.83617 17.0731L18.8925 11.2317C19.1979 11.0507 19.3678 10.6542 19.3711 10.1128C19.3749 8.87144 18.5008 7.35525 17.4233 6.73362Z" fill="#C9FEFF"/>
<path d="M18.1807 5.42539L17.0898 6.06083C18.7358 6.52636 20.2 9.05013 19.7893 10.7106L20.8777 10.0785C21.1897 9.89418 21.3626 9.49358 21.3626 8.95126C21.3682 7.11039 19.3197 4.75836 18.1807 5.42539Z" fill="#C9FEFF"/>
<path d="M23.6765 5.91145C23.6113 5.79308 23.4617 5.7514 23.345 5.81547L22.1414 6.48964C22.0652 6.28961 21.9676 6.09839 21.8471 5.92402L22.6734 5.45726C22.791 5.39224 22.8339 5.24362 22.7686 5.12597C22.7034 5.00784 22.5552 4.96544 22.4371 5.03046L21.5292 5.54336C21.4167 5.43562 21.2986 5.34098 21.1753 5.27006C20.9195 5.12263 20.6956 5.0912 20.5422 5.18099L20.0859 5.44458C20.7951 6.01586 21.4518 7.00748 21.7154 7.99235L22.0575 7.79371C22.2085 7.70297 22.2966 7.48933 22.2966 7.20948C22.2966 7.13288 22.2887 7.05339 22.2774 6.97292L23.5803 6.24275C23.6984 6.17797 23.7413 6.02959 23.6765 5.91145Z" fill="#C9FEFF"/>
</svg>
