<svg width="32" height="32" viewBox="0 0 32 32" fill="none" xmlns="http://www.w3.org/2000/svg">
<path d="M11.835 4.86638C11.6346 4.89005 11.4416 4.79331 11.3318 4.62405C10.7372 3.70731 9.7048 3.10011 8.53333 3.10011H8.28867C6.43247 3.10011 4.93593 4.60378 4.93867 6.45411L4.966 28.9001H5.5152C5.79933 28.9001 6.04733 29.1146 6.06553 29.3982C6.08547 29.7088 5.83967 29.9668 5.53333 29.9668H0.551466C0.267333 29.9668 0.0193325 29.7522 0.00113251 29.4687C-0.0188008 29.158 0.226999 28.9001 0.533333 28.9001H3.89933L3.872 6.45545C3.86927 4.01345 5.84407 2.03345 8.28867 2.03345H8.53333C10.0873 2.03345 11.4559 2.84331 12.239 4.06291C12.4372 4.37165 12.2696 4.81498 11.835 4.86638ZM12.4 5.90011C10.3413 5.90011 8.66667 7.57478 8.66667 9.63345V10.5668C8.66667 10.8614 8.90533 11.1001 9.2 11.1001H15.6C15.8947 11.1001 16.1333 10.8614 16.1333 10.5668V9.63345C16.1333 7.57478 14.4587 5.90011 12.4 5.90011ZM25.3373 29.4178C25.323 28.9507 25.332 27.9506 25.3332 25.5005C25.3333 25.2058 25.0945 24.9668 24.7999 24.9668H14.2668C13.9721 24.9668 13.7333 25.2058 13.7335 25.5005C13.7347 27.9508 13.7437 28.9508 13.7295 29.4179C13.7203 29.7186 13.9617 29.9668 14.2625 29.9668H24.8042C25.105 29.9668 25.3464 29.7185 25.3373 29.4178ZM29.6087 20.5668H28.7913C27.4727 20.5668 26.4 21.6394 26.4 22.9581V29.4334C26.4 29.7281 26.6387 29.9668 26.9333 29.9668H29.6087C30.9273 29.9668 32 28.8941 32 27.5754V22.9581C32 21.6394 30.9273 20.5668 29.6087 20.5668ZM10.2753 20.5668H9.458C8.13933 20.5668 7.06667 21.6394 7.06667 22.9581V27.5754C7.06667 28.8941 8.13933 29.9668 9.458 29.9668H12.1333C12.428 29.9668 12.6667 29.7281 12.6667 29.4334V22.9581C12.6667 21.6394 11.594 20.5668 10.2753 20.5668ZM18.4667 14.2334H12.1893C10.612 14.2334 9.33333 15.5121 9.33333 17.0894V18.9668C9.33333 19.2612 9.5718 19.5 9.86627 19.5001C9.97513 19.5001 10.1091 19.5002 10.2748 19.5002C12.1848 19.5002 13.7333 21.0484 13.7333 22.9584V23.3668C13.7333 23.6614 13.9721 23.9002 14.2667 23.9002H18.4667C18.7612 23.9002 19 23.6614 19 23.3668V14.7668C19 14.4722 18.7612 14.2334 18.4667 14.2334ZM26.744 14.2334H20.6C20.3055 14.2334 20.0667 14.4722 20.0667 14.7668V23.3668C20.0667 23.6613 20.3055 23.9001 20.6 23.9001H24.8C25.0945 23.9001 25.3333 23.6613 25.3333 23.3668V22.9581C25.3333 21.053 26.8829 19.5001 28.7913 19.5001H29.0667C29.3612 19.5001 29.6 19.2613 29.6 18.9668V17.0894C29.6 15.5121 28.3213 14.2334 26.744 14.2334Z" fill="#C9FEFF"/>
</svg>
