<svg width="24" height="24" viewBox="0 0 24 24" fill="none" xmlns="http://www.w3.org/2000/svg">
<g clip-path="url(#clip0_184_382)">
<path fill-rule="evenodd" clip-rule="evenodd" d="M12.5189 0.208603L23.619 10.8485C23.8651 11.0946 24 11.4185 24 11.7496C24 12.4386 23.439 12.9996 22.7499 12.9996H21V21.9996C21 23.1045 20.105 23.9995 18.9999 23.9995H5.00006C3.89502 23.9995 3 23.1045 3 21.9996V12.9996H1.25006C0.561035 12.9996 0 12.4386 0 11.7496C0 11.4185 0.134949 11.0946 0.370056 10.8595L11.4811 0.208603C11.7709 -0.0695343 12.2291 -0.0695343 12.5189 0.208603ZM7.5 18C6.67157 18 6 18.6716 6 19.5C6 20.3284 6.67157 21 7.5 21H16.5C17.3284 21 18 20.3284 18 19.5C18 18.6716 17.3284 18 16.5 18H7.5Z" fill="#C9FEFF"/>
</g>
<defs>
<clipPath id="clip0_184_382">
<rect width="24" height="24" fill="white"/>
</clipPath>
</defs>
</svg>
