<svg width="24" height="24" viewBox="0 0 24 24" fill="none" xmlns="http://www.w3.org/2000/svg">
<g clip-path="url(#clip0_184_242)">
<path d="M20.4 2.39999C20.4 2.1791 20.2209 2 20 2H4.00057C3.77968 2 3.60059 2.1791 3.60059 2.39999V13.5996H20.4V2.39999Z" fill="#C9FEFF"/>
<path d="M2.80062 14.3994H21.2C21.4209 14.3994 21.5999 14.5785 21.5999 14.7994V15.9994C21.5999 16.2202 21.4209 16.3993 21.2 16.3993H2.80062C2.57973 16.3993 2.40063 16.2202 2.40063 15.9994V14.7994C2.40063 14.5785 2.57973 14.3994 2.80062 14.3994Z" fill="#C9FEFF"/>
<path d="M12.8004 0.399986C12.8004 0.179095 12.6213 0 12.4004 0H11.6004C11.3795 0 11.2004 0.179095 11.2004 0.399986V1.19996H12.8004V0.399986Z" fill="#C9FEFF"/>
<path d="M2.81667 22.9993C2.70593 23.1899 2.77019 23.4344 2.96061 23.5457L3.65218 23.9457C3.74437 23.9992 3.85394 24.0141 3.95686 23.9865C4.05979 23.959 4.14767 23.8916 4.2006 23.7992L8.01219 17.1995H6.16459L2.81667 22.9993Z" fill="#C9FEFF"/>
<path d="M11.2004 22.3993C11.2004 22.6202 11.3795 22.7993 11.6004 22.7993H12.4004C12.6213 22.7993 12.8004 22.6202 12.8004 22.3993V17.1995H11.2004V22.3993Z" fill="#C9FEFF"/>
<path d="M17.6521 17.1995H15.8047L19.6161 23.7992C19.7266 23.9904 19.9711 24.0561 20.1625 23.9457L20.8541 23.5457C21.0451 23.435 21.1106 23.1905 21 22.9993L17.6521 17.1995Z" fill="#C9FEFF"/>
</g>
<defs>
<clipPath id="clip0_184_242">
<rect width="24" height="24" fill="white"/>
</clipPath>
</defs>
</svg>
