<svg width="24" height="24" viewBox="0 0 24 24" fill="none" xmlns="http://www.w3.org/2000/svg">
<path fill-rule="evenodd" clip-rule="evenodd" d="M0.852539 7.11687V11.2932C0.852539 12.0915 1.33254 12.8115 2.06943 13.1185L18.4468 19.9424C19.329 20.31 20.3274 20.2756 21.1822 19.8482C22.2963 19.2912 23 18.1525 23 16.907V13.7344C23 13.0544 22.5911 12.4411 21.9635 12.1796L4.70758 4.98963C4.25135 4.79953 3.762 4.70166 3.26775 4.70166C1.93386 4.70166 0.852539 5.78299 0.852539 7.11687ZM3.86126 5.3058C3.05378 4.97214 2.12872 5.35625 1.79506 6.16372C1.4614 6.97119 1.84551 7.89626 2.65298 8.22992L20.0673 15.4257C20.8748 15.7593 21.7998 15.3752 22.1335 14.5678C22.4672 13.7603 22.083 12.8352 21.2756 12.5016L3.86126 5.3058Z" fill="#C9FEFF"/>
</svg>
