<svg width="24" height="24" viewBox="0 0 24 24" fill="none" xmlns="http://www.w3.org/2000/svg">
<path fill-rule="evenodd" clip-rule="evenodd" d="M14.1427 1.9622C13.9509 4.42688 12.8986 5.40235 12.1941 6.05579C12.1692 6.07876 12.1448 6.10126 12.1209 6.12376L13.0533 8.85329H18.8991L19.8314 6.12376C19.8075 6.10126 19.7831 6.07876 19.7583 6.05579C19.0538 5.40282 18.0014 4.42688 17.8092 1.9622H14.1427ZM21.3084 21.6759V22.4709H23.0039V21.6759H21.3084ZM3.23062 21.6759H1.53516V22.4709H3.23062V21.6759ZM2.94703 16.9022V6.97688C2.94703 6.58735 2.63016 6.27095 2.24109 6.27095C1.85203 6.27095 1.53516 6.58782 1.53516 6.97688V16.9027H2.94703V16.9022ZM22.5089 17.4647H1.53516V21.113H23.0039V17.9592C23.0039 17.6869 22.7817 17.4647 22.5089 17.4647ZM9.74719 13.2539H3.50953V16.9022H21.8302V16.0674H11.092C10.3505 16.0674 9.74719 15.4641 9.74719 14.7225V13.2539ZM8.56828 12.0258C8.56828 11.5824 8.20734 11.2209 7.76391 11.2209H3.50953V12.6909H8.56828V12.0258ZM21.0478 13.2539C21.4791 13.2539 21.8302 13.6045 21.8302 14.0363V15.5053H11.092C10.6608 15.5053 10.3097 15.1542 10.3097 14.723V13.2544H21.0478V13.2539ZM10.8183 1.3997H21.1336C21.2892 1.3997 21.4148 1.52579 21.4148 1.68095V9.13454C21.4148 9.2897 21.2892 9.41579 21.1336 9.41579H10.8183C10.6631 9.41579 10.537 9.2897 10.537 9.13454V1.68095C10.537 1.52532 10.6631 1.3997 10.8183 1.3997ZM21.8123 1.0022V9.81329H10.1395V1.0022H21.8123ZM12.4589 8.85329H11.0995V6.32438H11.595L12.4589 8.85329ZM11.8116 5.64282C11.768 5.6836 11.7258 5.72298 11.6841 5.76188H11.0995V1.9622H13.5783C13.3955 4.17329 12.4847 5.01892 11.8116 5.64282ZM20.3573 6.32438H20.8523V8.85329H19.4934L20.3573 6.32438ZM18.3741 1.9622H20.8523V5.76188H20.2683C20.2266 5.72298 20.1844 5.6836 20.1408 5.64282C19.4677 5.01892 18.5569 4.17329 18.3741 1.9622Z" fill="#C9FEFF"/>
</svg>
