<svg width="24" height="24" viewBox="0 0 24 24" fill="none" xmlns="http://www.w3.org/2000/svg">
<path d="M11.9991 5.62469C12.3874 5.62469 12.7022 5.30986 12.7022 4.92153V2.43704C12.7022 2.04871 12.3874 1.73389 11.9991 1.73389C11.6107 1.73389 11.2959 2.04871 11.2959 2.43704V4.92153C11.2959 5.30986 11.6107 5.62469 11.9991 5.62469Z" fill="#C9FEFF"/>
<path d="M8.12092 6.81923C8.39548 7.09384 8.84072 7.09389 9.11533 6.81923C9.38993 6.54463 9.38993 6.09943 9.11533 5.82483L7.35856 4.06802C7.084 3.79341 6.63876 3.79341 6.36416 4.06802C6.08955 4.34262 6.08955 4.78781 6.36416 5.06242L8.12092 6.81923Z" fill="#C9FEFF"/>
<path d="M15.3802 7.02509C15.5602 7.02509 15.7401 6.95646 15.8774 6.81911L17.6342 5.0623C17.9088 4.78769 17.9088 4.3425 17.6342 4.06789C17.3597 3.79329 16.9144 3.79329 16.6398 4.06789L14.883 5.82471C14.4387 6.26896 14.7594 7.02509 15.3802 7.02509Z" fill="#C9FEFF"/>
<path d="M18.1414 14.8595L16.4205 9.35268C16.3287 9.05914 16.0568 8.85925 15.7493 8.85925H8.24898C7.94142 8.85925 7.66958 9.05914 7.57784 9.35268L5.85693 14.8595H18.1414Z" fill="#C9FEFF"/>
<path d="M22.378 16.2657C21.5152 16.2657 15.2989 16.2657 14.3913 16.2657C12.5683 22.0991 12.7024 21.635 12.7024 21.7491C12.7024 22.0345 12.9338 22.266 13.2193 22.266H23.2802C23.7883 22.266 24.1057 21.7946 23.9678 21.3531L22.378 16.2657Z" fill="#C9FEFF"/>
<path d="M11.2725 21.5949L9.6071 16.2657C8.64621 16.2657 2.46139 16.2657 1.62041 16.2657L0.0354022 21.3377C-0.115917 21.8219 0.238755 22.266 0.70176 22.266H10.7791C11.1275 22.266 11.3764 21.9276 11.2725 21.5949Z" fill="#C9FEFF"/>
</svg>
