<svg width="24" height="24" viewBox="0 0 24 24" fill="none" xmlns="http://www.w3.org/2000/svg">
<g clip-path="url(#clip0_184_63)">
<path d="M11.0068 24H16.8062V15.6848H11.0068V24ZM14.4119 18.5016C14.8476 18.5016 15.2007 18.8548 15.2007 19.2904C15.162 20.3356 13.6616 20.3353 13.6231 19.2904C13.6232 18.8548 13.9763 18.5016 14.4119 18.5016Z" fill="#C9FEFF"/>
<path d="M23.987 23.2518V15.6848H18.2114V23.9999H23.2387C23.652 24 23.987 23.665 23.987 23.2518ZM20.4012 18.5016C20.8369 18.5016 21.19 18.8548 21.19 19.2904C21.1513 20.3356 19.6509 20.3353 19.6124 19.2904C19.6124 18.8548 19.9656 18.5016 20.4012 18.5016Z" fill="#C9FEFF"/>
<path d="M8.85375 0H0.761401C0.348181 0 0.0131836 0.334997 0.0131836 0.748217V14.2796H9.60197V0.748217C9.60197 0.334997 9.26702 0 8.85375 0ZM7.37039 12.6499H4.8076C3.87638 12.6153 3.87708 11.2789 4.8076 11.2447H7.37039C8.30161 11.2793 8.3009 12.6157 7.37039 12.6499Z" fill="#C9FEFF"/>
<path d="M23.2387 12.3098H21.3262V11.5424C21.2916 10.6111 19.9552 10.6118 19.921 11.5424V12.3098H18.2246V9.02669C18.1116 6.05799 13.856 6.06029 13.7441 9.02669V9.03662C13.7786 9.96784 15.115 9.96714 15.1492 9.03662V9.02669C15.1914 7.9201 16.7777 7.92094 16.8194 9.02669V12.3098H15.1492V11.5424C15.1147 10.6111 13.7783 10.6118 13.7441 11.5424V12.3098H11.0068V14.2797H23.9869V13.058C23.9869 12.6448 23.6519 12.3098 23.2387 12.3098Z" fill="#C9FEFF"/>
<path d="M0.761157 24H9.60173V15.6848H0.0129395V23.2517C0.0129395 23.665 0.347937 24 0.761157 24Z" fill="#C9FEFF"/>
</g>
<defs>
<clipPath id="clip0_184_63">
<rect width="24" height="24" fill="white"/>
</clipPath>
</defs>
</svg>
