<svg width="40" height="40" viewBox="0 0 40 40" fill="none" xmlns="http://www.w3.org/2000/svg">
<path d="M26.6667 33.3334C26.3371 33.3333 26.015 33.2355 25.741 33.0524C25.4669 32.8692 25.2534 32.6089 25.1273 32.3044C25.0011 31.9999 24.9681 31.6649 25.0324 31.3416C25.0967 31.0184 25.2554 30.7214 25.4884 30.4884L30.9767 25H10.0001C9.55802 25 9.1341 24.8244 8.82154 24.5119C8.50898 24.1993 8.33338 23.7754 8.33338 23.3334C8.33338 22.8913 8.50898 22.4674 8.82154 22.1549C9.1341 21.8423 9.55802 21.6667 10.0001 21.6667H35.0001C35.3296 21.6668 35.6518 21.7646 35.9258 21.9477C36.1998 22.1308 36.4134 22.3911 36.5395 22.6956C36.6656 23.0001 36.6986 23.3352 36.6344 23.6584C36.5701 23.9817 36.4114 24.2786 36.1784 24.5117L27.8451 32.845C27.5326 33.1576 27.1087 33.3333 26.6667 33.3334ZM31.6667 15C31.6667 14.558 31.4911 14.1341 31.1786 13.8215C30.866 13.509 30.4421 13.3334 30.0001 13.3334H9.02339L14.5117 7.84503C14.8153 7.53069 14.9833 7.10969 14.9795 6.67269C14.9757 6.2357 14.8004 5.81768 14.4914 5.50866C14.1824 5.19965 13.7644 5.02437 13.3274 5.02057C12.8904 5.01677 12.4694 5.18476 12.1551 5.48836L3.82172 13.8217C3.5887 14.0548 3.43003 14.3517 3.36575 14.675C3.30147 14.9982 3.33447 15.3333 3.46059 15.6378C3.58671 15.9423 3.80027 16.2026 4.07429 16.3857C4.3483 16.5688 4.67047 16.6666 5.00005 16.6667H30.0001C30.4421 16.6667 30.866 16.4911 31.1786 16.1785C31.4911 15.866 31.6667 15.4421 31.6667 15Z" fill="#C9FEFF"/>
</svg>
