<svg width="24" height="24" viewBox="0 0 24 24" fill="none" xmlns="http://www.w3.org/2000/svg">
<path d="M16.839 13.2956L16.839 21.642C16.839 22.3204 16.284 22.8755 15.6055 22.8755L9.53297 22.8755C8.85455 22.8755 8.2995 22.3204 8.2995 21.642L8.2995 11.3628C8.2995 9.94891 10.1513 9.76042 10.6459 10.7967C10.7221 10.9564 10.7664 11.145 10.7664 11.3628C10.7664 14.4198 10.7664 17.4008 10.7664 20.1239L14.372 20.1239L14.372 15.7626L16.839 13.2956ZM20.5068 8.30205C21.4545 7.35438 20.7079 5.07138 18.8393 3.2028C16.9707 1.33422 14.6877 0.587642 13.74 1.53531C12.7924 2.48299 13.5389 4.76599 15.4075 6.63456C17.2761 8.50319 19.5591 9.24972 20.5068 8.30205ZM5.16075 16.8813C5.86683 17.5874 6.63202 18.133 7.362 18.4877L7.362 11.3628C7.362 8.96772 10.5635 8.44755 11.492 10.393C11.637 10.6968 11.7039 11.027 11.7039 11.3628L11.7039 17.1049L14.372 14.4368L16.839 11.9698L19.1659 9.64291C18.7738 9.62027 18.3801 9.53613 18.0111 9.41547C16.7938 9.01741 15.6437 8.19658 14.7446 7.29747C13.8456 6.39841 13.0247 5.24828 12.6266 4.03099C12.506 3.66199 12.4218 3.26824 12.3992 2.87613L3.49327 11.7821C2.54564 12.7298 3.29217 15.0128 5.16075 16.8813Z" fill="#C9FEFF"/>
</svg>
