<svg width="24" height="24" viewBox="0 0 24 24" fill="none" xmlns="http://www.w3.org/2000/svg">
<path d="M3.5555 1.77783H7.11106C7.58241 1.7783 8.03432 1.96575 8.36762 2.29905C8.70091 2.63235 8.88836 3.08426 8.88883 3.55561V9.77783H21.3333C21.569 9.77783 21.7951 9.87148 21.9618 10.0382C22.1285 10.2049 22.2222 10.431 22.2222 10.6667C22.2199 12.3982 21.5869 14.0695 20.4417 15.3682C19.2966 16.6668 17.7175 17.5038 15.9999 17.7227V21.3334C15.9999 21.5691 15.9063 21.7952 15.7396 21.9619C15.5729 22.1286 15.3468 22.2223 15.1111 22.2223H8.88883C8.65309 22.2223 8.42699 22.1286 8.26029 21.9619C8.0936 21.7952 7.99995 21.5691 7.99995 21.3334V17.7227C6.28237 17.5038 4.70334 16.6668 3.55814 15.3682C2.41295 14.0695 1.78002 12.3982 1.77772 10.6667V3.55561C1.77819 3.08426 1.96564 2.63235 2.29894 2.29905C2.63224 1.96575 3.08415 1.7783 3.5555 1.77783Z" fill="#C9FEFF"/>
<path d="M21.3333 8.88886H10.6666C10.4309 8.88886 10.2048 8.79521 10.0381 8.62851C9.87137 8.46181 9.77772 8.23572 9.77772 7.99997C9.77772 7.76422 9.87137 7.53813 10.0381 7.37143C10.2048 7.20473 10.4309 7.11108 10.6666 7.11108H21.3333C21.569 7.11108 21.7951 7.20473 21.9618 7.37143C22.1285 7.53813 22.2222 7.76422 22.2222 7.99997C22.2222 8.23572 22.1285 8.46181 21.9618 8.62851C21.7951 8.79521 21.569 8.88886 21.3333 8.88886Z" fill="#C9FEFF"/>
</svg>
