<svg width="24" height="24" viewBox="0 0 24 24" fill="none" xmlns="http://www.w3.org/2000/svg">
<path d="M3.75 15.75H20.25V18.75H3.75V15.75Z" fill="#C9FEFF"/>
<path d="M6 12H18V15H6V12Z" fill="#C9FEFF"/>
<path d="M8.25 9H15.75V11.25H8.25V9Z" fill="#C9FEFF"/>
<path d="M1.5 19.5H22.5V22.5H1.5V19.5Z" fill="#C9FEFF"/>
<path d="M9.2373 1.53878C8.93225 1.43624 8.59387 1.54171 8.40015 1.80025L1.65015 10.8003C1.55273 10.9299 1.5 11.0874 1.5 11.25V18.75H3V11.4997L3.75 10.4997V15H5.25V8.49981L6 7.49987V11.25H7.5V5.49994L8.25 4.49996V8.24996H9.75V2.24996C9.75 1.92696 9.54346 1.64058 9.2373 1.53878Z" fill="#C9FEFF"/>
<path d="M14.7627 1.53878C15.0677 1.43624 15.4061 1.54171 15.5999 1.80025L22.3499 10.8003C22.4473 10.9299 22.5 11.0874 22.5 11.25V18.75H21V11.4997L20.25 10.4997V15H18.75V8.49981L18 7.49987V11.25H16.5V5.49994L15.75 4.49996V8.24996H14.25V2.24996C14.25 1.92696 14.4565 1.64058 14.7627 1.53878Z" fill="#C9FEFF"/>
</svg>
