<svg width="40" height="40" viewBox="0 0 40 40" fill="none" xmlns="http://www.w3.org/2000/svg">
<path d="M31.6666 11.6666C31.2246 11.6666 30.8007 11.8422 30.4881 12.1548C30.1756 12.4673 30 12.8913 30 13.3333V31.985C29.9521 32.8278 29.5732 33.6175 28.9458 34.1823C28.3183 34.747 27.4931 35.0409 26.65 35H13.35C12.5068 35.0409 11.6816 34.747 11.0541 34.1823C10.4267 33.6175 10.0478 32.8278 9.99996 31.985V13.3333C9.99996 12.8913 9.82436 12.4673 9.5118 12.1548C9.19924 11.8422 8.77532 11.6666 8.33329 11.6666C7.89127 11.6666 7.46734 11.8422 7.15478 12.1548C6.84222 12.4673 6.66663 12.8913 6.66663 13.3333V31.985C6.7142 33.712 7.44426 35.3498 8.69693 36.5397C9.94959 37.7296 11.6227 38.3745 13.35 38.3333H26.65C28.3772 38.3745 30.0503 37.7296 31.303 36.5397C32.5557 35.3498 33.2857 33.712 33.3333 31.985V13.3333C33.3333 12.8913 33.1577 12.4673 32.8451 12.1548C32.5326 11.8422 32.1087 11.6666 31.6666 11.6666Z" fill="#C9FEFF"/>
<path d="M33.3333 6.66663H26.6667V3.33329C26.6667 2.89127 26.4911 2.46734 26.1785 2.15478C25.8659 1.84222 25.442 1.66663 25 1.66663H15C14.558 1.66663 14.134 1.84222 13.8215 2.15478C13.5089 2.46734 13.3333 2.89127 13.3333 3.33329V6.66663H6.66667C6.22464 6.66663 5.80072 6.84222 5.48816 7.15478C5.17559 7.46734 5 7.89127 5 8.33329C5 8.77532 5.17559 9.19924 5.48816 9.5118C5.80072 9.82436 6.22464 9.99996 6.66667 9.99996H33.3333C33.7754 9.99996 34.1993 9.82436 34.5118 9.5118C34.8244 9.19924 35 8.77532 35 8.33329C35 7.89127 34.8244 7.46734 34.5118 7.15478C34.1993 6.84222 33.7754 6.66663 33.3333 6.66663ZM16.6667 6.66663V4.99996H23.3333V6.66663H16.6667Z" fill="#C9FEFF"/>
<path d="M18.3333 28.3333V16.6667C18.3333 16.2246 18.1577 15.8007 17.8452 15.4882C17.5326 15.1756 17.1087 15 16.6667 15C16.2246 15 15.8007 15.1756 15.4882 15.4882C15.1756 15.8007 15 16.2246 15 16.6667V28.3333C15 28.7754 15.1756 29.1993 15.4882 29.5118C15.8007 29.8244 16.2246 30 16.6667 30C17.1087 30 17.5326 29.8244 17.8452 29.5118C18.1577 29.1993 18.3333 28.7754 18.3333 28.3333Z" fill="#C9FEFF"/>
<path d="M25 28.3333V16.6667C25 16.2246 24.8244 15.8007 24.5118 15.4882C24.1992 15.1756 23.7753 15 23.3333 15C22.8913 15 22.4673 15.1756 22.1548 15.4882C21.8422 15.8007 21.6666 16.2246 21.6666 16.6667V28.3333C21.6666 28.7754 21.8422 29.1993 22.1548 29.5118C22.4673 29.8244 22.8913 30 23.3333 30C23.7753 30 24.1992 29.8244 24.5118 29.5118C24.8244 29.1993 25 28.7754 25 28.3333Z" fill="#C9FEFF"/>
</svg>
