<svg width="24" height="24" viewBox="0 0 24 24" fill="none" xmlns="http://www.w3.org/2000/svg">
<path d="M3.75 4.5V19.5C3.75 19.6989 3.82902 19.8897 3.96967 20.0303C4.11032 20.171 4.30109 20.25 4.5 20.25H7.5V3.75H4.5C4.30109 3.75 4.11032 3.82902 3.96967 3.96967C3.82902 4.11032 3.75 4.30109 3.75 4.5Z" fill="#C9FEFF"/>
<path d="M19.6688 3.76905L9.91882 1.51905C9.80879 1.49445 9.69466 1.49463 9.5847 1.51958C9.47474 1.54454 9.37171 1.59364 9.28308 1.66334C9.19481 1.73354 9.12351 1.82275 9.0745 1.92432C9.02548 2.0259 9.00002 2.13723 9 2.25001V21.75C9.00013 21.9489 9.07919 22.1396 9.21981 22.2802C9.36044 22.4208 9.55113 22.4999 9.75 22.5C9.8068 22.4999 9.86341 22.4935 9.91882 22.481L19.6688 20.231C19.8341 20.1928 19.9815 20.0998 20.0871 19.967C20.1926 19.8342 20.2501 19.6696 20.25 19.5V4.50001C20.2501 4.3304 20.1926 4.16578 20.0871 4.03302C19.9815 3.90027 19.8341 3.80721 19.6688 3.76905ZM12.75 13.5C12.75 13.6989 12.671 13.8897 12.5303 14.0303C12.3897 14.171 12.1989 14.25 12 14.25C11.8011 14.25 11.6103 14.171 11.4697 14.0303C11.329 13.8897 11.25 13.6989 11.25 13.5V10.5C11.25 10.3011 11.329 10.1103 11.4697 9.96968C11.6103 9.82903 11.8011 9.75001 12 9.75001C12.1989 9.75001 12.3897 9.82903 12.5303 9.96968C12.671 10.1103 12.75 10.3011 12.75 10.5V13.5Z" fill="#C9FEFF"/>
</svg>
