<svg width="24" height="24" viewBox="0 0 24 24" fill="none" xmlns="http://www.w3.org/2000/svg">
<path d="M7.41804 6.55195C7.43724 6.57115 7.46124 6.57835 7.48524 6.57835C7.50924 6.57835 7.53324 6.56875 7.55244 6.55195C7.58844 6.51595 7.58844 6.45595 7.55244 6.41995L7.03644 5.90395C7.00044 5.86795 6.94044 5.86795 6.90444 5.90395C6.86844 5.93995 6.86844 5.99995 6.90444 6.03595L7.41804 6.55195Z" fill="#C9FEFF"/>
<path d="M6.41504 12.3791C6.43904 12.3791 6.46304 12.3695 6.48224 12.3527L7.11344 11.7215C7.14944 11.6855 7.14944 11.6255 7.11344 11.5895C7.07744 11.5535 7.01744 11.5535 6.98144 11.5895L6.35024 12.2207C6.31424 12.2567 6.31424 12.3167 6.35024 12.3527C6.36704 12.3695 6.39104 12.3791 6.41504 12.3791Z" fill="#C9FEFF"/>
<path d="M12.6548 6.13911C12.6788 6.13911 12.7028 6.12951 12.722 6.11271L13.3532 5.48151C13.3892 5.44551 13.3892 5.38551 13.3532 5.34951C13.3172 5.31351 13.2572 5.31351 13.2212 5.34951L12.59 5.98071C12.554 6.01671 12.554 6.07671 12.59 6.11271C12.6068 6.12951 12.6308 6.13911 12.6548 6.13911Z" fill="#C9FEFF"/>
<path d="M10.164 5.28234H10.1712C10.2192 5.28234 10.26 5.24634 10.2648 5.19594L10.3344 4.38954C10.3392 4.33914 10.3008 4.29354 10.2504 4.28874C10.2 4.28394 10.1544 4.32234 10.1496 4.37274L10.08 5.17914C10.0728 5.23194 10.1112 5.27754 10.164 5.28234Z" fill="#C9FEFF"/>
<path d="M5.38307 9.33598H5.39027L6.19667 9.26638C6.24707 9.26158 6.28547 9.21598 6.28067 9.16558C6.27587 9.11518 6.23027 9.07678 6.17987 9.08158L5.37347 9.15118C5.32307 9.15598 5.28467 9.20158 5.28947 9.25198C5.29427 9.29998 5.33507 9.33598 5.38307 9.33598Z" fill="#C9FEFF"/>
<path d="M17.431 16.2984C17.395 16.2624 17.335 16.2624 17.299 16.2984C17.263 16.3344 17.263 16.3944 17.299 16.4304L17.815 16.9464C17.8342 16.9656 17.8582 16.9728 17.8822 16.9728C17.9062 16.9728 17.9302 16.9632 17.9494 16.9464C17.9854 16.9104 17.9854 16.8504 17.9494 16.8144L17.431 16.2984Z" fill="#C9FEFF"/>
<path d="M12.1269 16.74L11.4958 17.3712C11.4597 17.4072 11.4597 17.4672 11.4958 17.5032C11.5149 17.5224 11.5389 17.5296 11.5629 17.5296C11.5869 17.5296 11.6109 17.52 11.6301 17.5032L12.2613 16.872C12.2973 16.836 12.2973 16.776 12.2613 16.74C12.2229 16.7016 12.1653 16.7016 12.1269 16.74Z" fill="#C9FEFF"/>
<path d="M18.3696 10.4976L17.7384 11.1288C17.7024 11.1648 17.7024 11.2248 17.7384 11.2608C17.7576 11.28 17.7816 11.2872 17.8056 11.2872C17.8296 11.2872 17.8536 11.2776 17.8728 11.2608L18.504 10.6296C18.54 10.5936 18.54 10.5336 18.504 10.4976C18.4656 10.4616 18.4056 10.4616 18.3696 10.4976Z" fill="#C9FEFF"/>
<path d="M19.4592 13.5143L18.6528 13.5839C18.6024 13.5887 18.564 13.6343 18.5688 13.6847C18.5736 13.7327 18.6144 13.7711 18.6624 13.7711H18.6696L19.476 13.7015C19.5264 13.6967 19.5648 13.6511 19.56 13.6007C19.5552 13.5479 19.5096 13.5095 19.4592 13.5143Z" fill="#C9FEFF"/>
<path d="M14.6879 17.5679C14.6375 17.5631 14.5919 17.6015 14.5871 17.6519L14.5175 18.4583C14.5127 18.5087 14.5511 18.5543 14.6015 18.5591H14.6087C14.6567 18.5591 14.6975 18.5231 14.7023 18.4727L14.7719 17.6663C14.7767 17.6183 14.7383 17.5727 14.6879 17.5679Z" fill="#C9FEFF"/>
<path d="M21.2732 3.75115L20.2484 2.72635C20.0468 2.52475 19.7804 2.42395 19.5164 2.42395C19.2524 2.42395 18.986 2.52475 18.7844 2.72635L18.2612 3.25195L20.7476 5.73595L21.2732 5.21275C21.6788 4.80955 21.6788 4.15435 21.2732 3.75115Z" fill="#C9FEFF"/>
<path d="M2.72623 18.7872C2.32303 19.1904 2.32303 19.8456 2.72623 20.2488L3.75103 21.2736C4.15423 21.6768 4.80943 21.6768 5.21263 21.2736L5.75263 20.7336L3.26623 18.2472L2.72623 18.7872Z" fill="#C9FEFF"/>
<path d="M3.396 18.1176L5.8824 20.604L20.616 5.86799L18.1296 3.38159L3.396 18.1176ZM13.2888 12.0936L9.2136 16.1736C9.1944 16.1904 9.1704 16.2 9.1464 16.2C9.1224 16.2 9.0984 16.1904 9.0792 16.1736C9.0432 16.1352 9.0432 16.0776 9.0792 16.0392L13.1568 11.964C13.1928 11.928 13.2528 11.928 13.2888 11.964C13.3248 12 13.3248 12.06 13.2888 12.0936ZM15.5112 9.87359L14.112 11.2728C14.0928 11.2896 14.0688 11.2992 14.0448 11.2992C14.0208 11.2992 13.9968 11.2896 13.9776 11.2728C13.9416 11.2344 13.9416 11.1768 13.9776 11.1384L15.3792 9.73919C15.4152 9.70319 15.4752 9.70319 15.5112 9.73919C15.5472 9.77999 15.5472 9.83759 15.5112 9.87359ZM17.1168 8.27039L16.164 9.22079C16.1448 9.23999 16.1208 9.24959 16.0968 9.24959C16.0728 9.24959 16.0488 9.23999 16.032 9.22079C15.996 9.18479 15.996 9.12479 16.032 9.08879L16.9824 8.13599C17.0208 8.09999 17.0784 8.09999 17.1168 8.13599C17.1504 8.17679 17.1504 8.23439 17.1168 8.27039ZM18.7848 6.46799C18.8232 6.50399 18.8232 6.56399 18.7848 6.59999L17.8464 7.53839C17.8272 7.55759 17.8032 7.56719 17.7792 7.56719C17.7552 7.56719 17.7312 7.55759 17.7144 7.53839C17.676 7.50239 17.676 7.44479 17.7144 7.40639L18.6528 6.46799C18.6888 6.42719 18.7488 6.42719 18.7848 6.46799Z" fill="#C9FEFF"/>
</svg>
