<svg width="24" height="24" viewBox="0 0 24 24" fill="none" xmlns="http://www.w3.org/2000/svg">
<path fill-rule="evenodd" clip-rule="evenodd" d="M1 20V14C1 13.4477 1.44771 13 2 13H11C11.5523 13 12 12.5523 12 12C12 11.4477 11.5523 11 11 11H2C1.44772 11 1 10.5523 1 10V8.69857C1 7.64478 1.5529 6.66826 2.45651 6.12609L10.2875 1.42752C10.7537 1.14777 11.2872 1 11.8309 1H12.1691C12.7128 1 13.2463 1.14777 13.7125 1.42752L21.5435 6.12609C22.4471 6.66826 23 7.64478 23 8.69857V10C23 10.5523 22.5523 11 22 11H18C17.4477 11 17 11.4477 17 12V14H15C14.4477 14 14 14.4477 14 15V17H12C11.4477 17 11 17.4477 11 18V22C11 22.5523 10.5523 23 10 23H4C2.34315 23 1 21.6569 1 20ZM22 13C22.5523 13 23 13.4477 23 14V20C23 21.6569 21.6569 23 20 23H14C13.4477 23 13 22.5523 13 22V19H15C15.5523 19 16 18.5523 16 18V16H18C18.5523 16 19 15.5523 19 15V13H22Z" fill="#C9FEFF"/>
</svg>
