<svg width="24" height="24" viewBox="0 0 24 24" fill="none" xmlns="http://www.w3.org/2000/svg">
<path fill-rule="evenodd" clip-rule="evenodd" d="M22.554 13.5002C22.554 13.7713 22.3981 14.0183 22.1534 14.1351L12.3032 18.8368C12.1115 18.9283 11.8887 18.9283 11.697 18.8368L1.8468 14.1351C1.6021 14.0183 1.44629 13.7713 1.44629 13.5002V10.8522C1.44629 10.5902 1.59181 10.35 1.82396 10.2286L11.6742 5.08004C11.8784 4.97332 12.1219 4.97332 12.326 5.08004L22.1763 10.2286C22.4084 10.35 22.554 10.5902 22.554 10.8522V13.5002ZM19.0359 13.7045L12 10.1866L4.96411 13.7045L12 17.2224L19.0359 13.7045Z" fill="#C9FEFF"/>
</svg>
